<?xml version="1.0" encoding="UTF-8"?>
<svg id="Layer_2" data-name="Layer 2" xmlns="http://www.w3.org/2000/svg" viewBox="0 0 512 488.51">
  <g id="Layer_1-2" data-name="Layer 1">
    <g>
      <path d="M361.14,.1h2.39c29.71,0,59.41,.17,89.12-.1,9.8-.09,18.55,2.49,26.62,7.7,13.22,8.54,23.61,19.6,29.84,34.24,2,4.69,2.9,9.6,2.89,14.72-.07,50.57-.06,101.14-.11,151.71-.07,76.1-.16,152.21-.29,228.31,0,5.13-2.02,9.85-3.91,14.5-7.02,17.28-20.11,27.68-37.73,32.82-12.92,3.77-26.2,4.8-39.55,4.42-13.37-.38-26.73-1.33-40.1-2-8.52-.43-17.04-.8-25.56-1.17-1.17-.05-2.34,0-3.62,0V.1Z"/>
      <path d="M332.83,117.47c-.74,123.57-1.48,246.71-2.22,370.07h-2.39c-91.11,0-182.22,0-273.32-.01-6.05,0-11.59-2.15-16.96-4.65-10.73-4.98-19.95-11.94-27.06-21.49-4.12-5.53-7.17-11.6-7.56-18.58-.18-3.24,.5-6.53,.9-9.78,.07-.59,.6-1.23,1.08-1.66,31.51-28.41,61.23-58.69,91.93-87.94,29.53-28.13,59.59-55.71,89.3-83.65,25.9-24.36,51.89-48.63,77.36-73.44,13.73-13.37,26.26-27.96,39.7-41.64,8.72-8.87,18.1-17.09,27.19-25.6,.53-.49,1.13-.9,2.06-1.63Z"/>
      <path d="M334,94.94c-5.13,.27-10.08,.64-15.04,.77-12.26,.32-24.53,.51-36.79,.78-15.02,.33-29.96,1.33-44.6,5.03-19.72,4.97-36.79,14.87-52.12,28-19.65,16.82-38.29,34.72-56.41,53.15-39.5,40.16-81.08,78.08-123.54,115.06-1.69,1.47-3.37,2.95-5.44,4.77v-2.43c0-63.33,0-126.66,0-189.99C.06,91.21,.17,72.35,0,53.48c-.06-6.59,1.56-12.59,5-18.07C14.89,19.69,28.37,8.2,45.91,1.85c3.26-1.18,6.93-1.68,10.42-1.68,90.91-.09,181.82-.07,272.73-.07h2.67c.76,31.61,1.51,63.12,2.27,94.85Z"/>
    </g>
  </g>
</svg>