<?xml version="1.0" encoding="utf-8"?>
<!-- Generator: Adobe Illustrator 27.0.0, SVG Export Plug-In . SVG Version: 6.00 Build 0)  -->
<svg version="1.1" id="Layer_1" xmlns="http://www.w3.org/2000/svg" xmlns:xlink="http://www.w3.org/1999/xlink" x="0px" y="0px"
	 viewBox="0 0 552 232" style="enable-background:new 0 0 552 232;" xml:space="preserve">
<g>
	<path d="M197,144.5h-43.8c-1.1,0-3.7-2.5-4.9-2.6c-1.4-0.1-3.6,2.1-5.2,2.7c-3.1,1.2-23.3,1-27.3,0.5c-2-0.3-3.3-1.2-5.1-2
		c-0.5,5.1-1.7,22.4-9.2,22.4H16.5c-0.3-1.2,0.5-1.4,1-2c3.4-4.4,9.4-7.9,11.9-12.9c3,1.2,5,3,8.5,3.4c17.1,1.9,37.6-1.5,55,0
		c2.7,0.4,6.4-4.3,6.4-6.5v-39.7h9.8c2.1,3.8,0.7,9.5,1,13.9c0.3,3.6,1.6,12.5,6.5,12.5h20.7c-14.7-12.6-16.2-25.1,5.4-29.6
		c14.4-3,35.4,1.5,25.3,20.5c-1.7,3.2-4.8,5.7-6.2,9h24.4V71.2c1.6,0,2.7,1.7,3.7,2.7c3.6,3.7,6.8,8.7,10.4,12.6
		c-0.8,1.1-3.3,5.1-3.3,6.1L197,144.5L197,144.5z M160.2,114.8c-6.5-6.4-29.9-2-21.9,9.3c1.5,2.1,7.1,7,9.6,7.4
		C156.1,132.9,165.2,119.8,160.2,114.8z"/>
	<path d="M63.3,71.9v55.7H83v-18.7l1-1h10.2l1,1v29.2c-0.6,1-1.4,0.9-2.3,1.1c-11.7,1.4-34.6,0.6-46.9,0
		c-10.9-0.6-32.5-2.7-29.2-18.4c2.9-13.9,30.9-34.1,41.8-44.4C60.2,74.8,61.1,72.1,63.3,71.9L63.3,71.9z M51.8,99
		c-4.3,0.6-9.9,5.1-13.3,8.1c-18.6,16.6-5.7,21.6,13.3,21.1V99z"/>
	<path d="M428.1,71.2c16.3,2.1,21,22.3,11.4,33.8l-7.7,4.2c13.1-0.2,12.6,13.9,17.1,22.7c3.6,7.1,8.5,9.8,15.9,5.2
		c2-0.6-3,4.5-3.8,5c-1.2,0.8-2.5,1.8-4,2.1c-18.4,4.3-18.8-19.6-26-29.8c-0.9-1.2-4.4-4.5-5.7-4.5h-15.3v31.6c-1,1.5-8,1.4-8.9,0.7
		l-0.5-0.8l-0.1-63.7c0-3.4-2-4.4-4.1-6.4C406.5,72.1,418.5,70,428.1,71.2L428.1,71.2z M410.2,107.2H422c0.3,0,4.3-1,4.9-1.2
		c9.7-3.6,9.9-24.8,2.5-29.9c-1-0.7-5.1-2.1-6-2.1h-13.2V107.2z"/>
	<path d="M247.2,117.4l-23,0.2c-1.5,4.2-9,19-6.1,22.5l3.5,1.3c-2.5,2.1-6.5,0.6-9.5,1c-0.1-1.1,0.2-2.2,0.5-3.3
		c5-18.5,16.6-38.1,21.8-57l0.1-5.5l-6-0.4c3.9-6.9,13.6-8,16.6,0.3l20.7,64.8c-0.1,1.4-9.5,1.5-10.5,0.3L247.2,117.4L247.2,117.4z
		 M246.6,114.6l-9.2-31.9l-11.9,31.9H246.6z"/>
	<path d="M507.1,117.4l-23,0.2c-0.8,0.5-6.6,16.5-6.8,18.4c-0.3,3.8,0.3,4.9,4.1,5.4c-1.3,1.7-10.1,1.4-10.2,0l22.9-59.2l0.1-5.5
		c-1.1-1.7-6.9,1.2-6-1.1c2.4-5.9,14.9-6.9,16.6,1l20.7,64.8c-0.1,1.4-9.5,1.5-10.5,0.3L507.1,117.4L507.1,117.4z M506.5,114.6
		l-9.2-31.9l-11.9,31.9H506.5z"/>
	<path d="M393.9,142.5l-9.9-0.7l-8.2-24.5l-22.7,0.4c-2.2,4.5-8.7,17.6-6.5,22.1c0.9,1.8,3.5,0.4,3.1,2.7c-1.7-0.2-9.3,0.7-9.5-1
		l23.1-61.1c0.4-7.1-5.5-3.1-6.1-3.7c3.3-7.6,12.6-8.2,16.2-0.3L393.9,142.5L393.9,142.5z M374.9,114.6l-8.5-31.9l-12.6,31.9H374.9z
		"/>
	<path d="M281.2,139.1h14.6c3.3,0,7.4-3.1,8.6-6.3c0.5-1.4,0-3.6,1.2-3.9v13.6h-33.9V77.6c0-0.4-1.2-3.5-1.6-3.8
		c-1.1-0.9-3.1,0-3.1-1.3c3.5-1.1,8.4-2.4,11.5,0.4c0.6,0.5,2.7,4.9,2.7,5.4L281.2,139.1L281.2,139.1z"/>
	<path d="M464.5,71.2v54c0,2.2,2.7,3.6,4.7,3.4c-3.3,2.4-9.5,2.5-12.2-0.7c-0.4-0.5-2-3.7-2-4.1V71.2H464.5L464.5,71.2z"/>
	<rect x="308.3" y="106.5" width="28.5" height="4.1"/>
	<path d="M258.1,151.3l3,0l3.4,9.5c1.2,0,1.9-11.6,6.4-9.5v12.6l-2,1v-9.5l-4.4,9.5l-4.4-9.5v9.5h-2V151.3L258.1,151.3z"/>
	<path d="M486.9,151.3c12.9-2.9,7.8,5.2,9.5,13.6c-4.2-0.8-0.6-7.2-6.4-6.1l-1.1,6.1c-0.6,0.3-2-0.6-2-1V151.3z M489.6,157.4
		c1.1-0.6,5.1-1.3,4.7-3c-1.2-1.4-3-1.9-4.7-1.7V157.4L489.6,157.4z"/>
	<path d="M355.7,152.1c0.6,0.6,0.9,2.3,1.5,3.2c-2.7,0.1-3.4-3.3-6.1-2.4c-4.9,1.6-3.2,13.7,3.3,9.8l0.1-2.9l-2.7-1.4
		c1.3-1.7,3.6-0.9,5.4-1l-0.3,6.8c-5.7,2-10.9,1.3-11-5.9C345.8,152.9,351.9,148.3,355.7,152.1L355.7,152.1z"/>
	<path d="M174.6,151.3c2.5-0.6,5-0.9,7.4,0.4c3.8,2.1,1,4,1,6.6c0,0.9,1.9,6.6,0.8,6.6c-4.5-1.6,0.2-7.6-7.1-6.1v6.1
		c-0.6,0.3-2-0.6-2-1L174.6,151.3L174.6,151.3z M181.3,153.4l-4.7-0.8v4.8l4.6-1.4C181.3,155.9,181.3,153.4,181.3,153.4z"/>
	<path d="M380.8,151.5c0.9,0.9,4.7,12.9,4.2,13.4c-3.4-0.2-1.6-4-5.1-4.1c-4.5-0.3-2.5,3.3-5.8,4.1c0.3-2.3,3.2-13.8,5.1-14.1
		C379.8,151,380.4,151.1,380.8,151.5z"/>
	<path d="M117.6,151.6c9.3-4.5,14.8,7.3,2.8,7.9l-0.1,5.4c-1.1,0.5-2.7-1.9-2.7-2.4L117.6,151.6L117.6,151.6z M125,156
		c0.6-2.8-2.6-3.2-4.7-3.3v4.7L125,156z"/>
	<path d="M241.1,162.5c-0.8,2.7-7,3.2-8.8,1.4c-0.8-0.8-1.8-10.7-1-11.9c4.5-2.1,1.3,8.2,2.7,10.2l4,0.7c2.3-0.5,0.1-10.7,1.8-11.9
		l1.4,0.7C240.6,154.6,241.8,159.9,241.1,162.5L241.1,162.5z"/>
	<path d="M288.7,151.3c2.9-0.6,5.3-1.2,8.1,0c2.1,2.2-5.8,1-6.1,1.3v4.1h5.4c0.7,2.6-4.4,1.7-4.7,2v4.1c0.4,0.4,5.2-0.9,6.1,1
		c0,1.7-7.4,0.8-8.8,1V151.3L288.7,151.3z"/>
	<path d="M459.7,150.6h8.1c-0.4,2.5-6,1.7-6.1,2.4v3l5.5,1c0.7,2.1-4.9,0.5-5.4,1v4.8c0.4,0.4,5.2-0.9,6.1,1c0,1.6-6.8,0.9-8.1,1
		V150.6L459.7,150.6z"/>
	<path d="M65.8,141.9c8.4-2.5,8.5,10.3,0,7.9C62.4,148.8,62.4,143,65.8,141.9z"/>
	<path d="M146.8,150.6h7.5c0.7,2.8-5.1,1.7-5.4,2v3.4l5.4,0.3c0,2.5-4,1.6-5.4,1.7v4.8c0.5,0.5,6.8-1.1,6.1,1l-7,0.9l-1.1-0.9
		L146.8,150.6L146.8,150.6z"/>
	<path d="M17.3,72.1c3.8-3.8,9.7,0.5,6.6,5.6S12.5,76.9,17.3,72.1z"/>
	<path d="M76.7,141.9c8.4-2.6,8.4,10.5,0,7.9C73.5,148.8,73.5,142.9,76.7,141.9z"/>
	<path d="M431.2,151.3l2.1,0.3l0.6,11.2c0.4,0.4,5.2-0.9,6.1,1c0,1.7-7.4,0.8-8.8,1V151.3z"/>
	<path d="M203.8,150.6h8.1c-1.1,2.3-4,2.1-6.1,2v4.1c0.3,0.2,5.2-0.5,5.4,1.3l-5.4,0.7l-0.7,5.8l-1.4-0.7V150.6L203.8,150.6z"/>
	<path d="M524.9,151.3c-1.4,4.8-5.2,8-4.1,13.6h-2c1.1-5.6-2.5-8.8-4.1-13.6c3.4-0.5,3.1,3.8,5.1,5.4
		C521.9,155.3,521.9,151.4,524.9,151.3z"/>
	<path d="M405.4,151.3v12.2c1.6,0.5,6.6-1.3,6.1,1.4h-8.1v-12.6C403.4,152.3,405.4,151.3,405.4,151.3z"/>
</g>
</svg>
