<?xml version="1.0" encoding="utf-8"?>
<!-- Generator: Adobe Illustrator 27.0.0, SVG Export Plug-In . SVG Version: 6.00 Build 0)  -->
<svg version="1.1" id="Layer_1" xmlns="http://www.w3.org/2000/svg" xmlns:xlink="http://www.w3.org/1999/xlink" x="0px" y="0px"
	 viewBox="0 0 552 232" style="enable-background:new 0 0 552 232;" xml:space="preserve">
<style type="text/css">
	.st0{clip-path:url(#SVGID_00000175309790161501373720000013052388735946229682_);}
</style>
<g transform="matrix(1, 0, 0, 1, 69, 19)">
	<g>
		<defs>
			<rect id="SVGID_1_" x="67.6" y="7.7" width="410.7" height="178.7"/>
		</defs>
		<clipPath id="SVGID_00000075146238021065472130000002397752443540698045_">
			<use xlink:href="#SVGID_1_"  style="overflow:visible;"/>
		</clipPath>
		<g style="clip-path:url(#SVGID_00000075146238021065472130000002397752443540698045_);">
			<g>
				<g transform="translate(0.921333, 103.648169)">
					<g>
						<path d="M102.1-29.7H73.3v-16.5h53.4L95.2,26.2h29.5v16h-54L102.1-29.7z"/>
					</g>
				</g>
			</g>
			<g>
				<g transform="translate(47.061545, 103.648169)">
					<g>
						<path d="M151,42.2L144.2,24h-36.7l-6.8,18.2H83.3l34.1-88.4h17l34.1,88.4H151z M113.8,7.5h24.2L125.9-25L113.8,7.5z"/>
					</g>
				</g>
			</g>
			<g>
				<g transform="translate(110.919598, 103.648169)">
					<g>
						<path d="M114.7-46.1h16.9v33.2h29.8v-33.2h16.9v88.4h-16.9V3.6h-29.8v38.6h-16.9V-46.1z"/>
					</g>
				</g>
			</g>
			<g>
				<g transform="translate(173.670287, 103.648169)">
					<g>
						<path d="M193.2,42.2L186.4,24h-36.7L143,42.2h-17.5l34.1-88.4h17l34.1,88.4H193.2z M156,7.5h24.2L168.1-25L156,7.5z"/>
					</g>
				</g>
			</g>
			<g>
				<g transform="translate(237.52834, 103.648169)">
					<g>
						<path d="M210.9-46.1h16.9v88.4h-16.2l-37.8-57.8v57.8h-16.9v-88.4H173l37.9,58V-46.1z"/>
					</g>
				</g>
			</g>
		</g>
	</g>
</g>
<g>
	<path d="M86.3,161.2V70.2h18c4.3,0,10.4,5.9,10.3,10.4l-0.1,71.9C111.7,165.5,96,161.1,86.3,161.2L86.3,161.2z"/>
	<path d="M28.4,161.7c-4.4-0.6-10.7-5.6-9.1-10.4c7.1-6.4,13.8-13.3,20.8-19.9c9-8.6,18.5-16.9,27.3-25.6C72,101.3,76,96.2,81,92.2
		l-0.4,69.5L28.4,161.7L28.4,161.7z"/>
	<path d="M80.8,70.2L81.2,88c-11.3,0.8-18.8-1.3-28,6.6c-6.9,5.9-13.6,13.2-20.3,19.5c-4.7,4.4-9.6,8.7-14.4,12.9V79.7
		c0-4,6.5-9.5,10.4-9.5L80.8,70.2L80.8,70.2z"/>
</g>
</svg>
