<?xml version="1.0" encoding="UTF-8"?>
<svg id="Layer_2" data-name="Layer 2" xmlns="http://www.w3.org/2000/svg" viewBox="0 0 500.38 500">
  <defs>
    <style>
      .cls-1 {
        fill: #f5923c;
      }

      .cls-2 {
        fill: #f27121;
      }

      .cls-3 {
        fill: #f6931d;
      }

      .cls-4 {
        fill: #ec1c24;
      }

      .cls-5 {
        fill: #e73136;
      }

      .cls-6 {
        fill: #f16522;
      }
    </style>
  </defs>
  <g id="Layer_1-2" data-name="Layer 1">
    <g>
      <path class="cls-4" d="M20.57,236.74c-1.77-15.2-1.95-30.87,0-46.07,.61-1.36,.15-2.88,.59-4.3,3.78-20.66,9.19-41.96,20.72-59.86,17.81-24.87,39.73-46.75,65.25-63.69,6.05-4.12,12.62-7.48,18.98-11.14,.64-.37,1.29-1.06,2.38-.36-39.8,62.99-52.46,144.27-28.57,215.42,24.39,77.18,102.45,139.21,185.04,111.97-15.45,10.56-37.44,15.11-56.37,18.07-1.6,.35-3.29,.02-4.82,.6-13.05,1.26-26.42,1.23-39.48,0-1.33-.8-2.91,.16-4.26-.59-.14-.02-.44-.03-.58,0-.9-.74-2.11,.09-3.02-.59-.13-.02-.4-.02-.54,0-.92-.74-2.15,.1-3.08-.6-.13-.02-.38-.01-.51,0-.91-.74-2.14,.1-3.06-.61h.03c-77.03-12.73-139.68-81.09-148.71-158.24Z"/>
      <path class="cls-4" d="M186.93,188.24c48.13-55.24,126.06-74.22,196.93-67.29,3.88,.39,7.8-.18,11.65,.65,1.94,.41,1.52-.99,1.46-2.01-.93-14.54-1.32-29.14-2.39-43.66-.35-3.34,1.04-3.86,3.78-3.86,9.33-.01,18.47,1.33,27.64,3,23.04,4.72,44.72,14.52,64.79,26.57,22.5,15.5-.4,37.65-9.82,53.43-10.41,17.5-22.57,33.94-32.81,51.51-.97,2.27-1.93,2.58-3.89,.66-68.28-66.74-176.81-56.47-257.34-19Z"/>
      <path class="cls-6" d="M144.32,220.44c9.54-66.71,67.72-115.97,126.48-142.18,2.17-1.04,1.95-1.61,1.02-3.49-6.32-13.29-14.57-25.53-20.75-38.86-.49-1.22-.75-1.8,.51-2.9,22.36-14.71,47.66-24.12,74.04-28.73,12.27-1.89,24.58-2.93,36.98-2.85,10.07-1.14,19.38,7.19,19.35,17.4,1.34,29.42,2.32,58.86,3.8,88.27,.11,2.06-.28,2.74-2.56,2.5-48.19-5.28-98.11-.09-142.61,19.85-40.89,18.91-75.31,51.31-96.25,90.99Z"/>
      <path class="cls-3" d="M116.92,265.09c-30.84-78.05-15.89-167.74,42.77-228.61,11.97-12.99,25.92-24.11,40.8-33.57,6.78-4.68,17.09-3.8,21.86,3.32,12.36,20.58,23.5,41.79,34.81,62.92,.93,1.9,.34,2.25-1.23,2.85-10.22,3.92-20.16,8.44-29.38,14.42-24.49,15.59-46.02,36.06-63.03,59.52-26.04,34.59-41.3,76.71-46.6,119.15Z"/>
      <path class="cls-5" d="M230.72,304.82c2.37-1.55,5.15-2,7.72-2.99,12.16-4.67,24.42-9.07,36.43-14.13,4.8-2.02,8.53-6.94,7.97-11.22-2.98,2.95-6.24,5.7-9.85,8.01-1.39,.89-2.96,1.28-4.56,.52-1.29-.61-2.44-.33-3.22,.7-1.61,2.14-3.8,2.07-6.15,2.15-5.27,.17-9.85-2.24-14.67-3.69-2.15-.65-4.02-.52-5.55,.96-1.98,1.92-4.31,3.45-6.06,5.65-2.8,3.52-5.34,7.21-7.99,10.83-1.75,2.4-2.55,4.93-2.67,7.74-.1,2.39-.03,4.79,.1,7.18,.67,12.56,1.4,25.11,2.08,37.66,.04,.75,.42,1.71-.46,2.19-4.21,2.33-7.49,6.41-12.74,6.8-.45,.03-1.11-.13-1.26,.48-.16,.67,.34,1.14,.91,1.38,3.05,1.28,6.35,2.95,9.43,1.06,3.49-2.14,7-1.91,10.64-1.46,2.46,.3,3.07-.96,2.87-2.95-.19-1.98-.83-3.93-.86-5.91-.16-10.14-.68-20.27,3.62-29.97,2.24-5.05,2.3-10.63,1.13-16.12-.64-3.03-2.3-3.94-5.18-2.87-1.54,.57-3.08,1.33-5.12,.97,.84-1.6,2.21-2.18,3.43-2.98Zm22.98-90.74c.82,3.5,3.17,5.41,6.43,6.41,1.14,.35,2.33,.55,3.48,.86,.74,.2,1.23,.79,1.27,1.51,.07,1.14-.95,.8-1.52,.86-2.59,.29-5.52,.69-7.58-.81-3.17-2.3-4.81-.82-6.69,1.46-.81,.99-1.8,1.9-2.87,2.6-.7,.46-.93,.9-.93,1.65,0,3.29,0,6.58-.04,9.87,0,1.25,.63,1.66,1.82,1.85,5.24,.82,5.34,.76,5.66-4.56,.1-1.59,.24-3.18,.31-4.77,.13-2.86,.93-3.47,3.31-1.86,5.03,3.4,9.26,7.52,10.75,13.78,.82,3.46,.24,6.96,.58,10.43,.08,.8-.21,2.17,1.17,1.95,4.69-.74,9.71-.73,13.64-3.77,6.75-5.22,7.82-12.66,6.94-20.48-.64-5.71-3.38-10.73-5.85-15.87-1.4-2.91-3.35-3.53-6.05-3.53-3.39,0-6.78,0-10.18,0,0-.03,0-.06,0-.1-4.08,.18-8.17,.43-12.25,.51-1.66,.03-1.7,.7-1.39,2.01Zm74.44,95.55c-7.59,0-15.17-.04-22.72-.92-5.74-.67-11.22-2.71-17.02-3.1-6.25-.43-8.92,.88-11.81,6.38-.52,.98-.57,2.59-2.32,2.04-1.76-.56-1.62-2.08-1.39-3.48,.43-2.67,1.48-5.16,2.46-7.66,1.68-4.26,2.95-8.61,3.38-13.21-1.38-.31-2.25,.46-3.16,.97-3.72,2.09-7.3,4.47-11.15,6.28-2.9,1.36-2.77,2.96-1.62,5.34,1.81,3.74,3.75,7.41,5.02,11.41,1.25,3.93,4.35,6.64,6.92,6.31,5.03-.65,10.04-1.49,15.1-1.99,7.53-.75,14.98-2.17,22.5-3.1,5.54-.68,8.73,1.56,11.56,5.73,2.61,3.83,2.73,8.19,3.24,13.03,1.86-1.42,2.2-2.86,2.22-4.51,.08-5.35-.31-10.7,1.63-15.94,1.03-2.79,.16-3.55-2.85-3.55Zm-107.43-96.63c1.35,.72,2.76,1.06,4.29,1.02,2.41-.06,4.83-.01,7.28-.01,.1,.76-.55,.91-1.09,1.09-1.35,.46-2.62,1.3-2.01,2.75,.68,1.6,2.43,1.35,3.9,1.05,.46-.1,.89-.44,1.3-.72,2.7-1.84,5.62-3.46,7.98-5.67,.97-.91,2.83-1.94,2.39-3.97-.15-.67-1.51-1.2-.49-1.96,.85-.63,2.01-.89,3.09-.33,.7,.36,1.33,.88,2.05,1.2,.95,.43,2.33,1.39,2.9,.27,.57-1.13,.95-2.86-.54-4.03-.46-.36-1.03-.65-1.07-1.57,3.3,.79,2.98-2.68,5.05-4.18-1.02-.29-1.71-.72-2.33-.63-2.67,.38-4.41-1.01-6.25-2.66-2.68-2.4-5.71-4.31-9.25-5.31-4.58-1.29-6.86-.3-8.92,3.88-1.24,2.51-2.68,4.98-5.25,6.27-2.23,1.11-3.18,2.57-2.59,4.97,.22,.91,.32,1.42-.77,2.1-2.99,1.87-2.74,4.79,.32,6.43Zm-25.11,109.9c-.4,2.33,1.07,2.28,2.69,2.26,4.19-.05,8.39-.01,12.58-.02,2.09,0,4.7,.7,4.05-3.02-.13-.73,.71-.88,1.11-1.28,1.43-1.45,2.38-3.11,2.68-5.18,.83-5.75-.26-11.31-1.46-16.87-.56-2.64-1.79-5.33,1.02-7.53,.34-.27,.59-.89,.59-1.34,0-6.07,.52-12.2-.53-18.19-.56-3.22-3.76-4.4-6.37-5.87-1.96-1.1-2.89,.7-4.2,1.36-2.84,1.43-5.33-.08-5.49-3.32-.05-1,.74-2.56-1.42-2.53-3.86,.05-7.71,.01-11.62,.01q.7,4.55,8.06,5.09c-5.09,3.25-5.74,7.89-5.27,12.96,.12,1.29,.03,2.6,.02,3.89-.04,3.08-.34,6.21,2.11,8.72,.72,.74,.31,1.7,.03,2.56-2.01,6.36-2.36,12.88-2.2,19.5,.08,2.98,.1,5.8,3.05,7.55,.47,.28,.65,.77,.56,1.28Zm11.77-3.19c-1.09,.1-2.19,.12-3.28,.07-1.13-.05-2.41-.28-2.35-1.7,.07-1.35,1.25-1.62,2.44-1.6h1.19c.6,.01,1.2,0,1.79,.01,1.03,.02,1.84,.57,1.92,1.52,.1,1.02-.73,1.61-1.72,1.7Zm-14-35.6c.08-2.79,.31-5.58,.22-8.37-.11-3.27,1.61-5.42,3.95-7.27,1.61-1.27,3.15-1.75,5.06-.18,1.84,1.49,4.02,1.39,6.18,.27,3.47-1.81,8.24,1.07,8.42,5.09,.11,2.49,.16,7.48,.16,7.48,0,2.5,.07,4.99-.02,7.48-.07,1.8-.62,3.34-2.81,3.58-1.87,.21-3.16-.08-2.78-2.44,.14-.88-.05-1.8,.04-2.69,.15-1.48-.51-1.89-1.9-1.85-2.99,.08-5.99,.11-8.98-.01-1.74-.07-2.38,.56-2.15,2.23,.07,.49,.13,1.04-.02,1.49-.33,.99,.93,2.52-.94,2.98-1.75,.44-2.42-.87-3.21-2.05-1.19-1.76-1.28-3.73-1.22-5.73Zm1.13,35c-.63-.91-1.13-1.85-1.25-3-.76-7.29,.86-14.28,2.61-21.25,.31-1.24,1.11-1.43,2.24-1.39,2.39,.07,4.79,.02,7.19,.02,0,0,2.2,.16,3.3,.17q6.11,.07,7.34,5.9c1.04,4.99,1.83,10.01,1.37,15.14-.08,.89-.19,1.8-.5,2.63-.95,2.59-1.85,2.78-4.03,1.15-2.34-1.75-4.25-3.89-5.71-6.36-1.3-2.18-2.21-1.94-3.58-.08-1.88,2.56-3.87,5.05-6.15,7.3-1.24,1.22-1.98,1-2.83-.21Zm68.51-39.16c-.01-1.42,.54-1.22,1.31-1.1,1.19,.19,2.27,.62,3.26,1.36,1.37,1.02,2.85,1.27,4.44,.3,4.76-2.89,9.13-6.33,13.63-9.58,.47-.34,1.32-.54,.59-1.54-2.33-3.15-8.09-4.83-11.72-3.29-2.47,1.05-4.86,2.31-7.38,3.2-6.08,2.16-12.15,4.63-18.82,2.37-.42-.14-1.01-.11-1.42,.07-3.35,1.51-5.98,3.76-7.46,7.41,6.38,1.24,12.61,2.43,18.7,4.25,2.05,.61,4.89-1.3,4.87-3.47Zm66.34-21.39c-16.08,.12-32.17,.05-48.25,.08-.85,0-1.79-.34-2.63,.43,1.79,1.58,3.59,3.11,5.32,4.71,1.7,1.58,3.6,2.15,5.96,2.13,12.89-.1,25.78-.05,38.66-.05,4.06,0,3.91,0,4.1-4.2,.12-2.52-.69-3.13-3.16-3.11Zm-143.84,2.65c-1.28-1.18-2.53-2.37-1.74-4.35,.51-1.29-.57-.96-1.1-1.04-2.86-.46-4.45,1.24-4.8,4.98-.07,.78,.51,1.91-.84,2.22-1.09,.25-1.55-.44-2.04-1.29-1.9-3.25-4.84-4.13-8.43-3.71-4.8,.55-9.25,2.31-13.75,3.87-2.29,.8-4.73,1.29-7.1,2.97,5.61,1.87,11.07,2.93,16.44,4.32,4.96,1.28,9.48,1.09,13.08-3.15,.72-.85,1.57-1.27,2.49-.19,2.71,3.18,2.92,7.67,.56,11.11-1.06,1.55-.86,3.22-.29,4.86,.32,.91,1.12,1.76,1.98,1.51,1.54-.44,3.59-.32,4.42-1.86,.79-1.46,.12-3.16-.95-4.43-1.65-1.94-2.02-3.74-.03-5.69,1.19-1.17,1.03-2.26-.49-3.11-.59-.33-1.25-.68-1.23-1.99,.79,0,1.47,0,2.15,0,.8,0,1.6,.04,2.39-.01,2.09-.15,2.61-1.18,1.37-2.89-.57-.8-1.37-1.44-2.1-2.12Zm34.3-32.11c-1.28,1.25-1.64,2.54,.63,2.87,3.75,.55,4.85,3,5.04,6.31,.09,1.64,.49,3.11,1.98,4.13,6.41,4.37,12.65,9,19.86,12.04q5.33,2.25,5.33-3.6v-.3c0-1.2-.12-2.41,.03-3.59,.27-2.07-.67-2.5-2.54-2.42-5.1,.22-10.04-.33-14.92-2.24-4.13-1.61-6.14-3.32-6.53-7.64-.14-1.52-.48-2.96-1.26-4.25-1.8-2.98-5.27-3.58-7.61-1.31Zm40.59,28.6c1.64-.41,3.73-.75,3.42-3.29-.43-3.46-.75-6.95-1.88-10.26-.89-2.6-1.98-5.16-5.09-6.81,0,6.16,0,11.83,0,17.51,0,3.64,.03,3.74,3.55,2.86Zm-48.95-14.77c2.19-1.73,2.99-1.45,3.44,1.28,.18,1.08,.64,1.85,1.7,2.24,1.15,.42,1.48-.33,2.07-1.1,.88-1.15,2.04-1.63,3.15-.08,.42,.6-.12,2.2,1.36,1.66,.98-.35,.6-1.56,.69-2.33-.05-3.42-3.36-7.8-6.28-8.38-2.59-.52-6.79,2.09-8.17,5.02-.41,.87-.71,1.72,.14,2.43,.99,.82,1.35-.31,1.9-.74Zm-.13,20.81c.71,1.29,1.83,1.93,3.48,2.02,4.27,.25,8.53,.75,12.8,.9,4.51,.16,9,.98,14.06,.64-1.36-1.31-.69-3.56-3.05-3.56-9.04,0-18.09,0-27.29,0Zm23.25-26.11c.98,.78,2.27,1.16,3.44,1.68,1.35,.61,2.22,.47,2.29-1.33,.14-3.94,.39-7.87,.63-12.32-2.83,1.5-4.5,3.28-6.35,4.84-2.32,1.96-2.37,5.25,0,7.13Zm17.97,30.53c-.54,2.26,.89,1.81,2.03,1.42,4.98-1.67,9.94-3.43,14.58-5.93,.66-.36,2.58-.25,1.62-1.65-.79-1.15-1.81-3.32-3.94-1.91-3.87,2.54-8.17,4.07-12.48,5.58-1.32,.46-2.01,1.12-1.82,2.49Zm-42.2-8.06c8.16,.09,16.31,.04,24.68,.04-.33-2.34-1.66-2.72-3.46-2.69-7.06,.14-14.13,.22-21.19,.29-3.91,.04-4.25,.41-3.58,5.15,.41-2.68,1.8-2.81,3.55-2.79Zm32.91-42.19c-.82-1.14-1.94-.8-2.92-.18-3.58,2.27-7.15,4.58-10.71,6.89-.63,.41-1.65,.66-1.36,1.67,.31,1.07,1.41,.87,2.26,1.02,1.1-.05,2.12-.26,3.07-.93,2.83-1.99,5.73-3.87,8.54-5.89,.8-.58,2.11-1.23,1.12-2.59Zm-27.08,110.31c.05-1.51-1.18-1.04-1.95-1.05-6.18-.04-12.35-.04-18.53,0-.77,0-1.99-.44-1.88,1.1,.08,1.18,.97,1.36,1.94,1.36,3.09,0,6.18,0,9.26,0,3.09,0,6.18,0,9.26,0,1,0,1.86-.27,1.9-1.42Zm33.62-66.23c.11-.13,.14-.34,.22-.56-3.52-2.55-7.76-3.68-11.74-5.66,1.36,2,2.61,4.1,4.12,5.99,3.67,4.61,2.58,5.69,7.4,.23Zm.55-47.38c0-.62-.18-1.26-.88-1.38-.77-.13-.98,.46-1.09,1.09-.37,2.11-1.29,4.13-1.08,6.65,2.24-1.77,3.06-3.88,3.06-6.37Zm-50.06,68.21c1.59,.01,3.19,0,4.78,0,1.69,0,3.39,.02,5.08,0,.66-.01,1.54,.16,1.57-.88,.03-.92-.49-1.51-1.46-1.51-3.39-.01-6.77-.01-10.16,.02-.82,0-1.25,.59-1.27,1.37-.03,1.03,.76,1,1.46,1Zm4.76,22.41c.18,.15,1.17-.35,1.51-.77,1.87-2.26,4.91-2.28,4.81-6.17-.73-2.35-8.22-.54-10.59-1.11-2.54-.04-2.73,1.86-2,3.22,1.29,2.4,4.24,3.1,6.27,4.83Zm7.34,7.39c.08-2.53-.16-4.8-.61-7.1-4.03,2.44-4.02,2.62,.61,7.1Zm-14.23-7.09c-.19,2.34-.37,4.59-.58,7.14,4.75-4.3,4.78-4.72,.58-7.14Z"/>
      <path class="cls-1" d="M330.38,170.73c-5.92-.56,2.22,5.12,4.09,7.95,.89-.55,1.56,.01,2.12,.54,2.3,2.2,4.87,4.2,6.56,6.93,4.41,7.03,10.66,12.67,14.67,19.96,23.2,36.44,33.53,80.6,28.04,123.35-13.24,105.22-116.48,181.12-220.03,158.24-.17,.1-12.31-3.73-.14,.69,81.75,27.71,178.68,4.74,239.35-57.01,27.82-26.56,49.41-60.42,54.35-99.18,11.52-77.3-48.84-159.37-129.01-161.46Z"/>
      <path class="cls-2" d="M161.45,486.67C17.94,440.67-45.2,264.16,35.51,137.21c1.56,1.51-5.21,14.6-5.92,17.79-3.69,10.46-5.24,21.51-7.94,32.17-1.2,10.6-2.68,21.45-1.69,32.15,1.92,89.47,74.74,169.54,164.33,177.32,46.44,5.44,94.52-9.03,132.63-35.77,56.83-44.12,62.14-127.39,17.54-182.19,.89-.56,1.56,.01,2.12,.54,2.3,2.2,4.87,4.2,6.56,6.93,4.41,7.03,10.66,12.67,14.67,19.96,23.2,36.44,33.53,80.6,28.04,123.35-13.42,106.7-119.41,183.25-224.41,157.22Z"/>
    </g>
  </g>
</svg>