<?xml version="1.0" encoding="UTF-8"?>
<svg id="Layer_2" data-name="Layer 2" xmlns="http://www.w3.org/2000/svg" viewBox="0 0 434.23 434.23">
  <g id="Layer_2-2" data-name="Layer 2">
    <g id="Layer_1-2" data-name="Layer 1-2">
      <g>
        <path d="M306.29,.09h2.03c25.2,0,50.39,.15,75.58-.09,8.31-.08,15.73,2.21,22.58,6.84,11.21,7.59,20.02,17.42,25.31,30.44,1.7,4.17,2.46,8.53,2.45,13.08-.06,44.95-.05,89.9-.09,134.86-.06,67.65-.14,135.3-.25,202.95,0,4.56-1.71,8.76-3.32,12.89-5.95,15.36-17.06,24.61-32,29.17-10.96,3.35-22.22,4.27-33.54,3.93-11.34-.34-22.67-1.18-34.01-1.78-7.23-.38-14.45-.71-21.68-1.04-.99-.04-1.98,0-3.07,0V.09h0Z"/>
        <path d="M282.28,104.42c-.63,109.84-1.26,219.3-1.88,328.96h-2.03c-77.27,0-154.54,0-231.8,0-5.13,0-9.83-1.91-14.38-4.13-9.1-4.43-16.92-10.61-22.95-19.1-3.49-4.92-6.08-10.31-6.41-16.52-.15-2.88,.42-5.8,.76-8.69,.06-.52,.51-1.09,.92-1.48,26.72-25.25,51.93-52.17,77.97-78.17,25.04-25.01,50.54-49.52,75.74-74.36,21.97-21.65,44.01-43.23,65.61-65.28,11.64-11.88,22.27-24.85,33.67-37.01,7.4-7.88,15.35-15.19,23.06-22.76,.45-.44,.96-.8,1.75-1.45h0Z"/>
        <path d="M283.27,84.4c-4.35,.24-8.55,.57-12.76,.68-10.4,.28-20.8,.45-31.2,.69-12.74,.29-25.41,1.18-37.83,4.47-16.72,4.42-31.2,13.22-44.2,24.89-16.67,14.95-32.47,30.86-47.84,47.25-33.5,35.7-68.76,69.41-104.77,102.28-1.43,1.31-2.86,2.62-4.61,4.24V97.85c0-16.77,.09-33.54-.05-50.31-.05-5.86,1.32-11.19,4.24-16.06C12.63,17.5,24.06,7.29,38.94,1.65c2.76-1.05,5.88-1.49,8.84-1.49,77.1-.08,154.2-.06,231.3-.06h2.26c.64,28.1,1.28,56.11,1.93,84.31h0Z"/>
      </g>
    </g>
  </g>
</svg>