<?xml version="1.0" encoding="UTF-8"?>
<svg id="Layer_1" xmlns="http://www.w3.org/2000/svg" version="1.1" viewBox="0 0 1053.08 319.52">
  <!-- Generator: Adobe Illustrator 29.6.1, SVG Export Plug-In . SVG Version: 2.1.1 Build 9)  -->
  <defs>
    <style>
      .st0 {
        fill: #56aebf;
      }

      .st1 {
        fill: none;
        stroke: #56aebf;
        stroke-miterlimit: 10;
        stroke-width: 8px;
      }
    </style>
  </defs>
  <rect class="st1" x="2" y="2" width="1049.08" height="315.52" rx="62.53" ry="62.53"/>
  <g>
    <g>
      <path class="st0" d="M243.88,172.58c-5.05-25.66,17.26-39.35,18.89-40.32-3.42-4.57-7.39-8.01-11.4-10.51-13.34-8.31-29.58-9.09-39.24-4.83-.1.04-.19.08-.29.13-9.43,4.11-20.15,4.11-29.58,0-.1-.04-.19-.08-.29-.13-9.67-4.25-25.9-3.48-39.24,4.83-13.34,8.31-26.29,27.06-19.72,63.02,6.57,35.95,30.54,57.8,30.54,57.8,0,0,11.41,9.86,26.48,3.29,9.42-4.11,13.71-4.82,15.6-4.77.94.02,1.88.02,2.81,0,1.89-.05,6.18.66,15.6,4.77,15.08,6.57,26.48-3.29,26.48-3.29,0,0,16.79-15.31,26.12-41.39-8.02-3.7-19.48-11.81-22.78-28.6h.02Z"/>
      <path class="st0" d="M192.81,115.56s-4.22-35.83,36.14-42.25l-.16,4.81c-.67,19.84-16.19,35.98-35.98,37.44h0Z"/>
    </g>
    <g>
      <g>
        <path class="st0" d="M354.01,84.39c0,4.42-.56,8.31-1.67,11.68-1.11,3.37-2.75,6.2-4.92,8.47-2.17,2.28-4.84,4-8.03,5.16-3.18,1.16-6.98,1.75-11.4,1.75h-10.36c-.49,0-.99-.18-1.5-.55s-.77-1.04-.77-2.01v-47.46c0-.98.26-1.65.77-2.01.51-.37,1.02-.55,1.5-.55h11.05c4.47,0,8.24.61,11.32,1.83,3.07,1.22,5.65,2.95,7.72,5.18,2.07,2.23,3.64,4.92,4.69,8.05,1.06,3.13,1.58,6.62,1.58,10.46h.02ZM348.68,84.63c0-3.06-.39-5.9-1.16-8.51s-1.96-4.87-3.58-6.77c-1.61-1.9-3.65-3.38-6.12-4.45s-5.61-1.61-9.43-1.61h-8.09v43.72h8.13c3.58,0,6.6-.44,9.08-1.32,2.48-.88,4.54-2.24,6.2-4.08,1.65-1.84,2.89-4.17,3.72-6.97s1.24-6.14,1.24-10.02h0Z"/>
        <path class="st0" d="M397.53,91.86c0,2.93-.38,5.62-1.14,8.09-.76,2.47-1.89,4.61-3.39,6.42-1.5,1.82-3.38,3.23-5.63,4.25s-4.86,1.52-7.84,1.52-5.38-.45-7.54-1.36c-2.15-.91-3.96-2.21-5.4-3.9-1.45-1.69-2.53-3.75-3.25-6.16s-1.08-5.13-1.08-8.17.37-5.62,1.12-8.09c.75-2.47,1.87-4.6,3.37-6.4s3.38-3.2,5.63-4.21c2.25-1,4.88-1.5,7.88-1.5s5.38.45,7.54,1.34,3.95,2.19,5.38,3.88c1.44,1.69,2.52,3.75,3.25,6.16.73,2.41,1.1,5.12,1.1,8.13h0ZM392.41,92.31c0-2.09-.2-4.08-.61-5.97-.41-1.9-1.08-3.57-2.03-5.02s-2.22-2.6-3.82-3.45-3.59-1.28-5.97-1.28c-2.19,0-4.09.39-5.69,1.18s-2.91,1.88-3.92,3.27c-1.02,1.4-1.77,3.04-2.26,4.94s-.73,3.94-.73,6.14.2,4.12.61,6.03c.41,1.91,1.08,3.58,2.03,5.02s2.22,2.57,3.82,3.41c1.6.84,3.59,1.26,5.97,1.26,2.19,0,4.09-.39,5.69-1.18s2.91-1.87,3.92-3.25,1.77-3.02,2.26-4.92.73-3.96.73-6.18Z"/>
        <path class="st0" d="M456.77,73.78c0,.14-.02.29-.06.47s-.09.37-.14.59l-11.38,35.8c-.05.22-.16.39-.3.53-.15.14-.35.24-.59.33-.24.08-.56.14-.95.16-.39.03-.86.04-1.4.04-.57,0-1.06-.02-1.46-.06-.41-.04-.74-.1-1-.18s-.46-.19-.61-.33-.25-.3-.3-.49l-8.53-29.01-.08-.33-.08.33-7.96,29.01c-.05.22-.16.39-.33.53-.16.14-.39.24-.67.33-.28.08-.63.14-1.04.16-.41.03-.87.04-1.38.04-.54,0-1-.02-1.38-.06s-.7-.1-.95-.18c-.26-.08-.45-.19-.59-.33s-.23-.3-.28-.49l-11.3-35.8c-.08-.19-.14-.38-.18-.57s-.06-.35-.06-.49c0-.19.04-.35.12-.49s.22-.24.41-.3.43-.12.73-.14c.3-.03.66-.04,1.1-.04.57,0,1.03.02,1.38.06s.62.1.79.18c.18.08.3.19.39.33.08.14.15.3.2.49l9.71,32.1.08.28.08-.28,8.82-32.1c.05-.19.13-.35.22-.49s.23-.24.41-.33c.18-.08.42-.14.73-.18s.71-.06,1.2-.06c.46,0,.84.02,1.14.06.3.04.54.1.73.18s.33.19.41.33c.08.14.15.3.2.49l9.51,32.1.08.28.04-.28,9.67-32.1c.05-.19.13-.35.22-.49s.24-.24.43-.33c.19-.08.45-.14.79-.18s.78-.06,1.32-.06c.43,0,.79.01,1.06.04s.49.08.65.16.27.18.33.3.08.28.08.47h-.03Z"/>
        <path class="st0" d="M495.95,110.64c0,.16-.04.31-.12.45s-.21.24-.39.33c-.18.08-.42.15-.73.2s-.7.08-1.16.08c-.49,0-.89-.03-1.2-.08s-.56-.12-.73-.2c-.18-.08-.3-.19-.39-.33-.08-.14-.12-.28-.12-.45v-21.82c0-2.28-.18-4.12-.53-5.55s-.88-2.64-1.58-3.66-1.61-1.8-2.7-2.36c-1.1-.56-2.38-.83-3.84-.83-1.87,0-3.74.66-5.61,1.99-1.87,1.33-3.83,3.28-5.89,5.85v26.37c0,.16-.04.31-.12.45s-.21.24-.39.33c-.18.08-.42.15-.73.2-.31.05-.71.08-1.2.08-.46,0-.85-.03-1.16-.08s-.56-.12-.75-.2c-.19-.08-.32-.19-.39-.33s-.1-.28-.1-.45v-36.78c0-.16.03-.31.1-.45s.2-.25.39-.35c.19-.09.43-.16.71-.2.28-.04.66-.06,1.12-.06s.84.02,1.14.06c.3.04.53.11.69.2s.28.21.35.35.1.28.1.45v5.2c2.11-2.36,4.19-4.06,6.22-5.12,2.03-1.06,4.05-1.58,6.05-1.58,2.41,0,4.44.41,6.1,1.22,1.65.81,2.99,1.91,4,3.29,1.02,1.38,1.75,2.99,2.19,4.84.45,1.84.67,4.06.67,6.66v22.27h0Z"/>
        <path class="st0" d="M514.19,110.64c0,.16-.04.31-.12.45s-.21.24-.39.33c-.18.08-.42.15-.73.2-.31.05-.71.08-1.2.08-.46,0-.85-.03-1.16-.08s-.56-.12-.75-.2c-.19-.08-.32-.19-.39-.33s-.1-.28-.1-.45v-54.78c0-.16.03-.31.1-.45s.2-.25.39-.35c.19-.09.44-.16.75-.2s.7-.06,1.16-.06c.49,0,.89.02,1.2.06s.56.11.73.2c.18.09.3.21.39.35s.12.28.12.45v54.78Z"/>
        <path class="st0" d="M560.27,91.86c0,2.93-.38,5.62-1.14,8.09-.76,2.47-1.89,4.61-3.39,6.42-1.5,1.82-3.38,3.23-5.63,4.25s-4.86,1.52-7.84,1.52-5.38-.45-7.54-1.36c-2.15-.91-3.96-2.21-5.4-3.9-1.45-1.69-2.53-3.75-3.25-6.16s-1.08-5.13-1.08-8.17.37-5.62,1.12-8.09c.75-2.47,1.87-4.6,3.37-6.4s3.38-3.2,5.63-4.21c2.25-1,4.88-1.5,7.88-1.5s5.38.45,7.54,1.34,3.95,2.19,5.38,3.88c1.44,1.69,2.52,3.75,3.25,6.16.73,2.41,1.1,5.12,1.1,8.13h0ZM555.15,92.31c0-2.09-.2-4.08-.61-5.97s-1.08-3.57-2.03-5.02-2.22-2.6-3.82-3.45c-1.6-.85-3.59-1.28-5.97-1.28-2.19,0-4.09.39-5.69,1.18s-2.91,1.88-3.92,3.27c-1.02,1.4-1.77,3.04-2.26,4.94s-.73,3.94-.73,6.14.2,4.12.61,6.03c.41,1.91,1.08,3.58,2.03,5.02s2.22,2.57,3.82,3.41c1.6.84,3.59,1.26,5.97,1.26,2.19,0,4.09-.39,5.69-1.18s2.91-1.87,3.92-3.25c1.02-1.38,1.77-3.02,2.26-4.92s.73-3.96.73-6.18Z"/>
        <path class="st0" d="M596.89,110.64c0,.27-.09.48-.26.63-.18.15-.41.26-.69.33s-.67.1-1.16.1c-.46,0-.85-.03-1.18-.1s-.58-.18-.75-.33c-.18-.15-.26-.36-.26-.63v-4.1c-1.65,1.79-3.47,3.17-5.47,4.14-1.99.98-4.06,1.46-6.2,1.46-1.92,0-3.65-.25-5.18-.75-1.53-.5-2.82-1.22-3.88-2.15s-1.87-2.07-2.44-3.39c-.57-1.33-.85-2.82-.85-4.47,0-2.03.42-3.8,1.26-5.3s2.03-2.76,3.58-3.76c1.54-1,3.4-1.75,5.57-2.26,2.17-.5,4.58-.75,7.23-.75h5.85v-3.17c0-1.57-.16-2.96-.49-4.17s-.85-2.21-1.58-3.03c-.73-.81-1.68-1.42-2.84-1.83s-2.59-.61-4.27-.61-3.09.2-4.39.59-2.44.83-3.41,1.32c-.98.49-1.78.93-2.42,1.32-.64.39-1.09.59-1.36.59-.16,0-.31-.03-.45-.08s-.25-.16-.35-.3c-.09-.15-.16-.34-.2-.57s-.06-.51-.06-.83c0-.57.04-1.02.12-1.36s.29-.68.63-1.02.94-.74,1.81-1.2,1.86-.89,2.99-1.28c1.12-.39,2.34-.71,3.64-.95s2.6-.37,3.9-.37c2.52,0,4.65.3,6.38.91s3.14,1.48,4.21,2.62,1.84,2.54,2.3,4.21c.46,1.67.69,3.56.69,5.67v24.87h-.02ZM592.05,93.29h-6.7c-1.95,0-3.66.18-5.12.53s-2.68.87-3.66,1.54c-.98.68-1.7,1.49-2.17,2.44-.47.95-.71,2.03-.71,3.25,0,2.11.67,3.8,2.01,5.06,1.34,1.26,3.23,1.89,5.67,1.89,1.92,0,3.72-.49,5.38-1.48,1.67-.99,3.43-2.51,5.3-4.57,0,0,0-8.66,0-8.66Z"/>
        <path class="st0" d="M639.96,110.64c0,.19-.03.35-.1.49-.07.14-.19.24-.37.33s-.4.14-.67.18c-.27.04-.61.06-1.02.06s-.79-.02-1.08-.06c-.28-.04-.51-.1-.69-.18s-.31-.19-.41-.33c-.09-.14-.14-.3-.14-.49v-5.28c-1.95,2.11-3.97,3.77-6.05,4.98s-4.36,1.81-6.83,1.81c-2.65,0-4.92-.51-6.79-1.54s-3.39-2.42-4.57-4.19c-1.18-1.76-2.04-3.83-2.58-6.2s-.81-4.88-.81-7.54c0-3.12.34-5.93,1.02-8.43.68-2.51,1.68-4.64,3.01-6.4s2.97-3.12,4.92-4.06c1.95-.95,4.21-1.42,6.79-1.42,2.22,0,4.25.49,6.1,1.48s3.66,2.44,5.45,4.37v-22.15c0-.16.03-.31.1-.45s.2-.24.39-.33c.19-.08.44-.15.75-.2s.7-.08,1.16-.08c.49,0,.89.03,1.2.08s.56.12.73.2c.18.08.3.19.39.33.08.14.12.28.12.45v54.57h-.02ZM635.13,84.1c-2.03-2.47-3.99-4.35-5.87-5.65s-3.85-1.95-5.91-1.95c-1.87,0-3.47.45-4.8,1.34s-2.41,2.07-3.25,3.54c-.84,1.46-1.45,3.12-1.83,4.96s-.57,3.71-.57,5.61c0,2.03.16,4.01.49,5.93s.88,3.64,1.67,5.14,1.83,2.71,3.13,3.62,2.93,1.36,4.88,1.36c.98,0,1.92-.14,2.84-.41.92-.27,1.87-.72,2.84-1.34.98-.62,1.98-1.43,3.03-2.42,1.04-.99,2.16-2.21,3.35-3.68v-16.05h0Z"/>
        <path class="st0" d="M704.9,91.86c0,2.93-.38,5.62-1.14,8.09s-1.89,4.61-3.39,6.42c-1.5,1.82-3.38,3.23-5.63,4.25s-4.86,1.52-7.84,1.52-5.38-.45-7.54-1.36-3.96-2.21-5.4-3.9c-1.45-1.69-2.53-3.75-3.25-6.16s-1.08-5.13-1.08-8.17.37-5.62,1.12-8.09c.74-2.47,1.87-4.6,3.37-6.4s3.38-3.2,5.63-4.21c2.25-1,4.88-1.5,7.88-1.5s5.38.45,7.54,1.34c2.15.89,3.95,2.19,5.38,3.88,1.44,1.69,2.52,3.75,3.25,6.16.73,2.41,1.1,5.12,1.1,8.13h0ZM699.78,92.31c0-2.09-.2-4.08-.61-5.97s-1.08-3.57-2.03-5.02-2.22-2.6-3.82-3.45c-1.6-.85-3.59-1.28-5.97-1.28-2.19,0-4.09.39-5.69,1.18s-2.91,1.88-3.92,3.27c-1.02,1.4-1.77,3.04-2.26,4.94s-.73,3.94-.73,6.14.2,4.12.61,6.03c.41,1.91,1.08,3.58,2.03,5.02s2.22,2.57,3.82,3.41,3.59,1.26,5.97,1.26c2.19,0,4.09-.39,5.69-1.18s2.91-1.87,3.92-3.25,1.77-3.02,2.26-4.92.73-3.96.73-6.18Z"/>
        <path class="st0" d="M745.57,110.64c0,.16-.04.31-.12.45s-.21.24-.39.33c-.18.08-.42.15-.73.2s-.7.08-1.16.08c-.49,0-.89-.03-1.2-.08s-.56-.12-.73-.2c-.18-.08-.3-.19-.39-.33-.08-.14-.12-.28-.12-.45v-21.82c0-2.28-.18-4.12-.53-5.55-.35-1.42-.88-2.64-1.58-3.66s-1.61-1.8-2.7-2.36c-1.1-.56-2.38-.83-3.84-.83-1.87,0-3.74.66-5.61,1.99-1.87,1.33-3.83,3.28-5.89,5.85v26.37c0,.16-.04.31-.12.45s-.21.24-.39.33c-.18.08-.42.15-.73.2s-.71.08-1.2.08c-.46,0-.85-.03-1.16-.08s-.56-.12-.75-.2c-.19-.08-.32-.19-.39-.33s-.1-.28-.1-.45v-36.78c0-.16.03-.31.1-.45s.2-.25.39-.35c.19-.09.43-.16.71-.2.28-.04.66-.06,1.12-.06s.84.02,1.14.06.53.11.69.2.28.21.35.35.1.28.1.45v5.2c2.11-2.36,4.19-4.06,6.22-5.12,2.03-1.06,4.05-1.58,6.05-1.58,2.41,0,4.44.41,6.1,1.22,1.65.81,2.99,1.91,4,3.29,1.02,1.38,1.75,2.99,2.19,4.84.45,1.84.67,4.06.67,6.66v22.27h0Z"/>
        <path class="st0" d="M795.52,108.44c0,.57-.05,1.03-.14,1.38s-.24.63-.45.83c-.2.2-.5.39-.89.57s-.85.33-1.36.45-1.06.22-1.63.28c-.57.07-1.12.1-1.67.1-1.82,0-3.36-.24-4.63-.73s-2.32-1.23-3.13-2.21c-.81-.99-1.4-2.24-1.77-3.76-.37-1.52-.55-3.31-.55-5.36v-22.88h-5.49c-.38,0-.68-.17-.89-.51-.22-.34-.33-.85-.33-1.52,0-.35.03-.66.08-.91.05-.26.14-.47.24-.65s.24-.3.39-.39c.15-.08.32-.12.51-.12h5.49v-9.02c0-.16.03-.31.1-.45s.2-.25.39-.35c.19-.09.44-.16.75-.2s.7-.06,1.16-.06c.49,0,.89.02,1.2.06s.56.11.73.2c.18.09.3.21.39.35.08.14.12.28.12.45v9.02h10.16c.19,0,.36.04.51.12s.28.21.39.39.19.39.24.65.08.56.08.91c0,.68-.12,1.19-.35,1.52-.23.34-.52.51-.87.51h-10.16v22.23c0,2.79.4,4.92,1.2,6.38s2.26,2.19,4.37,2.19c.65,0,1.24-.07,1.77-.2s1-.28,1.4-.45.75-.31,1.04-.45.54-.2.75-.2c.14,0,.26.03.37.08s.2.16.26.3c.07.15.12.34.16.57s.06.52.06.87h0Z"/>
        <path class="st0" d="M834.97,110.64c0,.16-.04.31-.12.45s-.21.24-.39.33c-.18.08-.42.15-.73.2-.31.05-.7.08-1.16.08-.49,0-.89-.03-1.2-.08s-.56-.12-.73-.2c-.18-.08-.3-.19-.39-.33-.08-.14-.12-.28-.12-.45v-21.82c0-2.28-.18-4.12-.53-5.55s-.88-2.64-1.58-3.66-1.61-1.8-2.7-2.36c-1.1-.56-2.38-.83-3.84-.83-1.87,0-3.74.66-5.61,1.99-1.87,1.33-3.83,3.28-5.89,5.85v26.37c0,.16-.04.31-.12.45s-.21.24-.39.33c-.18.08-.42.15-.73.2s-.71.08-1.2.08c-.46,0-.85-.03-1.16-.08s-.56-.12-.75-.2c-.19-.08-.32-.19-.39-.33s-.1-.28-.1-.45v-54.78c0-.16.03-.31.1-.45.07-.14.2-.25.39-.35.19-.09.44-.16.75-.2s.7-.06,1.16-.06c.49,0,.89.02,1.2.06s.56.11.73.2c.18.09.3.21.39.35s.12.28.12.45v22.96c2-2.22,4.01-3.85,6.01-4.9,2-1.04,4.01-1.56,6.01-1.56,2.41,0,4.44.41,6.1,1.22,1.65.81,2.99,1.91,4,3.29s1.75,2.99,2.19,4.84c.45,1.84.67,4.06.67,6.66v22.27h.01Z"/>
        <path class="st0" d="M878.37,90.36c0,.98-.26,1.65-.77,2.01-.51.37-1.02.55-1.5.55h-25.07c0,2.28.22,4.33.67,6.18.45,1.84,1.19,3.42,2.21,4.73,1.03,1.31,2.37,2.32,4.02,3.03s3.68,1.06,6.1,1.06c1.71,0,3.24-.15,4.59-.45,1.35-.3,2.53-.63,3.52-1s1.8-.7,2.44-1,1.09-.45,1.36-.45c.16,0,.31.04.45.12s.24.21.33.39c.08.18.14.4.18.67s.06.61.06,1.02c0,.19-.01.37-.04.55-.03.18-.06.34-.1.49s-.1.29-.18.43-.19.27-.33.41c-.14.14-.56.37-1.26.71s-1.63.68-2.76,1.02c-1.14.34-2.46.64-3.96.91-1.5.27-3.12.41-4.86.41-2.84,0-5.36-.43-7.56-1.28-2.19-.85-4.04-2.11-5.53-3.78s-2.62-3.73-3.39-6.2c-.77-2.47-1.16-5.32-1.16-8.57s.4-5.91,1.2-8.37c.8-2.47,1.94-4.56,3.43-6.28s3.28-3.03,5.38-3.94,4.44-1.36,7.01-1.36c2.76,0,5.12.46,7.07,1.38s3.56,2.16,4.82,3.72,2.18,3.37,2.76,5.42c.58,2.06.87,4.23.87,6.5v.98h0ZM873.37,88.94c.08-3.9-.81-6.95-2.68-9.14s-4.59-3.29-8.17-3.29c-1.84,0-3.46.35-4.86,1.04-1.4.69-2.57,1.61-3.54,2.74s-1.7,2.46-2.21,3.96-.81,3.07-.89,4.69h22.35Z"/>
      </g>
      <g>
        <path class="st0" d="M464.11,190.02c-.98-4.36-2.6-8.24-4.8-11.53-2.25-3.37-5.21-6.06-8.78-8-3.58-1.95-7.93-2.94-12.94-2.94-2.31,0-4.52.26-6.58.78-2.07.52-4.12,1.33-6.08,2.41-1.92,1.06-3.86,2.4-5.76,3.98-.76.63-1.53,1.31-2.33,2.03v-9.2h-11.94v97.16h12.65v-30.59c.57.5,1.13.97,1.68,1.42,1.69,1.36,3.41,2.52,5.11,3.43,1.75.94,3.56,1.64,5.39,2.08,1.82.44,3.79.67,5.85.67,4.78,0,9.1-.93,12.85-2.75,3.76-1.83,6.96-4.45,9.5-7.79,2.51-3.3,4.43-7.34,5.71-12.01,1.26-4.59,1.9-9.81,1.9-15.5,0-4.8-.48-9.4-1.45-13.65h.02ZM451.48,214.44c-.64,3.04-1.66,5.8-3.03,8.2-1.32,2.31-3.04,4.2-5.12,5.61-2.03,1.37-4.42,2.04-7.32,2.04-3.17,0-6.14-1.01-9.07-3.09-2.96-2.09-6.12-5.13-9.39-9.04v-26.71c1.82-2.24,3.57-4.15,5.21-5.69,1.76-1.65,3.46-3,5.07-4.02,1.54-.99,3.06-1.7,4.51-2.12s2.95-.63,4.47-.63c2.99,0,5.47.67,7.37,1.99,1.97,1.37,3.58,3.24,4.78,5.55,1.25,2.42,2.16,5.24,2.69,8.37.55,3.23.83,6.64.83,10.13,0,3.13-.33,6.3-.99,9.41h0Z"/>
        <path class="st0" d="M540.22,190.02c-.98-4.36-2.6-8.24-4.81-11.53-2.25-3.37-5.21-6.06-8.78-8-3.58-1.95-7.93-2.94-12.94-2.94-2.31,0-4.52.26-6.58.78-2.07.52-4.12,1.33-6.08,2.41-1.92,1.06-3.85,2.4-5.76,3.98-.76.63-1.54,1.31-2.33,2.03v-9.2h-11.94v97.16h12.65v-30.59c.57.5,1.13.98,1.67,1.42,1.69,1.36,3.41,2.52,5.11,3.43,1.74.94,3.56,1.64,5.39,2.08,1.82.44,3.79.67,5.86.67,4.78,0,9.1-.93,12.85-2.75,3.76-1.83,6.96-4.45,9.5-7.79,2.51-3.3,4.43-7.34,5.71-12.01,1.26-4.59,1.9-9.81,1.9-15.5,0-4.8-.49-9.4-1.45-13.65h.03ZM527.59,214.44c-.64,3.04-1.66,5.8-3.03,8.2-1.31,2.31-3.03,4.2-5.12,5.61-2.03,1.37-4.42,2.04-7.32,2.04-3.17,0-6.14-1.01-9.07-3.09-2.96-2.09-6.12-5.13-9.39-9.04v-26.71c1.81-2.24,3.57-4.15,5.21-5.69,1.76-1.65,3.46-3,5.07-4.02,1.54-.99,3.06-1.7,4.51-2.12s2.95-.63,4.47-.63c2.99,0,5.47.67,7.37,1.99,1.98,1.37,3.58,3.24,4.78,5.55,1.26,2.42,2.16,5.24,2.7,8.37.55,3.23.83,6.64.83,10.13,0,3.13-.33,6.3-.99,9.41h-.02Z"/>
        <path class="st0" d="M756.58,177.48c-2.73-3.22-6.18-5.71-10.26-7.4-4.03-1.67-8.76-2.52-14.06-2.52s-10.51.95-14.72,2.83c-4.23,1.89-7.82,4.57-10.65,7.97-2.81,3.37-4.94,7.41-6.33,11.99-1.36,4.51-2.06,9.5-2.06,14.83s.67,10.55,1.98,14.97c1.34,4.5,3.4,8.4,6.13,11.59,2.75,3.21,6.21,5.71,10.28,7.43,4.03,1.7,8.76,2.56,14.07,2.56s10.45-.96,14.66-2.87c4.23-1.91,7.81-4.62,10.65-8.04,2.81-3.39,4.95-7.43,6.36-12.01,1.39-4.52,2.09-9.51,2.09-14.84s-.68-10.49-2.02-14.91c-1.36-4.5-3.42-8.39-6.13-11.58h.01ZM751.57,204.75c0,3.72-.41,7.2-1.22,10.36-.79,3.07-2.01,5.74-3.63,7.95-1.58,2.15-3.65,3.86-6.15,5.09-2.51,1.24-5.58,1.86-9.1,1.86-3.84,0-7.05-.67-9.55-1.98-2.49-1.31-4.49-3.1-5.96-5.32-1.52-2.3-2.62-5.03-3.28-8.13-.68-3.2-1.03-6.63-1.03-10.19s.41-7.13,1.22-10.29c.79-3.07,2.01-5.76,3.64-7.99,1.58-2.17,3.65-3.89,6.14-5.12,2.51-1.24,5.58-1.86,9.1-1.86,3.83,0,7.04.68,9.54,2.01,2.49,1.33,4.5,3.14,5.97,5.39,1.52,2.33,2.63,5.06,3.29,8.14.68,3.18,1.03,6.57,1.03,10.08h0Z"/>
      </g>
    </g>
    <path class="st0" d="M361.27,146.73h-15.04l-31.35,94.85h12.83l6.98-27.19h37.71l7.23,27.19h12.99l-31.35-94.85h0ZM338.71,202.96l14.6-41.63,14.95,41.63h-29.55Z"/>
    <path class="st0" d="M640.77,203.12c-1.34-2.86-3.15-5.4-5.37-7.55-2.17-2.09-4.66-3.93-7.4-5.47-2.63-1.47-5.35-2.87-8.07-4.15-2.67-1.25-5.33-2.52-7.91-3.78-2.46-1.2-4.69-2.55-6.62-4.04-1.84-1.41-3.32-3.05-4.43-4.87-1.04-1.71-1.56-3.83-1.56-6.3,0-1.69.3-3.31.89-4.83.58-1.49,1.44-2.76,2.61-3.87s2.69-2.01,4.51-2.67c1.86-.68,4.1-1.02,6.66-1.02s5.01.32,7.04.95c2.11.65,3.94,1.38,5.44,2.18,1.56.83,2.87,1.58,3.89,2.24l5.23-10.93c-.62-.62-1.66-1.3-3.29-2.16-1.5-.79-3.22-1.51-5.1-2.13-1.87-.62-3.87-1.14-5.95-1.54-2.12-.4-4.25-.61-6.32-.61-4.11,0-7.94.56-11.4,1.67-3.51,1.13-6.58,2.79-9.11,4.93-2.56,2.17-4.57,4.84-5.98,7.95-1.4,3.09-2.12,6.62-2.12,10.48s.69,7.45,2.05,10.39c1.34,2.89,3.13,5.44,5.33,7.58,2.14,2.09,4.6,3.94,7.32,5.5,2.61,1.5,5.32,2.91,8.06,4.19,2.67,1.25,5.32,2.52,7.87,3.78,2.44,1.2,4.65,2.55,6.56,4.01,1.81,1.39,3.29,3.01,4.39,4.83,1.04,1.71,1.56,3.83,1.56,6.3s-.43,4.66-1.28,6.55c-.84,1.87-2.04,3.47-3.56,4.74-1.55,1.3-3.44,2.31-5.6,3.02-2.21.72-4.7,1.08-7.38,1.08-3.35,0-6.31-.39-8.8-1.16-2.57-.8-4.8-1.67-6.62-2.59-1.84-.93-3.35-1.8-4.49-2.58l-2.61,13.1c1.49.83,3.33,1.66,5.48,2.46,2.14.8,4.6,1.49,7.31,2.05,2.75.57,5.71.87,8.79.87,4.54,0,8.8-.64,12.66-1.89,3.91-1.27,7.35-3.15,10.21-5.58,2.89-2.45,5.17-5.47,6.77-8.98,1.6-3.5,2.4-7.49,2.4-11.88,0-3.91-.69-7.37-2.06-10.29v.02Z"/>
    <path class="st0" d="M684.41,229.15c-.63.25-1.38.49-2.21.7-.76.19-1.63.29-2.6.29-3.9,0-5.22-1.59-5.87-2.79-1.23-2.26-1.86-5.7-1.86-10.24v-37.06h15.39v-11.36h-15.39v-13.81l-12.65,5.58v8.24h-6.87v11.36h6.87v38.21c0,3.77.34,7.11,1.02,9.93.71,2.96,1.9,5.47,3.53,7.45,1.66,2.01,3.8,3.53,6.37,4.52,2.47.95,5.46,1.42,8.9,1.42,1.03,0,2.1-.07,3.18-.19,1.07-.13,2.11-.31,3.09-.54,1.03-.24,1.96-.55,2.77-.91l-1.95-11.52c-.46.22-1.03.46-1.7.73h-.02Z"/>
    <path class="st0" d="M808.39,167.56h-.53c-1.59,0-3.16.19-4.68.56-1.58.39-3.2,1.12-4.82,2.17-1.56,1.02-3.21,2.43-4.88,4.21-.51.54-1.03,1.14-1.58,1.79v-8.73h-12.22v74.03h12.65v-47.76c1.65-2.63,3.18-4.89,4.56-6.72,1.42-1.89,2.77-3.41,4.02-4.53,1.19-1.06,2.32-1.84,3.36-2.3.98-.44,1.95-.65,2.95-.65.29,0,.6,0,.96.04l2.22.16v-12.22l-2.02-.05h.01Z"/>
    <path class="st0" d="M871.73,225.65c-.29.12-.59.25-.92.4-1.06.5-2.45,1.06-4.13,1.69-1.64.61-3.63,1.17-5.91,1.67-2.23.49-4.8.74-7.64.74-3.94,0-7.28-.57-9.92-1.69-2.57-1.1-4.68-2.68-6.26-4.7-1.62-2.07-2.8-4.61-3.52-7.55-.61-2.51-.97-5.3-1.08-8.32h42.03c1.29,0,2.59-.45,3.85-1.35,1.48-1.05,2.23-2.81,2.23-5.23v-1.72c0-4.18-.54-8.22-1.62-12.01-1.1-3.88-2.86-7.34-5.25-10.29-2.4-2.97-5.5-5.37-9.2-7.12s-8.18-2.63-13.33-2.63c-4.79,0-9.22.86-13.16,2.57-3.97,1.71-7.41,4.23-10.22,7.48-2.79,3.23-4.96,7.18-6.45,11.77-1.47,4.53-2.21,9.7-2.21,15.38s.72,11.19,2.13,15.71c1.44,4.6,3.6,8.53,6.41,11.67,2.83,3.17,6.37,5.59,10.52,7.2,4.09,1.59,8.81,2.39,14.06,2.39,3.16,0,6.16-.25,8.92-.75,2.71-.49,5.13-1.05,7.2-1.66,1.33-.39,2.48-.79,3.49-1.18v-12.49l-.02.02ZM833.76,191.22c.82-2.39,2-4.51,3.52-6.31,1.5-1.78,3.37-3.23,5.56-4.31,2.16-1.07,4.72-1.61,7.63-1.61,5.71,0,9.9,1.66,12.8,5.07,2.62,3.07,4.03,7.33,4.22,12.68h-35.01c.24-1.9.67-3.75,1.27-5.52h.01Z"/>
  </g>
</svg>