<?xml version="1.0" encoding="utf-8"?>
<!-- Generator: Adobe Illustrator 27.0.0, SVG Export Plug-In . SVG Version: 6.00 Build 0)  -->
<svg version="1.1" xmlns="http://www.w3.org/2000/svg" xmlns:xlink="http://www.w3.org/1999/xlink" x="0px" y="0px"
	 viewBox="0 0 1053.1 319.5" style="enable-background:new 0 0 1053.1 319.5;" xml:space="preserve">
<style type="text/css">
	.st0{display:none;}
	.st1{display:inline;fill:none;stroke:#56AEBF;stroke-width:8;stroke-miterlimit:10;}
	.st2{display:inline;}
	.st3{fill:#56AEBF;}
	.st4{opacity:0.1;fill:#C6C6C6;}
	.st5{fill:#FFFFFF;}
</style>
<g id="Layer_1" class="st0">
	<path class="st1" d="M64.5,2h924c34.5,0,62.5,28,62.5,62.5V255c0,34.5-28,62.5-62.5,62.5h-924C30,317.5,2,289.5,2,255V64.5
		C2,30,30,2,64.5,2z"/>
	<g class="st2">
		<g>
			<path class="st3" d="M243.9,172.6c-5.1-25.7,17.3-39.3,18.9-40.3c-3.4-4.6-7.4-8-11.4-10.5c-13.3-8.3-29.6-9.1-39.2-4.8
				c-0.1,0-0.2,0.1-0.3,0.1c-9.4,4.1-20.1,4.1-29.6,0c-0.1,0-0.2-0.1-0.3-0.1c-9.7-4.2-25.9-3.5-39.2,4.8
				c-13.3,8.3-26.3,27.1-19.7,63c6.6,35.9,30.5,57.8,30.5,57.8s11.4,9.9,26.5,3.3c9.4-4.1,13.7-4.8,15.6-4.8c0.9,0,1.9,0,2.8,0
				c1.9-0.1,6.2,0.7,15.6,4.8c15.1,6.6,26.5-3.3,26.5-3.3s16.8-15.3,26.1-41.4C258.6,197.5,247.2,189.4,243.9,172.6L243.9,172.6
				L243.9,172.6z"/>
			<path class="st3" d="M192.8,115.6c0,0-4.2-35.8,36.1-42.2l-0.2,4.8C228.1,98,212.6,114.1,192.8,115.6L192.8,115.6z"/>
		</g>
		<g>
			<g>
				<path class="st3" d="M354,84.4c0,4.4-0.6,8.3-1.7,11.7c-1.1,3.4-2.8,6.2-4.9,8.5c-2.2,2.3-4.8,4-8,5.2c-3.2,1.2-7,1.8-11.4,1.8
					h-10.4c-0.5,0-1-0.2-1.5-0.6s-0.8-1-0.8-2V61.4c0-1,0.3-1.7,0.8-2c0.5-0.4,1-0.5,1.5-0.5h11c4.5,0,8.2,0.6,11.3,1.8
					c3.1,1.2,5.6,3,7.7,5.2c2.1,2.2,3.6,4.9,4.7,8.1C353.5,77.1,354,80.6,354,84.4L354,84.4L354,84.4z M348.7,84.6
					c0-3.1-0.4-5.9-1.2-8.5s-2-4.9-3.6-6.8c-1.6-1.9-3.6-3.4-6.1-4.4s-5.6-1.6-9.4-1.6h-8.1V107h8.1c3.6,0,6.6-0.4,9.1-1.3
					c2.5-0.9,4.5-2.2,6.2-4.1c1.6-1.8,2.9-4.2,3.7-7S348.7,88.5,348.7,84.6L348.7,84.6L348.7,84.6z"/>
				<path class="st3" d="M397.5,91.9c0,2.9-0.4,5.6-1.1,8.1c-0.8,2.5-1.9,4.6-3.4,6.4c-1.5,1.8-3.4,3.2-5.6,4.2s-4.9,1.5-7.8,1.5
					s-5.4-0.4-7.5-1.4c-2.1-0.9-4-2.2-5.4-3.9c-1.5-1.7-2.5-3.8-3.2-6.2s-1.1-5.1-1.1-8.2s0.4-5.6,1.1-8.1c0.8-2.5,1.9-4.6,3.4-6.4
					s3.4-3.2,5.6-4.2c2.2-1,4.9-1.5,7.9-1.5s5.4,0.4,7.5,1.3s4,2.2,5.4,3.9c1.4,1.7,2.5,3.8,3.2,6.2
					C397.2,86.1,397.5,88.8,397.5,91.9L397.5,91.9L397.5,91.9z M392.4,92.3c0-2.1-0.2-4.1-0.6-6c-0.4-1.9-1.1-3.6-2-5
					s-2.2-2.6-3.8-3.4s-3.6-1.3-6-1.3c-2.2,0-4.1,0.4-5.7,1.2s-2.9,1.9-3.9,3.3c-1,1.4-1.8,3-2.3,4.9s-0.7,3.9-0.7,6.1
					s0.2,4.1,0.6,6c0.4,1.9,1.1,3.6,2,5s2.2,2.6,3.8,3.4c1.6,0.8,3.6,1.3,6,1.3c2.2,0,4.1-0.4,5.7-1.2s2.9-1.9,3.9-3.2
					s1.8-3,2.3-4.9S392.4,94.5,392.4,92.3z"/>
				<path class="st3" d="M456.8,73.8c0,0.1,0,0.3-0.1,0.5s-0.1,0.4-0.1,0.6l-11.4,35.8c0,0.2-0.2,0.4-0.3,0.5
					c-0.1,0.1-0.4,0.2-0.6,0.3c-0.2,0.1-0.6,0.1-1,0.2c-0.4,0-0.9,0-1.4,0c-0.6,0-1.1,0-1.5-0.1c-0.4,0-0.7-0.1-1-0.2
					s-0.5-0.2-0.6-0.3s-0.2-0.3-0.3-0.5l-8.5-29l-0.1-0.3l-0.1,0.3l-8,29c0,0.2-0.2,0.4-0.3,0.5c-0.2,0.1-0.4,0.2-0.7,0.3
					c-0.3,0.1-0.6,0.1-1,0.2c-0.4,0-0.9,0-1.4,0c-0.5,0-1,0-1.4-0.1s-0.7-0.1-1-0.2c-0.3-0.1-0.5-0.2-0.6-0.3s-0.2-0.3-0.3-0.5
					L404,74.8c-0.1-0.2-0.1-0.4-0.2-0.6s-0.1-0.3-0.1-0.5c0-0.2,0-0.3,0.1-0.5s0.2-0.2,0.4-0.3s0.4-0.1,0.7-0.1c0.3,0,0.7,0,1.1,0
					c0.6,0,1,0,1.4,0.1s0.6,0.1,0.8,0.2c0.2,0.1,0.3,0.2,0.4,0.3c0.1,0.1,0.1,0.3,0.2,0.5l9.7,32.1l0.1,0.3l0.1-0.3l8.8-32.1
					c0-0.2,0.1-0.3,0.2-0.5s0.2-0.2,0.4-0.3c0.2-0.1,0.4-0.1,0.7-0.2s0.7-0.1,1.2-0.1c0.5,0,0.8,0,1.1,0.1c0.3,0,0.5,0.1,0.7,0.2
					s0.3,0.2,0.4,0.3c0.1,0.1,0.1,0.3,0.2,0.5l9.5,32.1l0.1,0.3l0-0.3l9.7-32.1c0-0.2,0.1-0.3,0.2-0.5s0.2-0.2,0.4-0.3
					c0.2-0.1,0.5-0.1,0.8-0.2s0.8-0.1,1.3-0.1c0.4,0,0.8,0,1.1,0s0.5,0.1,0.6,0.2s0.3,0.2,0.3,0.3S456.8,73.6,456.8,73.8L456.8,73.8
					L456.8,73.8z"/>
				<path class="st3" d="M496,110.6c0,0.2,0,0.3-0.1,0.4s-0.2,0.2-0.4,0.3c-0.2,0.1-0.4,0.2-0.7,0.2s-0.7,0.1-1.2,0.1
					c-0.5,0-0.9,0-1.2-0.1s-0.6-0.1-0.7-0.2c-0.2-0.1-0.3-0.2-0.4-0.3c-0.1-0.1-0.1-0.3-0.1-0.4V88.8c0-2.3-0.2-4.1-0.5-5.6
					s-0.9-2.6-1.6-3.7s-1.6-1.8-2.7-2.4c-1.1-0.6-2.4-0.8-3.8-0.8c-1.9,0-3.7,0.7-5.6,2c-1.9,1.3-3.8,3.3-5.9,5.8v26.4
					c0,0.2,0,0.3-0.1,0.4s-0.2,0.2-0.4,0.3c-0.2,0.1-0.4,0.2-0.7,0.2c-0.3,0.1-0.7,0.1-1.2,0.1c-0.5,0-0.9,0-1.2-0.1
					s-0.6-0.1-0.8-0.2c-0.2-0.1-0.3-0.2-0.4-0.3s-0.1-0.3-0.1-0.4V73.8c0-0.2,0-0.3,0.1-0.4s0.2-0.2,0.4-0.3
					c0.2-0.1,0.4-0.2,0.7-0.2c0.3,0,0.7-0.1,1.1-0.1s0.8,0,1.1,0.1c0.3,0,0.5,0.1,0.7,0.2s0.3,0.2,0.4,0.3s0.1,0.3,0.1,0.4V79
					c2.1-2.4,4.2-4.1,6.2-5.1c2-1.1,4-1.6,6-1.6c2.4,0,4.4,0.4,6.1,1.2c1.6,0.8,3,1.9,4,3.3c1,1.4,1.8,3,2.2,4.8
					c0.5,1.8,0.7,4.1,0.7,6.7L496,110.6L496,110.6L496,110.6z"/>
				<path class="st3" d="M514.2,110.6c0,0.2,0,0.3-0.1,0.4s-0.2,0.2-0.4,0.3c-0.2,0.1-0.4,0.2-0.7,0.2c-0.3,0.1-0.7,0.1-1.2,0.1
					c-0.5,0-0.9,0-1.2-0.1s-0.6-0.1-0.8-0.2c-0.2-0.1-0.3-0.2-0.4-0.3s-0.1-0.3-0.1-0.4V55.9c0-0.2,0-0.3,0.1-0.5s0.2-0.2,0.4-0.3
					c0.2-0.1,0.4-0.2,0.8-0.2s0.7-0.1,1.2-0.1c0.5,0,0.9,0,1.2,0.1s0.6,0.1,0.7,0.2c0.2,0.1,0.3,0.2,0.4,0.3s0.1,0.3,0.1,0.5V110.6z
					"/>
				<path class="st3" d="M560.3,91.9c0,2.9-0.4,5.6-1.1,8.1c-0.8,2.5-1.9,4.6-3.4,6.4c-1.5,1.8-3.4,3.2-5.6,4.2s-4.9,1.5-7.8,1.5
					s-5.4-0.4-7.5-1.4c-2.2-0.9-4-2.2-5.4-3.9c-1.5-1.7-2.5-3.8-3.2-6.2s-1.1-5.1-1.1-8.2s0.4-5.6,1.1-8.1c0.8-2.5,1.9-4.6,3.4-6.4
					s3.4-3.2,5.6-4.2c2.2-1,4.9-1.5,7.9-1.5s5.4,0.4,7.5,1.3s4,2.2,5.4,3.9c1.4,1.7,2.5,3.8,3.2,6.2
					C559.9,86.1,560.3,88.8,560.3,91.9L560.3,91.9L560.3,91.9z M555.2,92.3c0-2.1-0.2-4.1-0.6-6s-1.1-3.6-2-5s-2.2-2.6-3.8-3.4
					c-1.6-0.8-3.6-1.3-6-1.3c-2.2,0-4.1,0.4-5.7,1.2s-2.9,1.9-3.9,3.3c-1,1.4-1.8,3-2.3,4.9s-0.7,3.9-0.7,6.1s0.2,4.1,0.6,6
					c0.4,1.9,1.1,3.6,2,5s2.2,2.6,3.8,3.4c1.6,0.8,3.6,1.3,6,1.3c2.2,0,4.1-0.4,5.7-1.2s2.9-1.9,3.9-3.2c1-1.4,1.8-3,2.3-4.9
					S555.2,94.5,555.2,92.3z"/>
				<path class="st3" d="M596.9,110.6c0,0.3-0.1,0.5-0.3,0.6c-0.2,0.2-0.4,0.3-0.7,0.3s-0.7,0.1-1.2,0.1c-0.5,0-0.8,0-1.2-0.1
					s-0.6-0.2-0.8-0.3c-0.2-0.2-0.3-0.4-0.3-0.6v-4.1c-1.7,1.8-3.5,3.2-5.5,4.1c-2,1-4.1,1.5-6.2,1.5c-1.9,0-3.7-0.2-5.2-0.8
					c-1.5-0.5-2.8-1.2-3.9-2.2s-1.9-2.1-2.4-3.4c-0.6-1.3-0.8-2.8-0.8-4.5c0-2,0.4-3.8,1.3-5.3s2-2.8,3.6-3.8c1.5-1,3.4-1.8,5.6-2.3
					c2.2-0.5,4.6-0.8,7.2-0.8h5.8v-3.2c0-1.6-0.2-3-0.5-4.2s-0.8-2.2-1.6-3c-0.7-0.8-1.7-1.4-2.8-1.8s-2.6-0.6-4.3-0.6
					s-3.1,0.2-4.4,0.6s-2.4,0.8-3.4,1.3c-1,0.5-1.8,0.9-2.4,1.3c-0.6,0.4-1.1,0.6-1.4,0.6c-0.2,0-0.3,0-0.5-0.1s-0.2-0.2-0.3-0.3
					c-0.1-0.2-0.2-0.3-0.2-0.6s-0.1-0.5-0.1-0.8c0-0.6,0-1,0.1-1.4s0.3-0.7,0.6-1s0.9-0.7,1.8-1.2s1.9-0.9,3-1.3
					c1.1-0.4,2.3-0.7,3.6-0.9s2.6-0.4,3.9-0.4c2.5,0,4.7,0.3,6.4,0.9s3.1,1.5,4.2,2.6s1.8,2.5,2.3,4.2c0.5,1.7,0.7,3.6,0.7,5.7
					L596.9,110.6L596.9,110.6L596.9,110.6z M592,93.3h-6.7c-2,0-3.7,0.2-5.1,0.5s-2.7,0.9-3.7,1.5c-1,0.7-1.7,1.5-2.2,2.4
					c-0.5,0.9-0.7,2-0.7,3.2c0,2.1,0.7,3.8,2,5.1c1.3,1.3,3.2,1.9,5.7,1.9c1.9,0,3.7-0.5,5.4-1.5c1.7-1,3.4-2.5,5.3-4.6
					C592,101.9,592,93.3,592,93.3z"/>
				<path class="st3" d="M640,110.6c0,0.2,0,0.3-0.1,0.5c-0.1,0.1-0.2,0.2-0.4,0.3s-0.4,0.1-0.7,0.2c-0.3,0-0.6,0.1-1,0.1
					s-0.8,0-1.1-0.1c-0.3,0-0.5-0.1-0.7-0.2s-0.3-0.2-0.4-0.3c-0.1-0.1-0.1-0.3-0.1-0.5v-5.3c-2,2.1-4,3.8-6,5s-4.4,1.8-6.8,1.8
					c-2.7,0-4.9-0.5-6.8-1.5s-3.4-2.4-4.6-4.2c-1.2-1.8-2-3.8-2.6-6.2s-0.8-4.9-0.8-7.5c0-3.1,0.3-5.9,1-8.4c0.7-2.5,1.7-4.6,3-6.4
					s3-3.1,4.9-4.1c2-0.9,4.2-1.4,6.8-1.4c2.2,0,4.2,0.5,6.1,1.5s3.7,2.4,5.5,4.4V56.1c0-0.2,0-0.3,0.1-0.5s0.2-0.2,0.4-0.3
					c0.2-0.1,0.4-0.2,0.8-0.2s0.7-0.1,1.2-0.1c0.5,0,0.9,0,1.2,0.1s0.6,0.1,0.7,0.2c0.2,0.1,0.3,0.2,0.4,0.3
					c0.1,0.1,0.1,0.3,0.1,0.5L640,110.6L640,110.6L640,110.6z M635.1,84.1c-2-2.5-4-4.3-5.9-5.7s-3.8-1.9-5.9-1.9
					c-1.9,0-3.5,0.4-4.8,1.3s-2.4,2.1-3.2,3.5c-0.8,1.5-1.5,3.1-1.8,5s-0.6,3.7-0.6,5.6c0,2,0.2,4,0.5,5.9s0.9,3.6,1.7,5.1
					s1.8,2.7,3.1,3.6s2.9,1.4,4.9,1.4c1,0,1.9-0.1,2.8-0.4c0.9-0.3,1.9-0.7,2.8-1.3c1-0.6,2-1.4,3-2.4c1-1,2.2-2.2,3.3-3.7
					L635.1,84.1L635.1,84.1L635.1,84.1z"/>
				<path class="st3" d="M704.9,91.9c0,2.9-0.4,5.6-1.1,8.1s-1.9,4.6-3.4,6.4c-1.5,1.8-3.4,3.2-5.6,4.2s-4.9,1.5-7.8,1.5
					s-5.4-0.4-7.5-1.4s-4-2.2-5.4-3.9c-1.5-1.7-2.5-3.8-3.2-6.2s-1.1-5.1-1.1-8.2s0.4-5.6,1.1-8.1c0.7-2.5,1.9-4.6,3.4-6.4
					s3.4-3.2,5.6-4.2c2.2-1,4.9-1.5,7.9-1.5s5.4,0.4,7.5,1.3c2.2,0.9,4,2.2,5.4,3.9c1.4,1.7,2.5,3.8,3.2,6.2
					C704.5,86.1,704.9,88.8,704.9,91.9L704.9,91.9L704.9,91.9z M699.8,92.3c0-2.1-0.2-4.1-0.6-6s-1.1-3.6-2-5s-2.2-2.6-3.8-3.4
					c-1.6-0.8-3.6-1.3-6-1.3c-2.2,0-4.1,0.4-5.7,1.2s-2.9,1.9-3.9,3.3c-1,1.4-1.8,3-2.3,4.9s-0.7,3.9-0.7,6.1s0.2,4.1,0.6,6
					c0.4,1.9,1.1,3.6,2,5s2.2,2.6,3.8,3.4s3.6,1.3,6,1.3c2.2,0,4.1-0.4,5.7-1.2s2.9-1.9,3.9-3.2s1.8-3,2.3-4.9
					S699.8,94.5,699.8,92.3z"/>
				<path class="st3" d="M745.6,110.6c0,0.2,0,0.3-0.1,0.4s-0.2,0.2-0.4,0.3c-0.2,0.1-0.4,0.2-0.7,0.2s-0.7,0.1-1.2,0.1
					c-0.5,0-0.9,0-1.2-0.1s-0.6-0.1-0.7-0.2c-0.2-0.1-0.3-0.2-0.4-0.3c-0.1-0.1-0.1-0.3-0.1-0.4V88.8c0-2.3-0.2-4.1-0.5-5.6
					c-0.3-1.4-0.9-2.6-1.6-3.7s-1.6-1.8-2.7-2.4c-1.1-0.6-2.4-0.8-3.8-0.8c-1.9,0-3.7,0.7-5.6,2c-1.9,1.3-3.8,3.3-5.9,5.8v26.4
					c0,0.2,0,0.3-0.1,0.4s-0.2,0.2-0.4,0.3c-0.2,0.1-0.4,0.2-0.7,0.2s-0.7,0.1-1.2,0.1c-0.5,0-0.8,0-1.2-0.1s-0.6-0.1-0.8-0.2
					c-0.2-0.1-0.3-0.2-0.4-0.3s-0.1-0.3-0.1-0.4V73.8c0-0.2,0-0.3,0.1-0.4s0.2-0.2,0.4-0.3c0.2-0.1,0.4-0.2,0.7-0.2
					c0.3,0,0.7-0.1,1.1-0.1s0.8,0,1.1,0.1s0.5,0.1,0.7,0.2s0.3,0.2,0.3,0.3s0.1,0.3,0.1,0.4V79c2.1-2.4,4.2-4.1,6.2-5.1
					c2-1.1,4-1.6,6-1.6c2.4,0,4.4,0.4,6.1,1.2c1.7,0.8,3,1.9,4,3.3c1,1.4,1.8,3,2.2,4.8c0.5,1.8,0.7,4.1,0.7,6.7L745.6,110.6
					L745.6,110.6L745.6,110.6z"/>
				<path class="st3" d="M795.5,108.4c0,0.6,0,1-0.1,1.4s-0.2,0.6-0.5,0.8c-0.2,0.2-0.5,0.4-0.9,0.6s-0.8,0.3-1.4,0.4
					s-1.1,0.2-1.6,0.3c-0.6,0.1-1.1,0.1-1.7,0.1c-1.8,0-3.4-0.2-4.6-0.7s-2.3-1.2-3.1-2.2c-0.8-1-1.4-2.2-1.8-3.8
					c-0.4-1.5-0.5-3.3-0.5-5.4V77.1h-5.5c-0.4,0-0.7-0.2-0.9-0.5c-0.2-0.3-0.3-0.8-0.3-1.5c0-0.3,0-0.7,0.1-0.9
					c0-0.3,0.1-0.5,0.2-0.7s0.2-0.3,0.4-0.4c0.2-0.1,0.3-0.1,0.5-0.1h5.5v-9c0-0.2,0-0.3,0.1-0.5s0.2-0.2,0.4-0.3
					c0.2-0.1,0.4-0.2,0.8-0.2s0.7-0.1,1.2-0.1c0.5,0,0.9,0,1.2,0.1s0.6,0.1,0.7,0.2c0.2,0.1,0.3,0.2,0.4,0.3
					c0.1,0.1,0.1,0.3,0.1,0.5v9h10.2c0.2,0,0.4,0,0.5,0.1s0.3,0.2,0.4,0.4s0.2,0.4,0.2,0.7s0.1,0.6,0.1,0.9c0,0.7-0.1,1.2-0.3,1.5
					c-0.2,0.3-0.5,0.5-0.9,0.5h-10.2v22.2c0,2.8,0.4,4.9,1.2,6.4s2.3,2.2,4.4,2.2c0.7,0,1.2-0.1,1.8-0.2s1-0.3,1.4-0.4
					s0.8-0.3,1-0.4s0.5-0.2,0.8-0.2c0.1,0,0.3,0,0.4,0.1s0.2,0.2,0.3,0.3c0.1,0.2,0.1,0.3,0.2,0.6S795.5,108.1,795.5,108.4
					L795.5,108.4L795.5,108.4z"/>
				<path class="st3" d="M835,110.6c0,0.2,0,0.3-0.1,0.4s-0.2,0.2-0.4,0.3c-0.2,0.1-0.4,0.2-0.7,0.2c-0.3,0.1-0.7,0.1-1.2,0.1
					c-0.5,0-0.9,0-1.2-0.1s-0.6-0.1-0.7-0.2c-0.2-0.1-0.3-0.2-0.4-0.3c-0.1-0.1-0.1-0.3-0.1-0.4V88.8c0-2.3-0.2-4.1-0.5-5.6
					s-0.9-2.6-1.6-3.7s-1.6-1.8-2.7-2.4c-1.1-0.6-2.4-0.8-3.8-0.8c-1.9,0-3.7,0.7-5.6,2c-1.9,1.3-3.8,3.3-5.9,5.8v26.4
					c0,0.2,0,0.3-0.1,0.4s-0.2,0.2-0.4,0.3c-0.2,0.1-0.4,0.2-0.7,0.2s-0.7,0.1-1.2,0.1c-0.5,0-0.8,0-1.2-0.1s-0.6-0.1-0.8-0.2
					c-0.2-0.1-0.3-0.2-0.4-0.3s-0.1-0.3-0.1-0.4V55.8c0-0.2,0-0.3,0.1-0.5c0.1-0.1,0.2-0.2,0.4-0.3c0.2-0.1,0.4-0.2,0.8-0.2
					s0.7-0.1,1.2-0.1c0.5,0,0.9,0,1.2,0.1s0.6,0.1,0.7,0.2c0.2,0.1,0.3,0.2,0.4,0.3s0.1,0.3,0.1,0.5v23c2-2.2,4-3.8,6-4.9
					c2-1,4-1.6,6-1.6c2.4,0,4.4,0.4,6.1,1.2c1.7,0.8,3,1.9,4,3.3s1.8,3,2.2,4.8c0.5,1.8,0.7,4.1,0.7,6.7L835,110.6L835,110.6
					L835,110.6z"/>
				<path class="st3" d="M878.4,90.4c0,1-0.3,1.7-0.8,2c-0.5,0.4-1,0.6-1.5,0.6H851c0,2.3,0.2,4.3,0.7,6.2c0.5,1.8,1.2,3.4,2.2,4.7
					c1,1.3,2.4,2.3,4,3s3.7,1.1,6.1,1.1c1.7,0,3.2-0.2,4.6-0.4c1.3-0.3,2.5-0.6,3.5-1s1.8-0.7,2.4-1s1.1-0.4,1.4-0.4
					c0.2,0,0.3,0,0.5,0.1s0.2,0.2,0.3,0.4c0.1,0.2,0.1,0.4,0.2,0.7s0.1,0.6,0.1,1c0,0.2,0,0.4,0,0.6c0,0.2-0.1,0.3-0.1,0.5
					s-0.1,0.3-0.2,0.4s-0.2,0.3-0.3,0.4c-0.1,0.1-0.6,0.4-1.3,0.7s-1.6,0.7-2.8,1c-1.1,0.3-2.5,0.6-4,0.9c-1.5,0.3-3.1,0.4-4.9,0.4
					c-2.8,0-5.4-0.4-7.6-1.3c-2.2-0.8-4-2.1-5.5-3.8s-2.6-3.7-3.4-6.2c-0.8-2.5-1.2-5.3-1.2-8.6s0.4-5.9,1.2-8.4
					c0.8-2.5,1.9-4.6,3.4-6.3s3.3-3,5.4-3.9s4.4-1.4,7-1.4c2.8,0,5.1,0.5,7.1,1.4s3.6,2.2,4.8,3.7s2.2,3.4,2.8,5.4
					c0.6,2.1,0.9,4.2,0.9,6.5L878.4,90.4L878.4,90.4L878.4,90.4z M873.4,88.9c0.1-3.9-0.8-6.9-2.7-9.1s-4.6-3.3-8.2-3.3
					c-1.8,0-3.5,0.3-4.9,1c-1.4,0.7-2.6,1.6-3.5,2.7s-1.7,2.5-2.2,4s-0.8,3.1-0.9,4.7H873.4z"/>
			</g>
			<g>
				<path class="st3" d="M464.1,190c-1-4.4-2.6-8.2-4.8-11.5c-2.2-3.4-5.2-6.1-8.8-8c-3.6-1.9-7.9-2.9-12.9-2.9
					c-2.3,0-4.5,0.3-6.6,0.8c-2.1,0.5-4.1,1.3-6.1,2.4c-1.9,1.1-3.9,2.4-5.8,4c-0.8,0.6-1.5,1.3-2.3,2v-9.2h-11.9v97.2h12.6v-30.6
					c0.6,0.5,1.1,1,1.7,1.4c1.7,1.4,3.4,2.5,5.1,3.4c1.8,0.9,3.6,1.6,5.4,2.1c1.8,0.4,3.8,0.7,5.9,0.7c4.8,0,9.1-0.9,12.9-2.8
					c3.8-1.8,7-4.4,9.5-7.8c2.5-3.3,4.4-7.3,5.7-12c1.3-4.6,1.9-9.8,1.9-15.5C465.5,198.9,465.1,194.3,464.1,190L464.1,190
					L464.1,190z M451.5,214.4c-0.6,3-1.7,5.8-3,8.2c-1.3,2.3-3,4.2-5.1,5.6c-2,1.4-4.4,2-7.3,2c-3.2,0-6.1-1-9.1-3.1
					c-3-2.1-6.1-5.1-9.4-9v-26.7c1.8-2.2,3.6-4.1,5.2-5.7c1.8-1.6,3.5-3,5.1-4c1.5-1,3.1-1.7,4.5-2.1s3-0.6,4.5-0.6
					c3,0,5.5,0.7,7.4,2c2,1.4,3.6,3.2,4.8,5.6c1.2,2.4,2.2,5.2,2.7,8.4c0.5,3.2,0.8,6.6,0.8,10.1
					C452.5,208.2,452.1,211.3,451.5,214.4L451.5,214.4L451.5,214.4z"/>
				<path class="st3" d="M540.2,190c-1-4.4-2.6-8.2-4.8-11.5c-2.2-3.4-5.2-6.1-8.8-8c-3.6-1.9-7.9-2.9-12.9-2.9
					c-2.3,0-4.5,0.3-6.6,0.8c-2.1,0.5-4.1,1.3-6.1,2.4c-1.9,1.1-3.9,2.4-5.8,4c-0.8,0.6-1.5,1.3-2.3,2v-9.2H481v97.2h12.6v-30.6
					c0.6,0.5,1.1,1,1.7,1.4c1.7,1.4,3.4,2.5,5.1,3.4c1.7,0.9,3.6,1.6,5.4,2.1c1.8,0.4,3.8,0.7,5.9,0.7c4.8,0,9.1-0.9,12.9-2.8
					c3.8-1.8,7-4.4,9.5-7.8c2.5-3.3,4.4-7.3,5.7-12c1.3-4.6,1.9-9.8,1.9-15.5C541.6,198.9,541.2,194.3,540.2,190L540.2,190
					L540.2,190z M527.6,214.4c-0.6,3-1.7,5.8-3,8.2c-1.3,2.3-3,4.2-5.1,5.6c-2,1.4-4.4,2-7.3,2c-3.2,0-6.1-1-9.1-3.1
					c-3-2.1-6.1-5.1-9.4-9v-26.7c1.8-2.2,3.6-4.1,5.2-5.7c1.8-1.6,3.5-3,5.1-4c1.5-1,3.1-1.7,4.5-2.1s3-0.6,4.5-0.6
					c3,0,5.5,0.7,7.4,2c2,1.4,3.6,3.2,4.8,5.6c1.3,2.4,2.2,5.2,2.7,8.4c0.5,3.2,0.8,6.6,0.8,10.1
					C528.6,208.2,528.3,211.3,527.6,214.4L527.6,214.4L527.6,214.4z"/>
				<path class="st3" d="M756.6,177.5c-2.7-3.2-6.2-5.7-10.3-7.4c-4-1.7-8.8-2.5-14.1-2.5s-10.5,0.9-14.7,2.8
					c-4.2,1.9-7.8,4.6-10.7,8c-2.8,3.4-4.9,7.4-6.3,12c-1.4,4.5-2.1,9.5-2.1,14.8s0.7,10.6,2,15c1.3,4.5,3.4,8.4,6.1,11.6
					c2.8,3.2,6.2,5.7,10.3,7.4c4,1.7,8.8,2.6,14.1,2.6s10.5-1,14.7-2.9c4.2-1.9,7.8-4.6,10.7-8c2.8-3.4,5-7.4,6.4-12
					c1.4-4.5,2.1-9.5,2.1-14.8s-0.7-10.5-2-14.9C761.3,184.6,759.3,180.7,756.6,177.5L756.6,177.5L756.6,177.5z M751.6,204.8
					c0,3.7-0.4,7.2-1.2,10.4c-0.8,3.1-2,5.7-3.6,7.9c-1.6,2.1-3.7,3.9-6.2,5.1c-2.5,1.2-5.6,1.9-9.1,1.9c-3.8,0-7-0.7-9.5-2
					c-2.5-1.3-4.5-3.1-6-5.3c-1.5-2.3-2.6-5-3.3-8.1c-0.7-3.2-1-6.6-1-10.2s0.4-7.1,1.2-10.3c0.8-3.1,2-5.8,3.6-8
					c1.6-2.2,3.7-3.9,6.1-5.1c2.5-1.2,5.6-1.9,9.1-1.9c3.8,0,7,0.7,9.5,2c2.5,1.3,4.5,3.1,6,5.4c1.5,2.3,2.6,5.1,3.3,8.1
					C751.2,197.8,751.6,201.2,751.6,204.8L751.6,204.8L751.6,204.8z"/>
			</g>
		</g>
		<path class="st3" d="M361.3,146.7h-15l-31.4,94.8h12.8l7-27.2h37.7l7.2,27.2h13L361.3,146.7L361.3,146.7L361.3,146.7z M338.7,203
			l14.6-41.6l15,41.6H338.7L338.7,203z"/>
		<path class="st3" d="M640.8,203.1c-1.3-2.9-3.2-5.4-5.4-7.6c-2.2-2.1-4.7-3.9-7.4-5.5c-2.6-1.5-5.3-2.9-8.1-4.1
			c-2.7-1.2-5.3-2.5-7.9-3.8c-2.5-1.2-4.7-2.6-6.6-4c-1.8-1.4-3.3-3.1-4.4-4.9c-1-1.7-1.6-3.8-1.6-6.3c0-1.7,0.3-3.3,0.9-4.8
			c0.6-1.5,1.4-2.8,2.6-3.9s2.7-2,4.5-2.7c1.9-0.7,4.1-1,6.7-1s5,0.3,7,0.9c2.1,0.6,3.9,1.4,5.4,2.2c1.6,0.8,2.9,1.6,3.9,2.2
			l5.2-10.9c-0.6-0.6-1.7-1.3-3.3-2.2c-1.5-0.8-3.2-1.5-5.1-2.1c-1.9-0.6-3.9-1.1-6-1.5c-2.1-0.4-4.2-0.6-6.3-0.6
			c-4.1,0-7.9,0.6-11.4,1.7c-3.5,1.1-6.6,2.8-9.1,4.9c-2.6,2.2-4.6,4.8-6,7.9c-1.4,3.1-2.1,6.6-2.1,10.5s0.7,7.4,2,10.4
			c1.3,2.9,3.1,5.4,5.3,7.6c2.1,2.1,4.6,3.9,7.3,5.5c2.6,1.5,5.3,2.9,8.1,4.2c2.7,1.2,5.3,2.5,7.9,3.8c2.4,1.2,4.7,2.6,6.6,4
			c1.8,1.4,3.3,3,4.4,4.8c1,1.7,1.6,3.8,1.6,6.3s-0.4,4.7-1.3,6.6c-0.8,1.9-2,3.5-3.6,4.7c-1.5,1.3-3.4,2.3-5.6,3
			c-2.2,0.7-4.7,1.1-7.4,1.1c-3.3,0-6.3-0.4-8.8-1.2c-2.6-0.8-4.8-1.7-6.6-2.6c-1.8-0.9-3.3-1.8-4.5-2.6l-2.6,13.1
			c1.5,0.8,3.3,1.7,5.5,2.5c2.1,0.8,4.6,1.5,7.3,2.1c2.8,0.6,5.7,0.9,8.8,0.9c4.5,0,8.8-0.6,12.7-1.9c3.9-1.3,7.3-3.1,10.2-5.6
			c2.9-2.4,5.2-5.5,6.8-9c1.6-3.5,2.4-7.5,2.4-11.9C642.8,209.5,642.1,206,640.8,203.1L640.8,203.1L640.8,203.1z"/>
		<path class="st3" d="M684.4,229.1c-0.6,0.2-1.4,0.5-2.2,0.7c-0.8,0.2-1.6,0.3-2.6,0.3c-3.9,0-5.2-1.6-5.9-2.8
			c-1.2-2.3-1.9-5.7-1.9-10.2V180h15.4v-11.4h-15.4v-13.8l-12.7,5.6v8.2h-6.9v11.4h6.9v38.2c0,3.8,0.3,7.1,1,9.9
			c0.7,3,1.9,5.5,3.5,7.4c1.7,2,3.8,3.5,6.4,4.5c2.5,0.9,5.5,1.4,8.9,1.4c1,0,2.1-0.1,3.2-0.2c1.1-0.1,2.1-0.3,3.1-0.5
			c1-0.2,2-0.6,2.8-0.9l-2-11.5C685.7,228.6,685.1,228.9,684.4,229.1L684.4,229.1L684.4,229.1z"/>
		<path class="st3" d="M808.4,167.6h-0.5c-1.6,0-3.2,0.2-4.7,0.6c-1.6,0.4-3.2,1.1-4.8,2.2c-1.6,1-3.2,2.4-4.9,4.2
			c-0.5,0.5-1,1.1-1.6,1.8v-8.7h-12.2v74h12.7v-47.8c1.7-2.6,3.2-4.9,4.6-6.7c1.4-1.9,2.8-3.4,4-4.5c1.2-1.1,2.3-1.8,3.4-2.3
			c1-0.4,2-0.6,3-0.6c0.3,0,0.6,0,1,0l2.2,0.2v-12.2L808.4,167.6L808.4,167.6z"/>
		<path class="st3" d="M871.7,225.6c-0.3,0.1-0.6,0.2-0.9,0.4c-1.1,0.5-2.5,1.1-4.1,1.7c-1.6,0.6-3.6,1.2-5.9,1.7
			c-2.2,0.5-4.8,0.7-7.6,0.7c-3.9,0-7.3-0.6-9.9-1.7c-2.6-1.1-4.7-2.7-6.3-4.7c-1.6-2.1-2.8-4.6-3.5-7.6c-0.6-2.5-1-5.3-1.1-8.3h42
			c1.3,0,2.6-0.4,3.8-1.4c1.5-1.1,2.2-2.8,2.2-5.2v-1.7c0-4.2-0.5-8.2-1.6-12c-1.1-3.9-2.9-7.3-5.2-10.3c-2.4-3-5.5-5.4-9.2-7.1
			s-8.2-2.6-13.3-2.6c-4.8,0-9.2,0.9-13.2,2.6c-4,1.7-7.4,4.2-10.2,7.5c-2.8,3.2-5,7.2-6.5,11.8c-1.5,4.5-2.2,9.7-2.2,15.4
			s0.7,11.2,2.1,15.7c1.4,4.6,3.6,8.5,6.4,11.7c2.8,3.2,6.4,5.6,10.5,7.2c4.1,1.6,8.8,2.4,14.1,2.4c3.2,0,6.2-0.2,8.9-0.8
			c2.7-0.5,5.1-1.1,7.2-1.7c1.3-0.4,2.5-0.8,3.5-1.2L871.7,225.6L871.7,225.6L871.7,225.6z M833.8,191.2c0.8-2.4,2-4.5,3.5-6.3
			c1.5-1.8,3.4-3.2,5.6-4.3c2.2-1.1,4.7-1.6,7.6-1.6c5.7,0,9.9,1.7,12.8,5.1c2.6,3.1,4,7.3,4.2,12.7h-35
			C832.7,194.8,833.1,193,833.8,191.2L833.8,191.2L833.8,191.2z"/>
	</g>
</g>
<g id="Layer_2">
	<g>
		<path class="st4" d="M990.6,1H61.4C26.9,1-1.1,29-1.1,63.5v192c0,34.5,28,62.5,62.5,62.5h929.1c34.5,0,62.5-28,62.5-62.5v-192
			C1053.1,29,1025.1,1,990.6,1z"/>
		<g>
			<g>
				<g>
					<g>
						<g>
							<path class="st5" d="M242,172.4c-5.1-25.8,17.3-39.5,19-40.5c-3.4-4.6-7.4-8.1-11.5-10.6c-13.4-8.4-29.7-9.1-39.4-4.9
								c-0.1,0-0.2,0.1-0.3,0.1c-9.5,4.1-20.2,4.1-29.7,0c-0.1,0-0.2-0.1-0.3-0.1c-9.7-4.3-26-3.5-39.4,4.9
								c-13.4,8.4-26.4,27.2-19.8,63.3c6.6,36.1,30.7,58.1,30.7,58.1s11.5,9.9,26.6,3.3c9.5-4.1,13.8-4.8,15.7-4.8
								c0.9,0,1.9,0,2.8,0c1.9,0,6.2,0.7,15.7,4.8c15.2,6.6,26.6-3.3,26.6-3.3s16.9-15.4,26.2-41.6
								C256.8,197.4,245.3,189.3,242,172.4z"/>
						</g>
						<path class="st5" d="M190.6,115.1c0,0-4.2-36,36.3-42.5l-0.2,4.8C226.1,97.4,210.5,113.6,190.6,115.1L190.6,115.1z"/>
					</g>
				</g>
				<g>
					<g>
						<path class="st5" d="M352.6,83.8c0,4.4-0.6,8.4-1.7,11.7c-1.1,3.4-2.8,6.2-4.9,8.5c-2.2,2.3-4.9,4-8.1,5.2
							c-3.2,1.2-7,1.8-11.5,1.8h-10.4c-0.5,0-1-0.2-1.5-0.6c-0.5-0.4-0.8-1-0.8-2V60.7c0-1,0.3-1.7,0.8-2c0.5-0.4,1-0.6,1.5-0.6
							h11.1c4.5,0,8.3,0.6,11.4,1.8c3.1,1.2,5.7,3,7.8,5.2c2.1,2.2,3.7,4.9,4.7,8.1C352.1,76.4,352.6,79.9,352.6,83.8z M347.3,84
							c0-3.1-0.4-5.9-1.2-8.6c-0.8-2.6-2-4.9-3.6-6.8c-1.6-1.9-3.7-3.4-6.1-4.5c-2.5-1.1-5.6-1.6-9.5-1.6h-8.1v43.9h8.2
							c3.6,0,6.6-0.4,9.1-1.3c2.5-0.9,4.6-2.3,6.2-4.1c1.7-1.9,2.9-4.2,3.7-7C346.9,91.3,347.3,87.9,347.3,84z"/>
						<path class="st5" d="M396.4,91.3c0,2.9-0.4,5.6-1.1,8.1c-0.8,2.5-1.9,4.6-3.4,6.5c-1.5,1.8-3.4,3.2-5.7,4.3
							c-2.3,1-4.9,1.5-7.9,1.5c-2.9,0-5.4-0.5-7.6-1.4c-2.2-0.9-4-2.2-5.4-3.9c-1.5-1.7-2.5-3.8-3.3-6.2c-0.7-2.4-1.1-5.2-1.1-8.2
							c0-2.9,0.4-5.6,1.1-8.1c0.7-2.5,1.9-4.6,3.4-6.4c1.5-1.8,3.4-3.2,5.7-4.2c2.3-1,4.9-1.5,7.9-1.5c2.9,0,5.4,0.4,7.6,1.3
							c2.2,0.9,4,2.2,5.4,3.9c1.4,1.7,2.5,3.8,3.3,6.2C396,85.5,396.4,88.3,396.4,91.3z M391.2,91.7c0-2.1-0.2-4.1-0.6-6
							c-0.4-1.9-1.1-3.6-2-5c-1-1.5-2.2-2.6-3.8-3.5c-1.6-0.9-3.6-1.3-6-1.3c-2.2,0-4.1,0.4-5.7,1.2c-1.6,0.8-2.9,1.9-3.9,3.3
							c-1,1.4-1.8,3.1-2.3,5c-0.5,1.9-0.7,4-0.7,6.2c0,2.1,0.2,4.1,0.6,6.1c0.4,1.9,1.1,3.6,2,5s2.2,2.6,3.8,3.4
							c1.6,0.8,3.6,1.3,6,1.3c2.2,0,4.1-0.4,5.7-1.2c1.6-0.8,2.9-1.9,3.9-3.3c1-1.4,1.8-3,2.3-4.9C391,96,391.2,94,391.2,91.7z"/>
						<path class="st5" d="M455.9,73.1c0,0.1,0,0.3-0.1,0.5c0,0.2-0.1,0.4-0.1,0.6l-11.4,36c-0.1,0.2-0.2,0.4-0.3,0.5
							c-0.1,0.1-0.3,0.2-0.6,0.3c-0.2,0.1-0.6,0.1-1,0.2c-0.4,0-0.9,0-1.4,0c-0.6,0-1.1,0-1.5-0.1c-0.4,0-0.7-0.1-1-0.2
							c-0.3-0.1-0.5-0.2-0.6-0.3c-0.1-0.1-0.3-0.3-0.3-0.5L429,81l-0.1-0.3l-0.1,0.3l-8,29.2c-0.1,0.2-0.2,0.4-0.3,0.5
							c-0.2,0.1-0.4,0.2-0.7,0.3c-0.3,0.1-0.6,0.1-1,0.2c-0.4,0-0.9,0-1.4,0c-0.5,0-1,0-1.4-0.1c-0.4,0-0.7-0.1-1-0.2
							c-0.3-0.1-0.5-0.2-0.6-0.3c-0.1-0.1-0.2-0.3-0.3-0.5l-11.4-36c-0.1-0.2-0.1-0.4-0.2-0.6c0-0.2-0.1-0.4-0.1-0.5
							c0-0.2,0-0.4,0.1-0.5c0.1-0.1,0.2-0.2,0.4-0.3c0.2-0.1,0.4-0.1,0.7-0.1c0.3,0,0.7,0,1.1,0c0.6,0,1,0,1.4,0.1
							c0.4,0,0.6,0.1,0.8,0.2c0.2,0.1,0.3,0.2,0.4,0.3c0.1,0.1,0.1,0.3,0.2,0.5l9.8,32.3l0.1,0.3l0.1-0.3l8.9-32.3
							c0.1-0.2,0.1-0.4,0.2-0.5c0.1-0.1,0.2-0.2,0.4-0.3c0.2-0.1,0.4-0.1,0.7-0.2c0.3,0,0.7-0.1,1.2-0.1c0.5,0,0.8,0,1.1,0.1
							c0.3,0,0.5,0.1,0.7,0.2c0.2,0.1,0.3,0.2,0.4,0.3c0.1,0.1,0.1,0.3,0.2,0.5l9.6,32.3l0.1,0.3l0-0.3l9.7-32.3
							c0.1-0.2,0.1-0.4,0.2-0.5c0.1-0.1,0.2-0.2,0.4-0.3c0.2-0.1,0.5-0.1,0.8-0.2c0.3,0,0.8-0.1,1.3-0.1c0.4,0,0.8,0,1.1,0
							c0.3,0,0.5,0.1,0.7,0.2c0.2,0.1,0.3,0.2,0.3,0.3C455.9,72.8,455.9,72.9,455.9,73.1z"/>
						<path class="st5" d="M495.3,110.1c0,0.2,0,0.3-0.1,0.4c-0.1,0.1-0.2,0.2-0.4,0.3c-0.2,0.1-0.4,0.1-0.7,0.2s-0.7,0.1-1.2,0.1
							c-0.5,0-0.9,0-1.2-0.1s-0.6-0.1-0.7-0.2c-0.2-0.1-0.3-0.2-0.4-0.3c-0.1-0.1-0.1-0.3-0.1-0.4V88.2c0-2.3-0.2-4.1-0.5-5.6
							c-0.4-1.4-0.9-2.7-1.6-3.7c-0.7-1-1.6-1.8-2.7-2.4c-1.1-0.6-2.4-0.8-3.9-0.8c-1.9,0-3.8,0.7-5.6,2c-1.9,1.3-3.9,3.3-5.9,5.9
							v26.5c0,0.2,0,0.3-0.1,0.4c-0.1,0.1-0.2,0.2-0.4,0.3c-0.2,0.1-0.4,0.1-0.7,0.2c-0.3,0.1-0.7,0.1-1.2,0.1c-0.5,0-0.9,0-1.2-0.1
							s-0.6-0.1-0.8-0.2c-0.2-0.1-0.3-0.2-0.4-0.3c-0.1-0.1-0.1-0.3-0.1-0.4v-37c0-0.2,0-0.3,0.1-0.4c0.1-0.1,0.2-0.3,0.4-0.3
							c0.2-0.1,0.4-0.2,0.7-0.2c0.3,0,0.7-0.1,1.1-0.1c0.5,0,0.8,0,1.1,0.1c0.3,0,0.5,0.1,0.7,0.2c0.2,0.1,0.3,0.2,0.3,0.3
							c0.1,0.1,0.1,0.3,0.1,0.4v5.2c2.1-2.4,4.2-4.1,6.2-5.1c2-1.1,4.1-1.6,6.1-1.6c2.4,0,4.5,0.4,6.1,1.2c1.7,0.8,3,1.9,4,3.3
							c1,1.4,1.8,3,2.2,4.9c0.4,1.9,0.7,4.1,0.7,6.7V110.1z"/>
						<path class="st5" d="M513.6,110.1c0,0.2,0,0.3-0.1,0.4c-0.1,0.1-0.2,0.2-0.4,0.3c-0.2,0.1-0.4,0.1-0.7,0.2
							c-0.3,0.1-0.7,0.1-1.2,0.1c-0.5,0-0.9,0-1.2-0.1s-0.6-0.1-0.8-0.2c-0.2-0.1-0.3-0.2-0.4-0.3c-0.1-0.1-0.1-0.3-0.1-0.4v-55
							c0-0.2,0-0.3,0.1-0.4c0.1-0.1,0.2-0.3,0.4-0.3c0.2-0.1,0.4-0.2,0.8-0.2c0.3,0,0.7-0.1,1.2-0.1c0.5,0,0.9,0,1.2,0.1
							c0.3,0,0.6,0.1,0.7,0.2c0.2,0.1,0.3,0.2,0.4,0.3c0.1,0.1,0.1,0.3,0.1,0.4V110.1z"/>
						<path class="st5" d="M559.9,91.3c0,2.9-0.4,5.6-1.1,8.1c-0.8,2.5-1.9,4.6-3.4,6.5c-1.5,1.8-3.4,3.2-5.7,4.3
							c-2.3,1-4.9,1.5-7.9,1.5c-2.9,0-5.4-0.5-7.6-1.4c-2.2-0.9-4-2.2-5.4-3.9c-1.5-1.7-2.5-3.8-3.3-6.2c-0.7-2.4-1.1-5.2-1.1-8.2
							c0-2.9,0.4-5.6,1.1-8.1c0.7-2.5,1.9-4.6,3.4-6.4c1.5-1.8,3.4-3.2,5.7-4.2c2.3-1,4.9-1.5,7.9-1.5c2.9,0,5.4,0.4,7.6,1.3
							s4,2.2,5.4,3.9c1.4,1.7,2.5,3.8,3.3,6.2C559.5,85.5,559.9,88.3,559.9,91.3z M554.8,91.7c0-2.1-0.2-4.1-0.6-6s-1.1-3.6-2-5
							c-1-1.5-2.2-2.6-3.8-3.5c-1.6-0.9-3.6-1.3-6-1.3c-2.2,0-4.1,0.4-5.7,1.2c-1.6,0.8-2.9,1.9-3.9,3.3c-1,1.4-1.8,3.1-2.3,5
							c-0.5,1.9-0.7,4-0.7,6.2c0,2.1,0.2,4.1,0.6,6.1c0.4,1.9,1.1,3.6,2,5s2.2,2.6,3.8,3.4c1.6,0.8,3.6,1.3,6,1.3
							c2.2,0,4.1-0.4,5.7-1.2c1.6-0.8,2.9-1.9,3.9-3.3c1-1.4,1.8-3,2.3-4.9C554.5,96,554.8,94,554.8,91.7z"/>
						<path class="st5" d="M596.7,110.1c0,0.3-0.1,0.5-0.3,0.6c-0.2,0.1-0.4,0.3-0.7,0.3c-0.3,0.1-0.7,0.1-1.2,0.1
							c-0.5,0-0.9,0-1.2-0.1c-0.3-0.1-0.6-0.2-0.8-0.3c-0.2-0.1-0.3-0.4-0.3-0.6V106c-1.7,1.8-3.5,3.2-5.5,4.2c-2,1-4.1,1.5-6.2,1.5
							c-1.9,0-3.7-0.3-5.2-0.8c-1.5-0.5-2.8-1.2-3.9-2.2c-1.1-0.9-1.9-2.1-2.5-3.4c-0.6-1.3-0.9-2.8-0.9-4.5c0-2,0.4-3.8,1.3-5.3
							c0.8-1.5,2-2.8,3.6-3.8c1.6-1,3.4-1.8,5.6-2.3c2.2-0.5,4.6-0.8,7.3-0.8h5.9v-3.2c0-1.6-0.2-3-0.5-4.2c-0.3-1.2-0.9-2.2-1.6-3
							s-1.7-1.4-2.9-1.8s-2.6-0.6-4.3-0.6c-1.6,0-3.1,0.2-4.4,0.6c-1.3,0.4-2.5,0.8-3.4,1.3c-1,0.5-1.8,0.9-2.4,1.3
							c-0.6,0.4-1.1,0.6-1.4,0.6c-0.2,0-0.3,0-0.4-0.1c-0.1-0.1-0.3-0.2-0.3-0.3c-0.1-0.1-0.2-0.3-0.2-0.6c0-0.2-0.1-0.5-0.1-0.8
							c0-0.6,0-1,0.1-1.4s0.3-0.7,0.6-1c0.3-0.3,0.9-0.7,1.8-1.2c0.9-0.5,1.9-0.9,3-1.3c1.1-0.4,2.3-0.7,3.7-1
							c1.3-0.2,2.6-0.4,3.9-0.4c2.5,0,4.7,0.3,6.4,0.9c1.7,0.6,3.2,1.5,4.2,2.6c1.1,1.1,1.8,2.6,2.3,4.2c0.5,1.7,0.7,3.6,0.7,5.7
							V110.1z M591.8,92.7h-6.7c-2,0-3.7,0.2-5.1,0.5c-1.5,0.4-2.7,0.9-3.7,1.6c-1,0.7-1.7,1.5-2.2,2.5c-0.5,1-0.7,2-0.7,3.3
							c0,2.1,0.7,3.8,2,5.1c1.3,1.3,3.2,1.9,5.7,1.9c1.9,0,3.7-0.5,5.4-1.5c1.7-1,3.5-2.5,5.3-4.6V92.7z"/>
						<path class="st5" d="M640,110.1c0,0.2,0,0.4-0.1,0.5c-0.1,0.1-0.2,0.2-0.4,0.3s-0.4,0.1-0.7,0.2c-0.3,0-0.6,0.1-1,0.1
							c-0.4,0-0.8,0-1.1-0.1c-0.3,0-0.5-0.1-0.7-0.2c-0.2-0.1-0.3-0.2-0.4-0.3c-0.1-0.1-0.1-0.3-0.1-0.5v-5.3c-2,2.1-4,3.8-6.1,5
							c-2.1,1.2-4.4,1.8-6.9,1.8c-2.7,0-4.9-0.5-6.8-1.6c-1.9-1-3.4-2.4-4.6-4.2c-1.2-1.8-2-3.8-2.6-6.2c-0.5-2.4-0.8-4.9-0.8-7.6
							c0-3.1,0.3-6,1-8.5c0.7-2.5,1.7-4.7,3-6.4c1.3-1.8,3-3.1,4.9-4.1c2-1,4.2-1.4,6.8-1.4c2.2,0,4.3,0.5,6.1,1.5
							c1.9,1,3.7,2.5,5.5,4.4V55.3c0-0.2,0-0.3,0.1-0.4c0.1-0.1,0.2-0.2,0.4-0.3c0.2-0.1,0.4-0.1,0.8-0.2c0.3-0.1,0.7-0.1,1.2-0.1
							c0.5,0,0.9,0,1.2,0.1c0.3,0.1,0.6,0.1,0.7,0.2c0.2,0.1,0.3,0.2,0.4,0.3c0.1,0.1,0.1,0.3,0.1,0.4V110.1z M635.1,83.5
							c-2-2.5-4-4.4-5.9-5.7c-1.9-1.3-3.9-2-5.9-2c-1.9,0-3.5,0.4-4.8,1.3c-1.3,0.9-2.4,2.1-3.3,3.6c-0.8,1.5-1.5,3.1-1.8,5
							s-0.6,3.7-0.6,5.6c0,2,0.2,4,0.5,6c0.3,1.9,0.9,3.7,1.7,5.2c0.8,1.5,1.8,2.7,3.1,3.6c1.3,0.9,2.9,1.4,4.9,1.4
							c1,0,1.9-0.1,2.9-0.4c0.9-0.3,1.9-0.7,2.9-1.3c1-0.6,2-1.4,3-2.4c1-1,2.2-2.2,3.4-3.7V83.5z"/>
						<path class="st5" d="M705.2,91.3c0,2.9-0.4,5.6-1.1,8.1c-0.8,2.5-1.9,4.6-3.4,6.5c-1.5,1.8-3.4,3.2-5.7,4.3
							c-2.3,1-4.9,1.5-7.9,1.5c-2.9,0-5.4-0.5-7.6-1.4c-2.2-0.9-4-2.2-5.4-3.9c-1.5-1.7-2.5-3.8-3.3-6.2c-0.7-2.4-1.1-5.2-1.1-8.2
							c0-2.9,0.4-5.6,1.1-8.1c0.7-2.5,1.9-4.6,3.4-6.4c1.5-1.8,3.4-3.2,5.7-4.2c2.3-1,4.9-1.5,7.9-1.5c2.9,0,5.4,0.4,7.6,1.3
							c2.2,0.9,4,2.2,5.4,3.9c1.4,1.7,2.5,3.8,3.3,6.2C704.9,85.5,705.2,88.3,705.2,91.3z M700.1,91.7c0-2.1-0.2-4.1-0.6-6
							s-1.1-3.6-2-5c-1-1.5-2.2-2.6-3.8-3.5c-1.6-0.9-3.6-1.3-6-1.3c-2.2,0-4.1,0.4-5.7,1.2c-1.6,0.8-2.9,1.9-3.9,3.3
							c-1,1.4-1.8,3.1-2.3,5c-0.5,1.9-0.7,4-0.7,6.2c0,2.1,0.2,4.1,0.6,6.1c0.4,1.9,1.1,3.6,2,5c1,1.4,2.2,2.6,3.8,3.4
							s3.6,1.3,6,1.3c2.2,0,4.1-0.4,5.7-1.2c1.6-0.8,2.9-1.9,3.9-3.3c1-1.4,1.8-3,2.3-4.9C699.8,96,700.1,94,700.1,91.7z"/>
						<path class="st5" d="M746.1,110.1c0,0.2,0,0.3-0.1,0.4c-0.1,0.1-0.2,0.2-0.4,0.3c-0.2,0.1-0.4,0.1-0.7,0.2
							c-0.3,0.1-0.7,0.1-1.2,0.1c-0.5,0-0.9,0-1.2-0.1c-0.3-0.1-0.6-0.1-0.7-0.2c-0.2-0.1-0.3-0.2-0.4-0.3c-0.1-0.1-0.1-0.3-0.1-0.4
							V88.2c0-2.3-0.2-4.1-0.5-5.6c-0.4-1.4-0.9-2.7-1.6-3.7s-1.6-1.8-2.7-2.4c-1.1-0.6-2.4-0.8-3.9-0.8c-1.9,0-3.8,0.7-5.6,2
							c-1.9,1.3-3.9,3.3-5.9,5.9v26.5c0,0.2,0,0.3-0.1,0.4c-0.1,0.1-0.2,0.2-0.4,0.3c-0.2,0.1-0.4,0.1-0.7,0.2s-0.7,0.1-1.2,0.1
							c-0.5,0-0.9,0-1.2-0.1c-0.3-0.1-0.6-0.1-0.8-0.2c-0.2-0.1-0.3-0.2-0.4-0.3c-0.1-0.1-0.1-0.3-0.1-0.4v-37c0-0.2,0-0.3,0.1-0.4
							c0.1-0.1,0.2-0.3,0.4-0.3c0.2-0.1,0.4-0.2,0.7-0.2c0.3,0,0.7-0.1,1.1-0.1c0.5,0,0.8,0,1.1,0.1c0.3,0,0.5,0.1,0.7,0.2
							c0.2,0.1,0.3,0.2,0.3,0.3c0.1,0.1,0.1,0.3,0.1,0.4v5.2c2.1-2.4,4.2-4.1,6.2-5.1c2-1.1,4.1-1.6,6.1-1.6c2.4,0,4.5,0.4,6.1,1.2
							c1.7,0.8,3,1.9,4,3.3c1,1.4,1.8,3,2.2,4.9c0.4,1.9,0.7,4.1,0.7,6.7V110.1z"/>
						<path class="st5" d="M796.3,107.9c0,0.6,0,1-0.1,1.4c-0.1,0.4-0.2,0.6-0.4,0.8c-0.2,0.2-0.5,0.4-0.9,0.6
							c-0.4,0.2-0.9,0.3-1.4,0.4c-0.5,0.1-1.1,0.2-1.6,0.3c-0.6,0.1-1.1,0.1-1.7,0.1c-1.8,0-3.4-0.2-4.7-0.7
							c-1.3-0.5-2.3-1.2-3.1-2.2c-0.8-1-1.4-2.3-1.8-3.8c-0.4-1.5-0.6-3.3-0.6-5.4v-23h-5.5c-0.4,0-0.7-0.2-0.9-0.5
							c-0.2-0.3-0.3-0.9-0.3-1.5c0-0.4,0-0.7,0.1-0.9c0.1-0.3,0.1-0.5,0.2-0.7c0.1-0.2,0.2-0.3,0.4-0.4c0.1-0.1,0.3-0.1,0.5-0.1h5.5
							v-9.1c0-0.2,0-0.3,0.1-0.4c0.1-0.1,0.2-0.3,0.4-0.3c0.2-0.1,0.4-0.2,0.8-0.2c0.3,0,0.7-0.1,1.2-0.1c0.5,0,0.9,0,1.2,0.1
							c0.3,0,0.6,0.1,0.7,0.2c0.2,0.1,0.3,0.2,0.4,0.3c0.1,0.1,0.1,0.3,0.1,0.4v9.1h10.2c0.2,0,0.4,0,0.5,0.1
							c0.1,0.1,0.3,0.2,0.4,0.4c0.1,0.2,0.2,0.4,0.2,0.7c0.1,0.3,0.1,0.6,0.1,0.9c0,0.7-0.1,1.2-0.3,1.5c-0.2,0.3-0.5,0.5-0.9,0.5
							h-10.2v22.3c0,2.8,0.4,4.9,1.2,6.4c0.8,1.5,2.3,2.2,4.4,2.2c0.7,0,1.2-0.1,1.8-0.2c0.5-0.1,1-0.3,1.4-0.4
							c0.4-0.2,0.8-0.3,1-0.4c0.3-0.1,0.5-0.2,0.8-0.2c0.1,0,0.3,0,0.4,0.1c0.1,0.1,0.2,0.2,0.3,0.3c0.1,0.1,0.1,0.3,0.2,0.6
							C796.3,107.3,796.3,107.6,796.3,107.9z"/>
						<path class="st5" d="M835.9,110.1c0,0.2,0,0.3-0.1,0.4c-0.1,0.1-0.2,0.2-0.4,0.3c-0.2,0.1-0.4,0.1-0.7,0.2
							c-0.3,0.1-0.7,0.1-1.2,0.1c-0.5,0-0.9,0-1.2-0.1c-0.3-0.1-0.6-0.1-0.7-0.2c-0.2-0.1-0.3-0.2-0.4-0.3c-0.1-0.1-0.1-0.3-0.1-0.4
							V88.2c0-2.3-0.2-4.1-0.5-5.6c-0.4-1.4-0.9-2.7-1.6-3.7c-0.7-1-1.6-1.8-2.7-2.4c-1.1-0.6-2.4-0.8-3.9-0.8c-1.9,0-3.8,0.7-5.6,2
							c-1.9,1.3-3.9,3.3-5.9,5.9v26.5c0,0.2,0,0.3-0.1,0.4c-0.1,0.1-0.2,0.2-0.4,0.3c-0.2,0.1-0.4,0.1-0.7,0.2
							c-0.3,0.1-0.7,0.1-1.2,0.1c-0.5,0-0.9,0-1.2-0.1c-0.3-0.1-0.6-0.1-0.8-0.2c-0.2-0.1-0.3-0.2-0.4-0.3c-0.1-0.1-0.1-0.3-0.1-0.4
							v-55c0-0.2,0-0.3,0.1-0.4c0.1-0.1,0.2-0.3,0.4-0.3c0.2-0.1,0.4-0.2,0.8-0.2c0.3,0,0.7-0.1,1.2-0.1c0.5,0,0.9,0,1.2,0.1
							c0.3,0,0.6,0.1,0.7,0.2c0.2,0.1,0.3,0.2,0.4,0.3c0.1,0.1,0.1,0.3,0.1,0.4v23.1c2-2.2,4-3.9,6-4.9c2-1,4-1.6,6-1.6
							c2.4,0,4.5,0.4,6.1,1.2c1.7,0.8,3,1.9,4,3.3c1,1.4,1.8,3,2.2,4.9c0.4,1.9,0.7,4.1,0.7,6.7V110.1z"/>
						<path class="st5" d="M879.5,89.8c0,1-0.3,1.7-0.8,2c-0.5,0.4-1,0.6-1.5,0.6h-25.2c0,2.3,0.2,4.4,0.7,6.2
							c0.4,1.9,1.2,3.4,2.2,4.8c1,1.3,2.4,2.3,4,3s3.7,1.1,6.1,1.1c1.7,0,3.3-0.1,4.6-0.4c1.4-0.3,2.5-0.6,3.5-1
							c1-0.4,1.8-0.7,2.4-1c0.6-0.3,1.1-0.4,1.4-0.4c0.2,0,0.3,0,0.4,0.1c0.1,0.1,0.2,0.2,0.3,0.4c0.1,0.2,0.1,0.4,0.2,0.7
							c0,0.3,0.1,0.6,0.1,1c0,0.2,0,0.4,0,0.6c0,0.2-0.1,0.3-0.1,0.5c0,0.1-0.1,0.3-0.2,0.4c-0.1,0.1-0.2,0.3-0.3,0.4
							c-0.1,0.1-0.6,0.4-1.3,0.7c-0.7,0.3-1.6,0.7-2.8,1c-1.1,0.3-2.5,0.6-4,0.9c-1.5,0.3-3.1,0.4-4.9,0.4c-2.9,0-5.4-0.4-7.6-1.3
							c-2.2-0.9-4.1-2.1-5.6-3.8c-1.5-1.7-2.6-3.7-3.4-6.2c-0.8-2.5-1.2-5.3-1.2-8.6c0-3.1,0.4-5.9,1.2-8.4c0.8-2.5,2-4.6,3.5-6.3
							c1.5-1.7,3.3-3,5.4-4c2.1-0.9,4.5-1.4,7-1.4c2.8,0,5.1,0.5,7.1,1.4c2,0.9,3.6,2.2,4.8,3.7c1.3,1.6,2.2,3.4,2.8,5.5
							c0.6,2.1,0.9,4.2,0.9,6.5V89.8z M874.5,88.3c0.1-3.9-0.8-7-2.7-9.2c-1.9-2.2-4.6-3.3-8.2-3.3c-1.9,0-3.5,0.3-4.9,1
							c-1.4,0.7-2.6,1.6-3.6,2.8c-1,1.1-1.7,2.5-2.2,4c-0.5,1.5-0.8,3.1-0.9,4.7H874.5z"/>
					</g>
					<g>
						<path class="st5" d="M463.3,189.9c-1-4.4-2.6-8.3-4.8-11.6c-2.3-3.4-5.2-6.1-8.8-8c-3.6-2-8-2.9-13-2.9
							c-2.3,0-4.5,0.3-6.6,0.8c-2.1,0.5-4.1,1.3-6.1,2.4c-1.9,1.1-3.9,2.4-5.8,4c-0.8,0.6-1.5,1.3-2.3,2v-9.2h-12V265h12.7v-30.7
							c0.6,0.5,1.1,1,1.7,1.4c1.7,1.4,3.4,2.5,5.1,3.4c1.8,0.9,3.6,1.6,5.4,2.1c1.8,0.4,3.8,0.7,5.9,0.7c4.8,0,9.1-0.9,12.9-2.8
							c3.8-1.8,7-4.5,9.6-7.8c2.5-3.3,4.5-7.4,5.7-12.1c1.3-4.6,1.9-9.9,1.9-15.6C464.7,198.8,464.2,194.2,463.3,189.9z
							 M450.6,214.4c-0.6,3.1-1.7,5.8-3,8.2c-1.3,2.3-3.1,4.2-5.1,5.6c-2,1.4-4.4,2.1-7.4,2.1c-3.2,0-6.2-1-9.1-3.1
							c-3-2.1-6.1-5.2-9.4-9.1v-26.8c1.8-2.3,3.6-4.2,5.2-5.7c1.8-1.7,3.5-3,5.1-4c1.5-1,3.1-1.7,4.5-2.1c1.5-0.4,3-0.6,4.5-0.6
							c3,0,5.5,0.7,7.4,2c2,1.4,3.6,3.3,4.8,5.6c1.3,2.4,2.2,5.3,2.7,8.4c0.6,3.2,0.8,6.7,0.8,10.2
							C451.6,208.1,451.2,211.3,450.6,214.4z"/>
						<path class="st5" d="M539.8,189.9c-1-4.4-2.6-8.3-4.8-11.6c-2.3-3.4-5.2-6.1-8.8-8c-3.6-2-8-2.9-13-2.9
							c-2.3,0-4.5,0.3-6.6,0.8c-2.1,0.5-4.1,1.3-6.1,2.4c-1.9,1.1-3.9,2.4-5.8,4c-0.8,0.6-1.5,1.3-2.3,2v-9.2h-12V265H493v-30.7
							c0.6,0.5,1.1,1,1.7,1.4c1.7,1.4,3.4,2.5,5.1,3.4c1.8,0.9,3.6,1.6,5.4,2.1c1.8,0.4,3.8,0.7,5.9,0.7c4.8,0,9.1-0.9,12.9-2.8
							c3.8-1.8,7-4.5,9.6-7.8c2.5-3.3,4.5-7.4,5.7-12.1c1.3-4.6,1.9-9.9,1.9-15.6C541.2,198.8,540.7,194.2,539.8,189.9z
							 M527.1,214.4c-0.6,3.1-1.7,5.8-3,8.2c-1.3,2.3-3,4.2-5.1,5.6c-2,1.4-4.4,2.1-7.4,2.1c-3.2,0-6.2-1-9.1-3.1
							c-3-2.1-6.1-5.2-9.4-9.1v-26.8c1.8-2.3,3.6-4.2,5.2-5.7c1.8-1.7,3.5-3,5.1-4c1.5-1,3.1-1.7,4.5-2.1c1.5-0.4,3-0.6,4.5-0.6
							c3,0,5.5,0.7,7.4,2c2,1.4,3.6,3.3,4.8,5.6c1.3,2.4,2.2,5.3,2.7,8.4c0.6,3.2,0.8,6.7,0.8,10.2
							C528.1,208.1,527.7,211.3,527.1,214.4z"/>
						<path class="st5" d="M757.2,177.3c-2.7-3.2-6.2-5.7-10.3-7.4c-4-1.7-8.8-2.5-14.1-2.5c-5.6,0-10.6,1-14.8,2.8
							c-4.3,1.9-7.9,4.6-10.7,8c-2.8,3.4-5,7.4-6.4,12.1c-1.4,4.5-2.1,9.6-2.1,14.9c0,5.5,0.7,10.6,2,15c1.3,4.5,3.4,8.4,6.2,11.6
							c2.8,3.2,6.2,5.7,10.3,7.5c4,1.7,8.8,2.6,14.1,2.6c5.5,0,10.5-1,14.7-2.9c4.3-1.9,7.9-4.6,10.7-8.1c2.8-3.4,5-7.5,6.4-12.1
							c1.4-4.5,2.1-9.6,2.1-14.9c0-5.5-0.7-10.5-2-15C761.9,184.4,759.9,180.5,757.2,177.3z M752.1,204.7c0,3.7-0.4,7.2-1.2,10.4
							c-0.8,3.1-2,5.8-3.7,8c-1.6,2.2-3.7,3.9-6.2,5.1c-2.5,1.2-5.6,1.9-9.1,1.9c-3.9,0-7.1-0.7-9.6-2c-2.5-1.3-4.5-3.1-6-5.3
							c-1.5-2.3-2.6-5.1-3.3-8.2c-0.7-3.2-1-6.7-1-10.2c0-3.7,0.4-7.2,1.2-10.3c0.8-3.1,2-5.8,3.7-8c1.6-2.2,3.7-3.9,6.2-5.1
							c2.5-1.2,5.6-1.9,9.1-1.9c3.9,0,7.1,0.7,9.6,2c2.5,1.3,4.5,3.2,6,5.4c1.5,2.3,2.6,5.1,3.3,8.2
							C751.8,197.8,752.1,201.2,752.1,204.7z"/>
					</g>
				</g>
				<path class="st5" d="M359.9,146.4h-15.1l-31.5,95.3h12.9l7-27.3h37.9l7.3,27.3h13.1L359.9,146.4z M337.2,202.9l14.7-41.8
					l15,41.8H337.2z"/>
				<path class="st5" d="M640.8,203.1c-1.3-2.9-3.2-5.4-5.4-7.6c-2.2-2.1-4.7-4-7.4-5.5c-2.6-1.5-5.4-2.9-8.1-4.2
					c-2.7-1.3-5.4-2.5-8-3.8c-2.5-1.2-4.7-2.6-6.7-4.1c-1.8-1.4-3.3-3.1-4.4-4.9c-1-1.7-1.6-3.9-1.6-6.3c0-1.7,0.3-3.3,0.9-4.8
					c0.6-1.5,1.4-2.8,2.6-3.9c1.2-1.1,2.7-2,4.5-2.7c1.9-0.7,4.1-1,6.7-1c2.7,0,5,0.3,7.1,0.9c2.1,0.7,4,1.4,5.5,2.2
					c1.6,0.8,2.9,1.6,3.9,2.2l5.3-11c-0.6-0.6-1.7-1.3-3.3-2.2c-1.5-0.8-3.2-1.5-5.1-2.1c-1.9-0.6-3.9-1.1-6-1.5
					c-2.1-0.4-4.3-0.6-6.4-0.6c-4.1,0-8,0.6-11.5,1.7c-3.5,1.1-6.6,2.8-9.2,5c-2.6,2.2-4.6,4.9-6,8c-1.4,3.1-2.1,6.7-2.1,10.5
					c0,4,0.7,7.5,2.1,10.4c1.3,2.9,3.1,5.5,5.4,7.6c2.2,2.1,4.6,4,7.4,5.5c2.6,1.5,5.3,2.9,8.1,4.2c2.7,1.3,5.3,2.5,7.9,3.8
					c2.5,1.2,4.7,2.6,6.6,4c1.8,1.4,3.3,3,4.4,4.9c1,1.7,1.6,3.9,1.6,6.3c0,2.5-0.4,4.7-1.3,6.6c-0.8,1.9-2.1,3.5-3.6,4.8
					c-1.6,1.3-3.5,2.3-5.6,3c-2.2,0.7-4.7,1.1-7.4,1.1c-3.4,0-6.3-0.4-8.8-1.2c-2.6-0.8-4.8-1.7-6.6-2.6c-1.9-0.9-3.4-1.8-4.5-2.6
					l-2.6,13.2c1.5,0.8,3.3,1.7,5.5,2.5c2.1,0.8,4.6,1.5,7.3,2.1c2.8,0.6,5.7,0.9,8.8,0.9c4.6,0,8.8-0.6,12.7-1.9
					c3.9-1.3,7.4-3.2,10.3-5.6c2.9-2.5,5.2-5.5,6.8-9c1.6-3.5,2.4-7.5,2.4-11.9C642.9,209.5,642.2,206,640.8,203.1z"/>
				<path class="st5" d="M684.6,229.2c-0.6,0.3-1.4,0.5-2.2,0.7c-0.8,0.2-1.6,0.3-2.6,0.3c-3.9,0-5.2-1.6-5.9-2.8
					c-1.2-2.3-1.9-5.7-1.9-10.3v-37.2h15.5v-11.4H672v-13.9l-12.7,5.6v8.3h-6.9v11.4h6.9v38.4c0,3.8,0.3,7.1,1,10
					c0.7,3,1.9,5.5,3.5,7.5c1.7,2,3.8,3.6,6.4,4.5c2.5,0.9,5.5,1.4,8.9,1.4c1,0,2.1-0.1,3.2-0.2c1.1-0.1,2.1-0.3,3.1-0.5
					c1-0.2,2-0.6,2.8-0.9l-2-11.6C685.9,228.7,685.3,229,684.6,229.2z"/>
				<path class="st5" d="M809.2,167.3c-0.2,0-0.4,0-0.5,0c-1.6,0-3.2,0.2-4.7,0.6c-1.6,0.4-3.2,1.1-4.8,2.2c-1.6,1-3.2,2.4-4.9,4.2
					c-0.5,0.5-1,1.1-1.6,1.8v-8.8h-12.3v74.4h12.7v-48c1.7-2.6,3.2-4.9,4.6-6.8c1.4-1.9,2.8-3.4,4-4.6c1.2-1.1,2.3-1.8,3.4-2.3
					c1-0.4,2-0.6,3-0.6c0.3,0,0.6,0,1,0l2.2,0.2v-12.3L809.2,167.3z"/>
				<path class="st5" d="M872.9,225.7c-0.3,0.1-0.6,0.2-0.9,0.4c-1.1,0.5-2.5,1.1-4.2,1.7c-1.7,0.6-3.7,1.2-5.9,1.7
					c-2.2,0.5-4.8,0.7-7.7,0.7c-4,0-7.3-0.6-10-1.7c-2.6-1.1-4.7-2.7-6.3-4.7c-1.6-2.1-2.8-4.6-3.5-7.6c-0.6-2.5-1-5.3-1.1-8.4h42.2
					c1.3,0,2.6-0.5,3.9-1.4c1.5-1.1,2.2-2.8,2.2-5.3v-1.7c0-4.2-0.5-8.3-1.6-12.1c-1.1-3.9-2.9-7.4-5.3-10.3c-2.4-3-5.5-5.4-9.2-7.2
					c-3.7-1.8-8.2-2.6-13.4-2.6c-4.8,0-9.3,0.9-13.2,2.6c-4,1.7-7.4,4.3-10.3,7.5c-2.8,3.2-5,7.2-6.5,11.8
					c-1.5,4.5-2.2,9.7-2.2,15.5c0,5.9,0.7,11.2,2.1,15.8c1.4,4.6,3.6,8.6,6.4,11.7c2.8,3.2,6.4,5.6,10.6,7.2
					c4.1,1.6,8.9,2.4,14.1,2.4c3.2,0,6.2-0.3,9-0.8c2.7-0.5,5.2-1.1,7.2-1.7c1.3-0.4,2.5-0.8,3.5-1.2V225.7z M834.7,191.1
					c0.8-2.4,2-4.5,3.5-6.3c1.5-1.8,3.4-3.2,5.6-4.3c2.2-1.1,4.7-1.6,7.7-1.6c5.7,0,9.9,1.7,12.9,5.1c2.6,3.1,4,7.4,4.2,12.7h-35.2
					C833.7,194.8,834.1,192.9,834.7,191.1z"/>
			</g>
		</g>
	</g>
</g>
</svg>
