<?xml version="1.0" encoding="UTF-8"?>
<svg id="Layer_1" xmlns="http://www.w3.org/2000/svg" version="1.1" viewBox="0 0 375 375">
  <!-- Generator: Adobe Illustrator 29.6.1, SVG Export Plug-In . SVG Version: 2.1.1 Build 9)  -->
  <defs>
    <style>
      .st0 {
        fill: #fff;
      }
    </style>
  </defs>
  <path class="st0" d="M357,18l-186.26,152.62L18,357l186.26-152.62L357,18ZM258,29.5l-103.5,69.87-70,103.62,103.51-69.86,69.99-103.63ZM117,345.25l104.39-70.24,66.17-98.08,3.94-6.18-104.26,70.11-70.24,104.38Z"/>
  <polygon points="357 18 204.26 204.38 18 357 170.74 170.62 357 18"/>
  <polygon points="117 345.25 187.24 240.86 291.5 170.75 287.56 176.93 221.39 275.01 117 345.25"/>
  <polygon points="258 29.5 188.01 133.13 84.5 203 154.5 99.38 258 29.5"/>
</svg>