<?xml version="1.0" encoding="UTF-8"?>
<svg id="Layer_1" xmlns="http://www.w3.org/2000/svg" version="1.1" viewBox="0 0 300 110">
  <!-- Generator: Adobe Illustrator 29.6.1, SVG Export Plug-In . SVG Version: 2.1.1 Build 9)  -->
  <defs>
    <style>
      .st0 {
        fill: #d1d5db;
      }

      .st1 {
        fill: #56aebf;
      }

      .st2 {
        fill: none;
      }

      .st3 {
        isolation: isolate;
      }

      .st4 {
        fill: #66676d;
      }

      .st5 {
        display: none;
      }
    </style>
  </defs>
  <g id="Layer_2" class="st5">
    <rect x="1.07" y=".99" width="298.93" height="109.01"/>
  </g>
  <g class="st3">
    <g class="st3">
      <g class="st3">
        <g class="st3">
          <g class="st3">
            <path class="st0" d="M68.52,75.44c0,.62-.11,1.2-.33,1.74-.22.53-.52,1-.91,1.39-.49.49-1.06.85-1.72,1.09-.66.24-1.5.36-2.51.36h-1.87v5.25h-1.87v-14.09h3.82c.85,0,1.56.07,2.15.21.59.14,1.11.36,1.56.67.54.36.95.81,1.24,1.34s.44,1.21.44,2.03ZM66.57,75.49c0-.49-.09-.91-.26-1.27-.17-.36-.43-.65-.78-.88-.3-.2-.65-.34-1.04-.42-.39-.09-.88-.13-1.47-.13h-1.85v5.63h1.58c.76,0,1.37-.07,1.85-.2s.86-.35,1.15-.65c.3-.3.51-.62.63-.96.12-.33.18-.71.18-1.13Z"/>
            <path class="st0" d="M77.44,76.64h-.09c-.26-.06-.52-.11-.77-.14-.25-.03-.54-.04-.88-.04-.55,0-1.08.12-1.59.36-.51.24-1,.56-1.48.94v7.5h-1.78v-10.57h1.78v1.56c.71-.57,1.33-.97,1.87-1.21.54-.24,1.09-.36,1.65-.36.31,0,.53,0,.67.02.14.02.35.05.62.09v1.83Z"/>
            <path class="st0" d="M87.97,80.17h-7.79c0,.65.1,1.22.29,1.7.2.48.46.88.8,1.19.33.3.72.53,1.17.68s.95.23,1.49.23c.72,0,1.44-.14,2.17-.43.73-.29,1.25-.57,1.56-.85h.09v1.94c-.6.25-1.21.46-1.84.63-.62.17-1.28.26-1.97.26-1.75,0-3.12-.47-4.11-1.42-.98-.95-1.48-2.3-1.48-4.05s.47-3.1,1.42-4.12c.94-1.02,2.18-1.52,3.72-1.52,1.43,0,2.52.42,3.3,1.25.77.83,1.16,2.02,1.16,3.55v.96ZM86.23,78.81c0-.93-.24-1.66-.71-2.17-.46-.51-1.17-.77-2.11-.77s-1.71.28-2.28.84c-.56.56-.88,1.26-.96,2.09h6.06Z"/>
            <path class="st0" d="M106.09,85.27h-1.78v-6.02c0-.45-.02-.89-.06-1.32-.04-.42-.13-.76-.26-1.01-.15-.27-.35-.48-.62-.61-.27-.14-.66-.21-1.17-.21s-1,.12-1.5.37-1,.57-1.5.95c.02.15.03.31.05.51.01.19.02.38.02.57v6.77h-1.78v-6.02c0-.47-.02-.91-.06-1.33-.04-.42-.13-.76-.26-1.01-.15-.27-.35-.47-.62-.61-.27-.14-.66-.2-1.17-.2s-.97.12-1.46.36c-.49.24-.98.54-1.46.92v7.89h-1.78v-10.57h1.78v1.17c.55-.46,1.11-.82,1.66-1.08.55-.26,1.14-.39,1.76-.39.72,0,1.33.15,1.83.45s.88.72,1.12,1.26c.72-.61,1.38-1.04,1.97-1.31.59-.27,1.23-.4,1.9-.4,1.16,0,2.02.35,2.57,1.05.55.7.83,1.69.83,2.95v6.86Z"/>
            <path class="st0" d="M111.42,72.93h-2.01v-1.84h2.01v1.84ZM111.31,85.27h-1.78v-10.57h1.78v10.57Z"/>
            <path class="st0" d="M123.59,85.27h-1.78v-1.17c-.6.47-1.17.84-1.72,1.09-.55.25-1.15.38-1.82.38-1.11,0-1.97-.34-2.59-1.02-.62-.68-.93-1.67-.93-2.99v-6.86h1.78v6.02c0,.54.02,1,.08,1.38.05.38.16.71.32.98.17.28.39.48.66.61.27.13.67.19,1.18.19.46,0,.96-.12,1.51-.36.55-.24,1.06-.55,1.53-.92v-7.89h1.78v10.57Z"/>
            <path class="st0" d="M142.52,85.27h-1.78v-6.02c0-.45-.02-.89-.06-1.32-.04-.42-.13-.76-.26-1.01-.15-.27-.35-.48-.62-.61-.27-.14-.66-.21-1.17-.21s-1,.12-1.5.37-1,.57-1.5.95c.02.15.03.31.05.51.01.19.02.38.02.57v6.77h-1.78v-6.02c0-.47-.02-.91-.06-1.33-.04-.42-.13-.76-.26-1.01-.15-.27-.35-.47-.62-.61-.27-.14-.66-.2-1.17-.2s-.97.12-1.46.36c-.49.24-.98.54-1.46.92v7.89h-1.78v-10.57h1.78v1.17c.55-.46,1.11-.82,1.66-1.08.55-.26,1.14-.39,1.76-.39.72,0,1.33.15,1.83.45s.88.72,1.12,1.26c.72-.61,1.38-1.04,1.97-1.31.59-.27,1.23-.4,1.9-.4,1.16,0,2.02.35,2.57,1.05.55.7.83,1.69.83,2.95v6.86Z"/>
            <path class="st0" d="M161.81,85.27h-8.91v-14.09h1.87v12.42h7.04v1.67Z"/>
            <path class="st0" d="M165.46,72.93h-2.01v-1.84h2.01v1.84ZM165.34,85.27h-1.78v-10.57h1.78v10.57Z"/>
            <path class="st0" d="M174.55,72.27h-.09c-.2-.06-.45-.12-.77-.17-.32-.06-.59-.09-.83-.09-.76,0-1.32.17-1.66.51-.34.34-.52.95-.52,1.83v.36h3.21v1.5h-3.15v9.08h-1.78v-9.08h-1.2v-1.5h1.2v-.35c0-1.26.31-2.22.94-2.89.62-.67,1.53-1.01,2.71-1.01.4,0,.75.02,1.07.06.32.04.61.08.88.13v1.63Z"/>
            <path class="st0" d="M184.53,80.17h-7.79c0,.65.1,1.22.29,1.7.2.48.46.88.8,1.19.33.3.72.53,1.17.68s.95.23,1.49.23c.72,0,1.44-.14,2.17-.43.73-.29,1.25-.57,1.56-.85h.09v1.94c-.6.25-1.21.46-1.83.63-.62.17-1.28.26-1.97.26-1.75,0-3.12-.47-4.11-1.42-.98-.95-1.48-2.3-1.48-4.05s.47-3.1,1.42-4.12c.94-1.02,2.18-1.52,3.72-1.52,1.42,0,2.52.42,3.3,1.25.77.83,1.16,2.02,1.16,3.55v.96ZM182.79,78.81c0-.93-.24-1.66-.71-2.17-.46-.51-1.17-.77-2.11-.77s-1.71.28-2.28.84-.88,1.26-.96,2.09h6.06Z"/>
            <path class="st0" d="M194.77,82.22c0,.96-.4,1.76-1.2,2.38s-1.89.93-3.27.93c-.78,0-1.5-.09-2.15-.28-.65-.19-1.2-.39-1.64-.61v-2h.09c.56.42,1.19.76,1.87,1.01s1.35.37,1.98.37c.78,0,1.39-.13,1.84-.38.44-.25.66-.65.66-1.19,0-.42-.12-.73-.36-.95-.24-.21-.7-.4-1.38-.55-.25-.06-.58-.12-.99-.2-.41-.08-.78-.16-1.11-.25-.93-.25-1.58-.61-1.97-1.08-.39-.48-.58-1.06-.58-1.75,0-.44.09-.85.27-1.23s.45-.73.82-1.03c.35-.3.8-.53,1.35-.71.55-.17,1.16-.26,1.83-.26.63,0,1.27.08,1.92.23.65.15,1.18.34,1.61.56v1.9h-.09c-.45-.33-1.01-.62-1.66-.85s-1.29-.35-1.91-.35-1.2.12-1.65.37c-.45.25-.67.62-.67,1.11,0,.43.13.76.41.98.27.22.69.4,1.29.54.33.08.7.15,1.1.23.41.08.75.15,1.02.21.83.19,1.46.51,1.91.97.45.47.67,1.08.67,1.85Z"/>
            <path class="st0" d="M202.81,85.17c-.33.09-.7.16-1.09.22-.39.06-.75.08-1.05.08-1.08,0-1.9-.29-2.46-.87-.56-.58-.84-1.51-.84-2.79v-5.62h-1.2v-1.5h1.2v-3.04h1.78v3.04h3.67v1.5h-3.67v4.82c0,.55.01.99.04,1.3.02.31.11.6.26.88.14.25.33.44.57.55.24.12.61.17,1.11.17.29,0,.59-.04.91-.13.32-.09.54-.16.68-.21h.09v1.6Z"/>
            <path class="st0" d="M214,74.7l-6.17,14.47h-1.9l1.97-4.41-4.21-10.06h1.93l3.25,7.84,3.27-7.84h1.86Z"/>
            <path class="st0" d="M218.13,85.27h-1.78v-14.72h1.78v14.72Z"/>
            <path class="st0" d="M230.5,80.17h-7.79c0,.65.1,1.22.29,1.7.2.48.46.88.8,1.19.33.3.72.53,1.17.68s.95.23,1.49.23c.72,0,1.44-.14,2.17-.43.73-.29,1.25-.57,1.56-.85h.09v1.94c-.6.25-1.21.46-1.83.63-.62.17-1.28.26-1.97.26-1.75,0-3.12-.47-4.11-1.42-.98-.95-1.48-2.3-1.48-4.05s.47-3.1,1.42-4.12c.94-1.02,2.18-1.52,3.72-1.52,1.42,0,2.52.42,3.3,1.25.77.83,1.16,2.02,1.16,3.55v.96ZM228.76,78.81c0-.93-.24-1.66-.71-2.17-.46-.51-1.17-.77-2.11-.77s-1.71.28-2.28.84-.88,1.26-.96,2.09h6.06Z"/>
            <path class="st0" d="M250.78,80.94c0,.7-.13,1.32-.4,1.85-.26.54-.62.98-1.07,1.33-.53.42-1.11.71-1.75.89-.63.18-1.44.26-2.42.26h-5v-14.09h4.17c1.03,0,1.8.04,2.31.11.51.08,1,.23,1.47.47.52.27.89.62,1.12,1.05.23.43.35.94.35,1.53,0,.67-.17,1.24-.51,1.71-.34.47-.79.85-1.36,1.13v.08c.95.2,1.7.61,2.25,1.25.55.64.82,1.45.82,2.43ZM247.62,74.59c0-.34-.06-.63-.17-.86s-.3-.42-.55-.57c-.3-.17-.66-.28-1.08-.32-.42-.04-.95-.06-1.57-.06h-2.23v4.07h2.42c.59,0,1.05-.03,1.4-.09s.67-.18.97-.37c.29-.19.51-.43.63-.73s.18-.65.18-1.06ZM248.83,81.01c0-.57-.09-1.02-.26-1.35s-.48-.62-.93-.85c-.3-.16-.67-.26-1.1-.31-.43-.05-.96-.07-1.58-.07h-2.94v5.24h2.48c.82,0,1.49-.04,2.01-.13.52-.09.95-.24,1.29-.47.35-.25.61-.53.78-.84s.25-.72.25-1.22Z"/>
            <path class="st0" d="M259.89,76.64h-.09c-.27-.06-.52-.11-.77-.14s-.54-.04-.88-.04c-.55,0-1.08.12-1.59.36-.51.24-1,.56-1.48.94v7.5h-1.78v-10.57h1.78v1.56c.71-.57,1.33-.97,1.87-1.21.54-.24,1.09-.36,1.65-.36.31,0,.53,0,.67.02.14.02.35.05.62.09v1.83Z"/>
            <path class="st0" d="M269.44,85.27h-1.77v-1.13c-.16.11-.37.26-.64.45-.27.19-.53.35-.78.46-.3.15-.64.27-1.02.36-.39.1-.84.15-1.35.15-.95,0-1.76-.32-2.42-.95-.66-.63-.99-1.43-.99-2.41,0-.8.17-1.45.52-1.94s.83-.88,1.47-1.17c.64-.28,1.42-.48,2.32-.58.9-.1,1.87-.18,2.91-.23v-.27c0-.4-.07-.74-.21-1-.14-.27-.35-.47-.61-.62-.25-.14-.56-.24-.91-.29-.35-.05-.72-.08-1.11-.08-.47,0-.99.06-1.56.18-.57.12-1.17.3-1.78.54h-.09v-1.81c.35-.09.85-.2,1.5-.31s1.3-.17,1.94-.17c.74,0,1.39.06,1.95.18.55.12,1.03.33,1.43.63.4.29.7.67.91,1.13.21.46.31,1.03.31,1.71v7.17ZM267.67,82.67v-2.94c-.54.03-1.18.08-1.92.14-.73.06-1.32.15-1.75.27-.51.15-.92.37-1.24.68s-.47.73-.47,1.26c0,.61.18,1.06.55,1.37.37.31.92.46,1.67.46.62,0,1.2-.12,1.71-.36.52-.24,1-.54,1.44-.88Z"/>
            <path class="st0" d="M281.7,85.27h-1.78v-6.02c0-.49-.03-.94-.08-1.37s-.16-.76-.31-1c-.16-.27-.38-.46-.68-.59-.3-.13-.68-.19-1.15-.19s-.99.12-1.52.36c-.53.24-1.04.54-1.52.92v7.89h-1.78v-10.57h1.78v1.17c.56-.46,1.13-.82,1.72-1.08s1.2-.39,1.83-.39c1.14,0,2.01.34,2.61,1.03.6.69.9,1.68.9,2.97v6.86Z"/>
            <path class="st0" d="M293.7,85.27h-1.78v-1.11c-.51.44-1.04.79-1.6,1.03-.55.25-1.16.37-1.81.37-1.26,0-2.26-.49-3-1.46s-1.11-2.32-1.11-4.04c0-.9.13-1.69.38-2.39s.6-1.3,1.04-1.79c.43-.48.93-.85,1.5-1.1.57-.25,1.16-.38,1.77-.38.55,0,1.05.06,1.48.17.43.12.88.3,1.35.54v-4.58h1.78v14.72ZM291.92,82.67v-6.07c-.48-.21-.91-.36-1.29-.44-.38-.08-.79-.12-1.24-.12-1,0-1.77.35-2.33,1.04-.55.69-.83,1.68-.83,2.95s.21,2.21.64,2.86c.43.65,1.12.98,2.06.98.5,0,1.02-.11,1.53-.34.52-.22,1-.51,1.45-.87Z"/>
          </g>
        </g>
      </g>
    </g>
  </g>
  <g class="st3">
    <g class="st3">
      <g class="st3">
        <g class="st3">
          <g class="st3">
            <path class="st4" d="M16.32,100.81c0,.95-.21,1.81-.62,2.58-.41.77-.96,1.37-1.65,1.79-.48.29-1.01.51-1.59.64-.59.13-1.36.2-2.31.2h-2.63v-10.42h2.6c1.02,0,1.82.07,2.42.22s1.11.35,1.52.61c.71.44,1.26,1.03,1.66,1.77.4.74.59,1.61.59,2.62ZM14.87,100.79c0-.82-.14-1.5-.43-2.06-.28-.56-.71-1-1.27-1.32-.41-.23-.85-.4-1.31-.49s-1.01-.14-1.66-.14h-1.3v8.04h1.3c.67,0,1.25-.05,1.75-.15.5-.1.95-.28,1.37-.54.52-.33.91-.77,1.17-1.31.26-.54.39-1.22.39-2.03Z"/>
            <path class="st4" d="M25.29,102.24h-5.76c0,.48.07.9.22,1.26.14.36.34.65.59.88.24.22.53.39.86.5.33.11.7.17,1.1.17.53,0,1.07-.11,1.61-.32.54-.21.92-.42,1.15-.63h.07v1.43c-.44.19-.9.34-1.36.47-.46.13-.95.19-1.46.19-1.3,0-2.31-.35-3.04-1.05-.73-.7-1.09-1.7-1.09-2.99s.35-2.29,1.05-3.04,1.62-1.13,2.75-1.13c1.05,0,1.87.31,2.44.92.57.62.86,1.49.86,2.62v.71ZM24,101.23c0-.69-.18-1.22-.52-1.6-.34-.38-.86-.57-1.56-.57s-1.27.21-1.68.62c-.42.42-.65.93-.71,1.55h4.48Z"/>
            <path class="st4" d="M33.15,103.76c0,.71-.29,1.3-.88,1.76-.59.46-1.4.69-2.42.69-.58,0-1.11-.07-1.59-.21-.48-.14-.89-.29-1.21-.45v-1.48h.07c.42.31.88.56,1.39.75.51.18,1,.28,1.46.28.58,0,1.03-.09,1.36-.28s.49-.48.49-.88c0-.31-.09-.54-.27-.7-.18-.16-.52-.29-1.02-.41-.19-.04-.43-.09-.73-.15-.3-.06-.58-.12-.82-.18-.69-.18-1.17-.45-1.46-.8-.29-.35-.43-.79-.43-1.3,0-.32.07-.63.2-.91.13-.28.33-.54.61-.76.26-.22.59-.39,1-.52.4-.13.85-.19,1.35-.19.47,0,.94.06,1.42.17.48.11.88.25,1.19.42v1.41h-.07c-.34-.25-.74-.46-1.22-.63s-.95-.26-1.41-.26-.89.09-1.22.28c-.33.18-.5.46-.5.82,0,.32.1.56.3.73.2.16.51.3.95.4.24.06.51.11.82.17s.55.11.75.15c.61.14,1.08.38,1.41.72.33.34.5.8.5,1.37Z"/>
            <path class="st4" d="M36.73,96.89h-1.48v-1.36h1.48v1.36ZM36.65,106.01h-1.32v-7.82h1.32v7.82Z"/>
            <path class="st4" d="M45.88,105.12c0,1.33-.3,2.3-.9,2.92-.6.62-1.53.93-2.78.93-.42,0-.82-.03-1.21-.09s-.78-.14-1.17-.25v-1.34h.07c.21.08.55.19,1.02.31.47.12.93.19,1.4.19s.82-.05,1.11-.16.52-.26.69-.45c.16-.18.28-.4.35-.66s.1-.54.1-.86v-.71c-.4.32-.78.55-1.14.71-.36.16-.82.23-1.38.23-.93,0-1.67-.34-2.22-1.01-.55-.67-.82-1.62-.82-2.85,0-.67.09-1.25.28-1.74s.45-.91.77-1.26c.3-.33.67-.59,1.11-.77.43-.18.87-.28,1.29-.28.45,0,.83.04,1.14.14s.63.23.97.42l.08-.34h1.23v6.93ZM44.56,103.86v-4.26c-.35-.16-.68-.27-.98-.34-.3-.07-.6-.1-.9-.1-.72,0-1.29.24-1.71.73-.42.48-.62,1.19-.62,2.11s.15,1.54.46,1.99c.31.45.82.68,1.53.68.38,0,.77-.07,1.15-.22.38-.15.74-.34,1.06-.59Z"/>
            <path class="st4" d="M55.29,106.01h-1.32v-4.45c0-.36-.02-.7-.06-1.01-.04-.32-.12-.56-.23-.74-.12-.2-.28-.34-.5-.44-.22-.1-.5-.14-.85-.14s-.73.09-1.13.27c-.39.18-.77.4-1.13.68v5.84h-1.32v-7.82h1.32v.87c.41-.34.83-.61,1.27-.8.44-.19.89-.29,1.35-.29.84,0,1.49.25,1.93.76.44.51.66,1.24.66,2.2v5.07Z"/>
            <path class="st4" d="M68.66,101.38c0,.72-.26,1.33-.77,1.84s-1.13.77-1.85.77-1.33-.25-1.84-.77-.77-1.13-.77-1.84.26-1.33.77-1.84,1.13-.77,1.84-.77,1.33.26,1.85.77.77,1.12.77,1.84Z"/>
            <path class="st4" d="M86.25,108.56c-.28.07-.56.12-.83.15s-.55.05-.84.05c-.81,0-1.46-.22-1.96-.67-.49-.45-.76-1.08-.8-1.91-.11.02-.22.03-.33.04-.1,0-.21.01-.3.01-.73,0-1.4-.12-2-.36-.6-.24-1.11-.59-1.53-1.06-.42-.46-.74-1.03-.97-1.7-.23-.67-.34-1.44-.34-2.3s.11-1.61.34-2.28c.22-.67.55-1.25.98-1.73.41-.46.92-.81,1.53-1.05.61-.24,1.27-.36,1.99-.36s1.42.12,2.01.37c.59.25,1.1.59,1.51,1.05.42.47.75,1.04.98,1.71.23.68.34,1.44.34,2.3,0,1.27-.26,2.35-.78,3.22-.52.87-1.22,1.48-2.1,1.83.02.53.14.95.38,1.24.23.29.66.44,1.27.44.19,0,.42-.03.68-.09.26-.06.45-.11.56-.16h.19v1.27ZM84.6,100.8c0-1.35-.3-2.4-.91-3.13s-1.43-1.1-2.48-1.1-1.89.37-2.49,1.1c-.6.73-.91,1.78-.91,3.13s.31,2.41.92,3.14c.62.73,1.44,1.09,2.48,1.09s1.86-.36,2.47-1.09.92-1.77.92-3.14Z"/>
            <path class="st4" d="M94.9,106.01h-1.32v-.87c-.44.35-.87.62-1.27.8-.41.19-.85.28-1.34.28-.82,0-1.46-.25-1.92-.75-.46-.5-.69-1.24-.69-2.21v-5.07h1.32v4.45c0,.4.02.74.06,1.02s.12.52.24.72c.13.21.29.35.49.45.2.09.49.14.88.14.34,0,.71-.09,1.12-.27.4-.18.78-.4,1.13-.68v-5.83h1.32v7.82Z"/>
            <path class="st4" d="M103.85,106.01h-1.31v-.83c-.12.08-.27.19-.47.33-.2.14-.39.25-.58.34-.22.11-.47.2-.76.27-.28.07-.62.11-1,.11-.7,0-1.3-.23-1.79-.7-.49-.47-.73-1.06-.73-1.78,0-.59.13-1.07.38-1.44s.62-.65,1.09-.86c.48-.21,1.05-.35,1.71-.43.67-.07,1.38-.13,2.15-.17v-.2c0-.3-.05-.54-.16-.74s-.26-.35-.45-.46c-.19-.11-.41-.18-.67-.22s-.53-.06-.82-.06c-.35,0-.73.04-1.15.14-.42.09-.86.22-1.32.4h-.07v-1.34c.26-.07.63-.15,1.11-.23.49-.08.96-.13,1.43-.13.55,0,1.03.05,1.44.14s.76.25,1.06.46c.29.21.52.49.67.83.15.34.23.76.23,1.27v5.3ZM102.54,104.09v-2.18c-.4.02-.87.06-1.42.11s-.97.11-1.29.2c-.38.11-.68.27-.92.5-.23.23-.35.54-.35.93,0,.45.14.79.41,1.01.27.23.68.34,1.24.34.46,0,.88-.09,1.27-.27.38-.18.74-.39,1.06-.65Z"/>
            <path class="st4" d="M108,106.01h-1.32v-10.89h1.32v10.89Z"/>
            <path class="st4" d="M112.3,96.89h-1.48v-1.36h1.48v1.36ZM112.22,106.01h-1.32v-7.82h1.32v7.82Z"/>
            <path class="st4" d="M119.17,105.94c-.25.07-.52.12-.81.16s-.55.06-.78.06c-.8,0-1.4-.21-1.82-.64-.42-.43-.62-1.12-.62-2.06v-4.16h-.89v-1.11h.89v-2.25h1.32v2.25h2.71v1.11h-2.71v3.56c0,.41,0,.73.03.96.02.23.08.45.2.65.1.19.24.32.42.41s.45.13.82.13c.21,0,.44-.03.67-.09.23-.06.4-.12.5-.16h.07v1.18Z"/>
            <path class="st4" d="M127.73,98.19l-4.56,10.7h-1.41l1.46-3.26-3.11-7.44h1.43l2.4,5.79,2.42-5.79h1.38Z"/>
            <path class="st4" d="M140.29,101.38c0,.72-.26,1.33-.77,1.84s-1.13.77-1.85.77-1.33-.25-1.84-.77-.77-1.13-.77-1.84.26-1.33.77-1.84,1.13-.77,1.84-.77,1.33.26,1.85.77.77,1.12.77,1.84Z"/>
            <path class="st4" d="M155.46,106.01h-6.86v-10.42h6.86v1.23h-5.48v2.86h5.48v1.23h-5.48v3.87h5.48v1.23Z"/>
            <path class="st4" d="M164.6,98.19l-3.16,7.82h-1.32l-3.14-7.82h1.43l2.42,6.22,2.4-6.22h1.38Z"/>
            <path class="st4" d="M173.02,102.24h-5.76c0,.48.07.9.22,1.26.14.36.34.65.59.88.24.22.53.39.86.5.33.11.7.17,1.1.17.53,0,1.07-.11,1.61-.32.54-.21.92-.42,1.15-.63h.07v1.43c-.44.19-.9.34-1.36.47s-.95.19-1.46.19c-1.3,0-2.31-.35-3.04-1.05s-1.09-1.7-1.09-2.99.35-2.29,1.05-3.04,1.62-1.13,2.75-1.13c1.05,0,1.87.31,2.44.92.57.62.86,1.49.86,2.62v.71ZM171.74,101.23c0-.69-.18-1.22-.52-1.6-.34-.38-.86-.57-1.56-.57s-1.27.21-1.68.62c-.42.42-.65.93-.71,1.55h4.48Z"/>
            <path class="st4" d="M180.18,99.63h-.07c-.2-.05-.39-.08-.57-.1-.18-.02-.4-.03-.65-.03-.41,0-.8.09-1.17.27-.38.18-.74.41-1.09.7v5.55h-1.32v-7.82h1.32v1.15c.52-.42.98-.72,1.38-.89.4-.17.81-.26,1.22-.26.23,0,.39,0,.5.02s.26.03.46.07v1.35Z"/>
            <path class="st4" d="M188.46,98.19l-4.56,10.7h-1.41l1.46-3.26-3.11-7.44h1.43l2.4,5.79,2.42-5.79h1.38Z"/>
            <path class="st4" d="M196.74,106.01h-1.32v-.82c-.38.33-.77.58-1.18.76-.41.18-.86.27-1.34.27-.93,0-1.67-.36-2.22-1.08-.55-.72-.82-1.71-.82-2.99,0-.66.09-1.25.28-1.77.19-.52.44-.96.77-1.32.32-.35.69-.62,1.11-.81s.86-.28,1.31-.28c.41,0,.77.04,1.09.13.32.09.65.22,1,.4v-3.39h1.32v10.89ZM195.43,104.09v-4.49c-.35-.16-.67-.27-.95-.33-.28-.06-.58-.09-.92-.09-.74,0-1.31.26-1.72.77-.41.51-.62,1.24-.62,2.18s.16,1.63.48,2.12.83.72,1.53.72c.37,0,.75-.08,1.13-.25.38-.17.74-.38,1.07-.64Z"/>
            <path class="st4" d="M205.69,106.01h-1.31v-.83c-.12.08-.27.19-.47.33-.2.14-.39.25-.58.34-.22.11-.47.2-.76.27-.28.07-.62.11-1,.11-.71,0-1.3-.23-1.79-.7-.49-.47-.73-1.06-.73-1.78,0-.59.13-1.07.38-1.44.25-.37.62-.65,1.09-.86.48-.21,1.05-.35,1.71-.43.67-.07,1.38-.13,2.15-.17v-.2c0-.3-.05-.54-.16-.74-.11-.2-.26-.35-.45-.46-.19-.11-.41-.18-.67-.22-.26-.04-.53-.06-.82-.06-.34,0-.73.04-1.15.14s-.86.22-1.32.4h-.07v-1.34c.26-.07.63-.15,1.11-.23.48-.08.96-.13,1.43-.13.55,0,1.03.05,1.44.14s.76.25,1.06.46c.29.21.52.49.67.83.15.34.23.76.23,1.27v5.3ZM204.38,104.09v-2.18c-.4.02-.87.06-1.42.11-.54.05-.97.11-1.29.2-.38.11-.68.27-.92.5-.23.23-.35.54-.35.93,0,.45.14.79.41,1.01.27.23.68.34,1.24.34.46,0,.88-.09,1.27-.27.38-.18.74-.39,1.06-.65Z"/>
            <path class="st4" d="M215.16,98.19l-4.56,10.7h-1.41l1.46-3.26-3.11-7.44h1.43l2.4,5.79,2.42-5.79h1.38Z"/>
            <path class="st4" d="M229.46,106.01h-6.86v-10.42h6.86v1.23h-5.48v2.86h5.48v1.23h-5.48v3.87h5.48v1.23Z"/>
            <path class="st4" d="M237.42,103.76c0,.71-.29,1.3-.88,1.76-.59.46-1.4.69-2.42.69-.58,0-1.11-.07-1.59-.21-.48-.14-.89-.29-1.21-.45v-1.48h.07c.42.31.88.56,1.38.75.51.18,1,.28,1.46.28.58,0,1.03-.09,1.36-.28s.49-.48.49-.88c0-.31-.09-.54-.27-.7-.18-.16-.52-.29-1.02-.41-.19-.04-.43-.09-.73-.15-.3-.06-.57-.12-.82-.18-.69-.18-1.17-.45-1.46-.8-.29-.35-.43-.79-.43-1.3,0-.32.07-.63.2-.91s.33-.54.61-.76c.26-.22.59-.39,1-.52.4-.13.85-.19,1.35-.19.47,0,.94.06,1.42.17.48.11.88.25,1.19.42v1.41h-.07c-.34-.25-.74-.46-1.22-.63s-.95-.26-1.41-.26-.89.09-1.22.28c-.33.18-.5.46-.5.82,0,.32.1.56.3.73.2.16.51.3.95.4.24.06.51.11.82.17s.55.11.75.15c.61.14,1.08.38,1.41.72.33.34.5.8.5,1.37Z"/>
            <path class="st4" d="M245.17,103.76c0,.71-.29,1.3-.88,1.76-.59.46-1.4.69-2.42.69-.58,0-1.11-.07-1.59-.21-.48-.14-.89-.29-1.21-.45v-1.48h.07c.42.31.88.56,1.38.75.51.18,1,.28,1.46.28.58,0,1.03-.09,1.36-.28s.49-.48.49-.88c0-.31-.09-.54-.27-.7-.18-.16-.52-.29-1.02-.41-.19-.04-.43-.09-.73-.15-.3-.06-.57-.12-.82-.18-.69-.18-1.17-.45-1.46-.8-.29-.35-.43-.79-.43-1.3,0-.32.07-.63.2-.91s.33-.54.61-.76c.26-.22.59-.39,1-.52.4-.13.85-.19,1.35-.19.47,0,.94.06,1.42.17.48.11.88.25,1.19.42v1.41h-.07c-.34-.25-.74-.46-1.22-.63s-.95-.26-1.41-.26-.89.09-1.22.28c-.33.18-.5.46-.5.82,0,.32.1.56.3.73.2.16.51.3.95.4.24.06.51.11.82.17s.55.11.75.15c.61.14,1.08.38,1.41.72.33.34.5.8.5,1.37Z"/>
            <path class="st4" d="M253.88,102.24h-5.76c0,.48.07.9.22,1.26.14.36.34.65.59.88.24.22.53.39.86.5.33.11.7.17,1.1.17.53,0,1.07-.11,1.61-.32.54-.21.92-.42,1.15-.63h.07v1.43c-.44.19-.9.34-1.36.47s-.95.19-1.46.19c-1.3,0-2.31-.35-3.04-1.05s-1.09-1.7-1.09-2.99.35-2.29,1.05-3.04,1.62-1.13,2.75-1.13c1.05,0,1.87.31,2.44.92.57.62.86,1.49.86,2.62v.71ZM252.6,101.23c0-.69-.18-1.22-.52-1.6-.34-.38-.86-.57-1.56-.57s-1.26.21-1.68.62c-.42.42-.65.93-.71,1.55h4.48Z"/>
            <path class="st4" d="M262.7,106.01h-1.32v-4.45c0-.36-.02-.7-.06-1.01-.04-.32-.12-.56-.23-.74-.12-.2-.29-.34-.5-.44-.22-.1-.5-.14-.85-.14s-.74.09-1.13.27c-.39.18-.77.4-1.13.68v5.84h-1.32v-7.82h1.32v.87c.41-.34.83-.61,1.27-.8.44-.19.89-.29,1.35-.29.84,0,1.49.25,1.93.76.44.51.67,1.24.67,2.2v5.07Z"/>
            <path class="st4" d="M269.58,105.94c-.25.07-.52.12-.81.16-.29.04-.55.06-.78.06-.8,0-1.4-.21-1.82-.64-.42-.43-.62-1.12-.62-2.06v-4.16h-.89v-1.11h.89v-2.25h1.32v2.25h2.71v1.11h-2.71v3.56c0,.41,0,.73.03.96.02.23.08.45.2.65.1.19.24.32.42.41s.45.13.82.13c.21,0,.44-.03.67-.09.23-.06.4-.12.5-.16h.07v1.18Z"/>
            <path class="st4" d="M272.87,96.89h-1.48v-1.36h1.48v1.36ZM272.78,106.01h-1.32v-7.82h1.32v7.82Z"/>
            <path class="st4" d="M281.75,106.01h-1.31v-.83c-.12.08-.27.19-.47.33-.2.14-.39.25-.58.34-.22.11-.47.2-.76.27-.28.07-.62.11-1,.11-.71,0-1.3-.23-1.79-.7-.49-.47-.73-1.06-.73-1.78,0-.59.13-1.07.38-1.44.25-.37.62-.65,1.09-.86.48-.21,1.05-.35,1.71-.43.67-.07,1.38-.13,2.15-.17v-.2c0-.3-.05-.54-.16-.74-.11-.2-.26-.35-.45-.46-.19-.11-.41-.18-.67-.22-.26-.04-.53-.06-.82-.06-.34,0-.73.04-1.15.14s-.86.22-1.32.4h-.07v-1.34c.26-.07.63-.15,1.11-.23.48-.08.96-.13,1.43-.13.55,0,1.03.05,1.44.14s.76.25,1.06.46c.29.21.52.49.67.83.15.34.23.76.23,1.27v5.3ZM280.44,104.09v-2.18c-.4.02-.87.06-1.42.11-.54.05-.97.11-1.29.2-.38.11-.68.27-.92.5-.23.23-.35.54-.35.93,0,.45.14.79.41,1.01.27.23.68.34,1.24.34.46,0,.88-.09,1.27-.27.38-.18.74-.39,1.06-.65Z"/>
            <path class="st4" d="M285.89,106.01h-1.32v-10.89h1.32v10.89Z"/>
            <path class="st4" d="M294.37,103.76c0,.71-.29,1.3-.88,1.76-.59.46-1.4.69-2.42.69-.58,0-1.11-.07-1.59-.21-.48-.14-.89-.29-1.21-.45v-1.48h.07c.42.31.88.56,1.38.75.51.18,1,.28,1.46.28.58,0,1.03-.09,1.36-.28s.49-.48.49-.88c0-.31-.09-.54-.27-.7-.18-.16-.52-.29-1.02-.41-.19-.04-.43-.09-.73-.15-.3-.06-.57-.12-.82-.18-.69-.18-1.17-.45-1.46-.8-.29-.35-.43-.79-.43-1.3,0-.32.07-.63.2-.91s.33-.54.61-.76c.26-.22.59-.39,1-.52.4-.13.85-.19,1.35-.19.47,0,.94.06,1.42.17.48.11.88.25,1.19.42v1.41h-.07c-.34-.25-.74-.46-1.22-.63s-.95-.26-1.41-.26-.89.09-1.22.28c-.33.18-.5.46-.5.82,0,.32.1.56.3.73.2.16.51.3.95.4.24.06.51.11.82.17s.55.11.75.15c.61.14,1.08.38,1.41.72.33.34.5.8.5,1.37Z"/>
          </g>
        </g>
      </g>
    </g>
  </g>
  <rect class="st2" x="59.31" y="-4.74" width="242.31" height="86.72"/>
  <g>
    <path class="st1" d="M99.14,28.62l-15.24,15.86h15.84v13.41h-35.97v-13.41l15.24-15.86h-14.03v-13.41h34.16v13.41Z"/>
    <path class="st1" d="M136.63,15.22s.18.67.54,1.89c.37,1.23.85,2.85,1.43,4.88.6,2.03,1.26,4.31,1.99,6.83.73,2.51,1.49,5.12,2.29,7.83.8,2.7,1.56,5.31,2.31,7.83.76,2.53,1.42,4.79,2.01,6.8.6,2.01,1.07,3.62,1.41,4.82s.52,1.79.52,1.79h-17.7l-1.22-6.1h-7.93l-1.22,6.1h-17.68l12.49-42.68h20.76ZM124.14,42.04h4.26l-2.13-10.96-2.13,10.96Z"/>
    <path class="st1" d="M169.25,15.21v14.63h9.76v-14.63h15.84v42.68h-15.84v-14.63h-9.76v14.63h-15.84V15.21h15.84Z"/>
    <path class="st1" d="M232.36,15.22s.18.67.54,1.89c.37,1.23.85,2.85,1.43,4.88.6,2.03,1.26,4.31,1.99,6.83.73,2.51,1.49,5.12,2.29,7.83.8,2.7,1.56,5.31,2.31,7.83.76,2.53,1.42,4.79,2.01,6.8.6,2.01,1.07,3.62,1.41,4.82s.52,1.79.52,1.79h-17.7l-1.22-6.1h-7.93l-1.22,6.1h-17.68l12.49-42.68h20.76ZM219.87,42.04h4.26l-2.13-10.96-2.13,10.96h0Z"/>
    <path class="st1" d="M275.35,57.89l-10.36-18.91v18.91h-15.84V15.21h17.68l10.36,18.91V15.21h15.86v42.68h-17.7,0Z"/>
  </g>
  <g>
    <path class="st1" d="M35.77,58.6V14.2h8.78c2.11,0,5.06,2.87,5.04,5.08l-.03,35.03c-1.39,6.39-9.02,4.21-13.78,4.29h-.01Z"/>
    <path class="st1" d="M7.59,58.81c-2.14-.29-5.22-2.72-4.45-5.07,3.48-3.13,6.74-6.48,10.13-9.7,4.4-4.18,9-8.21,13.33-12.48,2.22-2.19,4.18-4.67,6.6-6.62l-.2,33.87H7.59Z"/>
    <path class="st1" d="M33.09,14.2l.21,8.67c-5.52.4-9.14-.65-13.63,3.2-3.38,2.89-6.63,6.45-9.91,9.5-2.3,2.14-4.67,4.22-7.02,6.3v-23.02c0-1.93,3.16-4.65,5.06-4.65h25.3,0Z"/>
  </g>
</svg>