<?xml version="1.0" encoding="UTF-8"?>
<svg id="Layer_1" xmlns="http://www.w3.org/2000/svg" version="1.1" xmlns:xlink="http://www.w3.org/1999/xlink" viewBox="0 0 300 110">
  <!-- Generator: Adobe Illustrator 29.6.1, SVG Export Plug-In . SVG Version: 2.1.1 Build 9)  -->
  <defs>
    <style>
      .st0 {
        fill: #56aebf;
      }

      .st1 {
        fill: none;
      }

      .st2, .st3, .st4 {
        isolation: isolate;
      }

      .st3 {
        fill: #d1d5db;
        font-size: 19.38px;
      }

      .st3, .st4 {
        font-family: MSReferenceSansSerif, 'MS Reference Sans Serif';
      }

      .st5 {
        display: none;
      }

      .st4 {
        fill: #66676d;
        font-size: 14.33px;
        letter-spacing: .02em;
      }

      .st6 {
        clip-path: url(#clippath);
      }
    </style>
    <clipPath id="clippath">
      <rect class="st1" x="59.31" y="-4.74" width="242.31" height="86.72"/>
    </clipPath>
  </defs>
  <g id="Layer_2" class="st5">
    <rect x="1.07" y=".99" width="298.93" height="109.01"/>
  </g>
  <g class="st2">
    <g class="st2">
      <g class="st2">
        <text class="st3" transform="translate(57.41 85.27)"><tspan x="0" y="0">Premium Lifestyle Brand</tspan></text>
      </g>
    </g>
  </g>
  <g class="st2">
    <g class="st2">
      <g class="st2">
        <text class="st4" transform="translate(6.12 106.01)"><tspan x="0" y="0">Design • Quality • Everyday Essentials</tspan></text>
      </g>
    </g>
  </g>
  <g class="st6">
    <g>
      <path class="st0" d="M99.14,28.62l-15.24,15.86h15.84v13.41h-35.97v-13.41l15.24-15.86h-14.03v-13.41h34.16v13.41Z"/>
      <path class="st0" d="M136.63,15.22s.18.67.54,1.89c.37,1.23.85,2.85,1.43,4.88.6,2.03,1.26,4.31,1.99,6.83.73,2.51,1.49,5.12,2.29,7.83.8,2.7,1.56,5.31,2.31,7.83.76,2.53,1.42,4.79,2.01,6.8.6,2.01,1.07,3.62,1.41,4.82s.52,1.79.52,1.79h-17.7l-1.22-6.1h-7.93l-1.22,6.1h-17.68l12.49-42.68h20.76ZM124.14,42.04h4.26l-2.13-10.96-2.13,10.96Z"/>
      <path class="st0" d="M169.25,15.21v14.63h9.76v-14.63h15.84v42.68h-15.84v-14.63h-9.76v14.63h-15.84V15.21h15.84Z"/>
      <path class="st0" d="M232.36,15.22s.18.67.54,1.89c.37,1.23.85,2.85,1.43,4.88.6,2.03,1.26,4.31,1.99,6.83.73,2.51,1.49,5.12,2.29,7.83.8,2.7,1.56,5.31,2.31,7.83.76,2.53,1.42,4.79,2.01,6.8.6,2.01,1.07,3.62,1.41,4.82s.52,1.79.52,1.79h-17.7l-1.22-6.1h-7.93l-1.22,6.1h-17.68l12.49-42.68h20.76ZM219.87,42.04h4.26l-2.13-10.96-2.13,10.96h0Z"/>
      <path class="st0" d="M275.35,57.89l-10.36-18.91v18.91h-15.84V15.21h17.68l10.36,18.91V15.21h15.86v42.68h-17.7,0Z"/>
    </g>
  </g>
  <g>
    <path class="st0" d="M35.77,58.6V14.2h8.78c2.11,0,5.06,2.87,5.04,5.08l-.03,35.03c-1.39,6.39-9.02,4.21-13.78,4.29Z"/>
    <path class="st0" d="M7.59,58.81c-2.14-.29-5.22-2.72-4.45-5.07,3.48-3.13,6.74-6.48,10.13-9.7,4.4-4.18,9-8.21,13.33-12.48,2.22-2.19,4.18-4.67,6.6-6.62l-.2,33.87H7.59Z"/>
    <path class="st0" d="M33.09,14.2l.21,8.67c-5.52.4-9.14-.65-13.63,3.2-3.38,2.89-6.63,6.45-9.91,9.5-2.3,2.14-4.67,4.22-7.02,6.3v-23.02c0-1.93,3.16-4.65,5.06-4.65h25.3Z"/>
  </g>
</svg>