<?xml version="1.0" encoding="UTF-8"?>
<svg id="Layer_1" xmlns="http://www.w3.org/2000/svg" version="1.1" xmlns:xlink="http://www.w3.org/1999/xlink" viewBox="0 0 300 110">
  <!-- Generator: Adobe Illustrator 29.6.1, SVG Export Plug-In . SVG Version: 2.1.1 Build 9)  -->
  <defs>
    <style>
      .st0 {
        clip-path: url(#clippath-21);
      }

      .st1 {
        clip-path: url(#clippath-6);
      }

      .st2 {
        clip-path: url(#clippath-7);
      }

      .st3 {
        clip-path: url(#clippath-17);
      }

      .st4 {
        clip-path: url(#clippath-15);
      }

      .st5 {
        clip-path: url(#clippath-18);
      }

      .st6 {
        clip-path: url(#clippath-4);
      }

      .st7 {
        clip-path: url(#clippath-9);
      }

      .st8 {
        clip-path: url(#clippath-10);
      }

      .st9 {
        fill: #fff;
      }

      .st10 {
        fill: #66676d;
        font-size: 14.33px;
        letter-spacing: .02em;
      }

      .st10, .st11 {
        font-family: MSReferenceSansSerif, 'MS Reference Sans Serif';
      }

      .st12 {
        clip-path: url(#clippath-11);
      }

      .st13 {
        fill: none;
      }

      .st14 {
        clip-path: url(#clippath-1);
      }

      .st15 {
        clip-path: url(#clippath-5);
      }

      .st16 {
        clip-path: url(#clippath-20);
      }

      .st17 {
        clip-path: url(#clippath-8);
      }

      .st18 {
        clip-path: url(#clippath-3);
      }

      .st19 {
        clip-path: url(#clippath-12);
      }

      .st20 {
        clip-path: url(#clippath-14);
      }

      .st21 {
        clip-path: url(#clippath-19);
      }

      .st11 {
        fill: #d1d5db;
        font-size: 19.38px;
        letter-spacing: 0em;
      }

      .st22 {
        clip-path: url(#clippath-16);
      }

      .st23 {
        clip-path: url(#clippath-2);
      }

      .st24 {
        clip-path: url(#clippath-13);
      }

      .st25 {
        clip-path: url(#clippath);
      }
    </style>
    <clipPath id="clippath">
      <rect class="st13" x="1.07" y=".99" width="56.34" height="66.91"/>
    </clipPath>
    <clipPath id="clippath-1">
      <rect class="st13" x="12.51" y="4.51" width="33.45" height="33.45"/>
    </clipPath>
    <clipPath id="clippath-2">
      <rect class="st13" x="6.02" y="16.51" width="46.52" height="8.96" transform="translate(-6.27 26.85) rotate(-45)"/>
    </clipPath>
    <clipPath id="clippath-3">
      <polygon class="st13" points="26.1 17.84 45.71 4.57 32.44 24.18 12.83 37.44 26.1 17.84"/>
    </clipPath>
    <clipPath id="clippath-4">
      <rect class="st13" x="12.51" y="4.51" width="33.45" height="33.45"/>
    </clipPath>
    <clipPath id="clippath-5">
      <rect class="st13" x="12.69" y="4.51" width="33.17" height="33.07"/>
    </clipPath>
    <clipPath id="clippath-6">
      <rect class="st13" x="6.02" y="16.51" width="46.52" height="8.96" transform="translate(-6.27 26.85) rotate(-45)"/>
    </clipPath>
    <clipPath id="clippath-7">
      <polygon class="st13" points="26.1 17.84 45.71 4.57 32.44 24.18 12.83 37.44 26.1 17.84"/>
    </clipPath>
    <clipPath id="clippath-8">
      <rect class="st13" x="2.83" y="11.55" width="51.94" height="51.06"/>
    </clipPath>
    <clipPath id="clippath-9">
      <rect class="st13" x="-6.91" y="33.48" width="71.47" height="7.05" transform="translate(-17.73 31.22) rotate(-45)"/>
    </clipPath>
    <clipPath id="clippath-10">
      <polygon class="st13" points="26.33 34.52 54.08 11.75 31.31 39.5 3.56 62.27 26.33 34.52"/>
    </clipPath>
    <clipPath id="clippath-11">
      <rect class="st13" x="2.83" y="11.55" width="51.94" height="51.06"/>
    </clipPath>
    <clipPath id="clippath-12">
      <rect class="st13" x="3.39" y="11.59" width="50.71" height="50.71"/>
    </clipPath>
    <clipPath id="clippath-13">
      <rect class="st13" x="-6.91" y="33.48" width="71.47" height="7.05" transform="translate(-17.73 31.22) rotate(-45)"/>
    </clipPath>
    <clipPath id="clippath-14">
      <polygon class="st13" points="26.33 34.52 54.08 11.75 31.31 39.5 3.56 62.27 26.33 34.52"/>
    </clipPath>
    <clipPath id="clippath-15">
      <rect class="st13" x="18.67" y="30.92" width="33.45" height="33.45"/>
    </clipPath>
    <clipPath id="clippath-16">
      <rect class="st13" x="12.14" y="43.16" width="46.72" height="9.12" transform="translate(-23.34 39.08) rotate(-45)"/>
    </clipPath>
    <clipPath id="clippath-17">
      <polygon class="st13" points="32.25 44.49 51.99 31.21 38.7 50.94 18.97 64.22 32.25 44.49"/>
    </clipPath>
    <clipPath id="clippath-18">
      <rect class="st13" x="18.67" y="30.92" width="33.45" height="33.45"/>
    </clipPath>
    <clipPath id="clippath-19">
      <rect class="st13" x="18.81" y="31.03" width="33.31" height="33.35"/>
    </clipPath>
    <clipPath id="clippath-20">
      <rect class="st13" x="12.14" y="43.16" width="46.72" height="9.12" transform="translate(-23.34 39.08) rotate(-45)"/>
    </clipPath>
    <clipPath id="clippath-21">
      <polygon class="st13" points="32.25 44.49 51.99 31.21 38.7 50.94 18.97 64.22 32.25 44.49"/>
    </clipPath>
  </defs>
  <g>
    <path class="st9" d="M72.67,49.01h10.72c.12,0,.25-.02.37-.06h.74c.49,0,.92.09,1.29.28.37.18.55.63.55,1.32v.31c0,.45-.06.93-.18,1.45-.12.51-.27,1.04-.43,1.57-.16.49-.34.98-.52,1.45s-.38.91-.59,1.32c-.41.82-1.02,1.35-1.82,1.57-.8.23-1.67.34-2.62.34h-15.13c-.1,0-.22-.02-.34-.06-.78-.04-1.51-.24-2.19-.58s-1.12-.79-1.32-1.33c-.16-.45-.33-.86-.49-1.23s-.31-.74-.43-1.11c-.16-.45-.32-.92-.46-1.42-.14-.49-.28-1.05-.4-1.66,0-.08,0-.14-.03-.18s-.03-.1-.03-.19v-.31c-.04-.57.08-1.11.37-1.6.29-.49.59-.94.92-1.36.04-.08.08-.15.12-.22.04-.06.08-.11.12-.15l20.03-25.82h-12.39s-.08.06-.12.06h-.55c-.53,0-1.01-.08-1.42-.25-.41-.16-.64-.51-.68-1.05v-.25c0-.08.02-.16.06-.25.16-.99.4-1.93.71-2.83s.63-1.73.96-2.47c.16-.45.33-.86.49-1.23.16-.37.33-.72.49-1.05.33-.66.82-1.08,1.48-1.26s1.36-.28,2.1-.28h16.33c.86,0,1.61.31,2.25.92.64.62,1.06,1.36,1.26,2.22.21.66.38,1.26.52,1.82.14.55.3,1.08.46,1.57.12.53.25,1.07.37,1.6.12.53.25,1.15.37,1.85.04.12.06.25.06.37v.31c0,.66-.13,1.21-.4,1.66-.27.45-.59.88-.95,1.29-.08.04-.15.1-.22.18-.06.08-.13.16-.22.25-.12.12-.24.25-.34.37s-.2.25-.28.37l-18.61,23.73s.02.02.02.02Z"/>
    <path class="st9" d="M135.84,47.6c0,.74-.02,1.4-.06,1.97-.04.58-.1,1.15-.18,1.73-.04.41-.08.8-.12,1.17s-.08.78-.12,1.23c0,.25,0,.51-.03.8s-.05.6-.09.92c-.16,1.52-.67,2.48-1.51,2.87s-1.8.59-2.87.59h-.86c-.16-.04-.32-.06-.46-.06h-.4c-.21,0-.4,0-.59-.03-.18-.02-.38-.05-.59-.09-1.11-.12-2.13-.43-3.05-.92-.92-.49-1.39-1.23-1.39-2.22v-.25c.04-.58.08-1.29.12-2.16.04-.86.06-1.75.06-2.65.04-1.48.08-3.47.12-5.98-.08.04-.16.09-.25.15-.08.06-.16.13-.25.22-.08.04-.15.09-.22.15-.06.06-.11.11-.15.15-.12.12-.24.23-.34.31s-.2.17-.28.25l-.25.25c-.08.08-.16.16-.25.25s-.18.17-.28.28c-.1.1-.2.19-.28.28-.08.04-.16.07-.25.09-.08.02-.14.05-.18.09-.04,0-.07,0-.09.03s-.05.03-.09.03c-.16.08-.32.14-.46.19-.14.04-.32.06-.52.06h-1.91c-.16,0-.31,0-.43-.03-.12-.02-.27-.03-.43-.03-1.03,2.14-1.85,3.86-2.47,5.18,0,.04-.01.08-.03.12-.02.04-.05.08-.09.12-.49,1.03-.97,1.98-1.42,2.87-.45.88-.78,1.49-.99,1.82-.37.53-.81.9-1.33,1.11-.51.21-1.06.31-1.63.31h-.55c-.37-.04-.74-.1-1.11-.18s-.74-.16-1.11-.25c-.16-.08-.32-.14-.46-.19-.14-.04-.28-.08-.4-.12-.08-.04-.17-.07-.28-.09-.1-.02-.22-.05-.34-.09-.95-.37-1.82-.84-2.62-1.42-.8-.57-1.2-1.38-1.2-2.4,0-.21.02-.4.06-.59.04-.18.08-.38.12-.58.08-.25.22-.61.4-1.08s.4-.98.65-1.51c0-.04.02-.1.06-.18.29-.7.68-1.58,1.17-2.65-.04-.04-.09-.07-.15-.09-.06-.02-.11-.03-.15-.03-.04-.04-.08-.07-.12-.09s-.08-.03-.12-.03c-.08-.08-.16-.17-.25-.28-.08-.1-.18-.26-.31-.46-.04-.12-.08-.28-.12-.46s-.06-.36-.06-.52c0-.29.03-.61.09-.96s.13-.71.22-1.08c.04-.25.09-.49.15-.74.06-.25.13-.49.22-.74.12-.41.25-.78.37-1.11s.21-.58.25-.74c.04-.08.07-.16.09-.25.02-.08.05-.14.09-.19.37-1.03.79-1.97,1.26-2.83s1.26-1.44,2.37-1.73c.16-.04.34-.07.52-.09s.36-.03.52-.03c.21,0,.39,0,.55.03s.31.03.43.03.27.02.43.06c2.42-4.44,4.35-7.99,5.79-10.66,1.36-2.47,2.61-4.76,3.76-6.87,1.15-2.12,1.81-3.32,1.97-3.6.21-.37.41-.7.62-.99s.39-.57.55-.86c.53-.66,1.09-1.15,1.66-1.48.57-.33,1.27-.49,2.1-.49h.25c.53,0,1.14.04,1.82.12.68.08,1.35.18,2,.31,1.52.33,2.93.84,4.22,1.54,1.29.7,1.98,1.66,2.06,2.9.04.41.06,1.08.06,2v3.36c0,1.81,0,3.87-.03,6.19-.02,2.32-.05,4.69-.09,7.12-.04,2.59-.11,5.11-.22,7.58-.1,2.47-.22,4.6-.34,6.41v-.06l.04-.03h0ZM122.59,34.96c.12.12.28.23.46.31s.38.12.59.12c.04.04.1.06.18.06h.18c.21,0,.4-.03.59-.09.18-.06.36-.15.52-.28l.86-8.44c-.74,1.4-1.32,2.55-1.73,3.45-.04.12-.09.26-.15.4-.06.14-.13.28-.22.4-.33.78-.64,1.52-.92,2.22-.29.7-.43,1.23-.43,1.6,0,.04,0,.09.03.15.02.06.05.11.09.15l-.06-.06h.01Z"/>
    <path class="st9" d="M162.95,14.5c.04-.16.09-.34.15-.52.06-.18.13-.38.22-.59.04-.08.08-.16.12-.25.04-.08.08-.18.12-.31.12-.29.25-.56.37-.83.12-.27.23-.44.31-.52.33-.57.73-.96,1.2-1.17s1-.31,1.57-.31h.49c.08.04.16.06.25.06h.25c.33.04.79.12,1.39.25.59.12,1.24.31,1.94.55.9.33,1.74.79,2.5,1.39s1.14,1.35,1.14,2.25v.22c0,.06-.02.11-.06.15-.04.33-.14.7-.31,1.11s-.37,1.07-.62,1.97l-3.45,11.46h7.7l4.13-14.98c.12-.45.24-.83.34-1.14s.2-.59.28-.83c.08-.21.15-.41.22-.62.06-.21.13-.43.22-.68.08-.33.38-.56.89-.71.51-.14,1.1-.22,1.76-.22.25,0,.49.01.74.03.25.02.49.03.74.03.37.04.74.1,1.11.18s.72.16,1.05.25c.08.04.17.07.28.09.1.02.19.03.28.03.99.29,1.91.64,2.77,1.05s1.38,1.13,1.54,2.16v.43c0,.29-.02.59-.06.89-.04.31-.1.63-.18.96l-.86,2.9-8.81,31.55c-.08.29-.15.58-.22.86-.06.29-.11.56-.15.8-.04.33-.1.66-.19.99s-.18.66-.31.99c-.08.21-.18.42-.31.65-.12.23-.27.44-.43.65-.08.12-.17.25-.25.37s-.17.25-.25.37c-.45.62-.93,1.15-1.45,1.6-.51.45-1.18.68-2,.68-.66,0-1.25,0-1.79-.03-.53-.02-1.05-.07-1.54-.15-.45,0-.92-.06-1.42-.18-.49-.12-1.05-.27-1.66-.43-.45-.12-.77-.4-.95-.83s-.28-.91-.28-1.45c0-.29.02-.56.06-.83s.08-.52.12-.77l3.94-13.13.8-3.64-2.03,2.4s-.09.11-.15.22c-.06.1-.11.2-.15.28l-.06.06c-.04.08-.09.17-.15.25s-.11.14-.15.18c0,.04,0,.07-.03.09s-.05.05-.09.09c-.25.29-.63.57-1.14.83-.51.27-1.35.4-2.5.4-.41,0-.87-.02-1.39-.06-.51-.04-1.08-.1-1.69-.19l-3.27,13.06c-.04.37-.13.73-.28,1.08-.14.35-.32.67-.52.95-.08.12-.16.24-.25.34-.08.1-.14.19-.18.28-.12.25-.33.43-.62.55s-.95.21-1.97.25h-.25c-.33,0-.67,0-1.02-.03-.35-.02-.69-.05-1.02-.09-1.32-.16-2.55-.42-3.7-.77-1.15-.35-1.83-.75-2.03-1.2-.08-.2-.14-.4-.18-.58-.04-.19-.06-.36-.06-.52s0-.32.03-.46c.02-.14.05-.3.09-.46l3.14-12.2-.8-.43s-.1-.02-.18-.06c-.08-.04-.14-.06-.18-.06-.16-.08-.33-.18-.49-.31-.16-.12-.27-.27-.31-.43-.08-.16-.14-.37-.18-.62s-.06-.51-.06-.8c-.04-.45-.02-.94.06-1.48.08-.53.18-1.07.31-1.6.04-.16.08-.33.12-.49s.08-.33.12-.49c.08-.29.16-.57.25-.86.08-.29.14-.55.18-.8.33-1.11.71-2.04,1.14-2.8.43-.76,1.18-1.18,2.25-1.26l1.66-.18,4.31-14.85-.02-.03h0Z"/>
    <path class="st9" d="M235.42,47.6c0,.74-.02,1.4-.06,1.97-.04.58-.1,1.15-.18,1.73-.04.41-.08.8-.12,1.17s-.08.78-.12,1.23c0,.25,0,.51-.03.8s-.05.6-.09.92c-.16,1.52-.67,2.48-1.51,2.87s-1.8.59-2.87.59h-.86c-.16-.04-.32-.06-.46-.06h-.4c-.21,0-.4,0-.59-.03-.18-.02-.38-.05-.58-.09-1.11-.12-2.13-.43-3.05-.92-.92-.49-1.39-1.23-1.39-2.22v-.25c.04-.58.08-1.29.12-2.16.04-.86.06-1.75.06-2.65.04-1.48.08-3.47.12-5.98-.08.04-.16.09-.25.15-.08.06-.16.13-.25.22-.08.04-.15.09-.22.15l-.15.15c-.12.12-.24.23-.34.31-.1.08-.2.17-.28.25l-.25.25-.25.25c-.08.08-.18.17-.28.28-.1.1-.2.19-.28.28-.08.04-.16.07-.25.09-.08.02-.14.05-.18.09-.04,0-.07,0-.09.03-.02.02-.05.03-.09.03-.16.08-.32.14-.46.19-.14.04-.32.06-.52.06h-1.91c-.16,0-.31,0-.43-.03-.12-.02-.27-.03-.43-.03-1.03,2.14-1.85,3.86-2.47,5.18,0,.04,0,.08-.03.12-.02.04-.05.08-.09.12-.49,1.03-.97,1.98-1.42,2.87-.45.88-.78,1.49-.99,1.82-.37.53-.81.9-1.32,1.11-.51.21-1.06.31-1.63.31h-.55c-.37-.04-.74-.1-1.11-.18s-.74-.16-1.11-.25c-.16-.08-.32-.14-.46-.19-.14-.04-.28-.08-.4-.12-.08-.04-.17-.07-.28-.09-.1-.02-.22-.05-.34-.09-.95-.37-1.82-.84-2.62-1.42-.8-.57-1.2-1.38-1.2-2.4,0-.21.02-.4.06-.59.04-.18.08-.38.12-.58.08-.25.22-.61.4-1.08.19-.47.4-.98.65-1.51,0-.04.02-.1.06-.18.29-.7.68-1.58,1.17-2.65-.04-.04-.09-.07-.15-.09s-.11-.03-.15-.03c-.04-.04-.08-.07-.12-.09s-.08-.03-.12-.03c-.08-.08-.16-.17-.25-.28-.08-.1-.18-.26-.31-.46-.04-.12-.08-.28-.12-.46s-.06-.36-.06-.52c0-.29.03-.61.09-.96s.13-.71.22-1.08c.04-.25.09-.49.15-.74s.13-.49.22-.74c.12-.41.25-.78.37-1.11s.21-.58.25-.74c.04-.08.07-.16.09-.25.02-.08.05-.14.09-.19.37-1.03.79-1.97,1.26-2.83s1.26-1.44,2.37-1.73c.16-.04.34-.07.52-.09.18-.02.36-.03.52-.03.2,0,.39,0,.55.03s.31.03.43.03.27.02.43.06c2.42-4.44,4.35-7.99,5.79-10.66,1.36-2.47,2.61-4.76,3.76-6.87,1.15-2.12,1.81-3.32,1.97-3.6.2-.37.41-.7.62-.99.2-.29.39-.57.55-.86.53-.66,1.09-1.15,1.66-1.48.57-.33,1.27-.49,2.1-.49h.25c.53,0,1.14.04,1.82.12.68.08,1.34.18,2,.31,1.52.33,2.93.84,4.22,1.54,1.29.7,1.98,1.66,2.06,2.9.04.41.06,1.08.06,2v3.36c0,1.81,0,3.87-.03,6.19-.02,2.32-.05,4.69-.09,7.12-.04,2.59-.11,5.11-.22,7.58-.1,2.47-.22,4.6-.34,6.41v-.06l.02-.03h0ZM222.17,34.96c.12.12.28.23.46.31.19.08.38.12.59.12.04.04.1.06.18.06h.19c.2,0,.4-.03.58-.09.19-.06.36-.15.52-.28l.86-8.44c-.74,1.4-1.32,2.55-1.73,3.45-.04.12-.09.26-.15.4s-.13.28-.22.4c-.33.78-.64,1.52-.92,2.22-.29.7-.43,1.23-.43,1.6,0,.04,0,.09.03.15.02.06.05.11.09.15l-.06-.06h0Z"/>
    <path class="st9" d="M285.96,57.21c-.08.41-.44.71-1.08.89-.64.18-1.43.28-2.37.28-.49,0-1-.02-1.51-.06s-1.04-.1-1.57-.19c-1.19-.2-2.33-.5-3.42-.89-1.09-.39-1.92-.85-2.5-1.39-.25-.21-.47-.84-.68-1.91s-.41-2.24-.62-3.51c-.08-.41-.15-.83-.22-1.26-.06-.43-.11-.83-.15-1.2l-2.53-15.53-6.29,22.99c-.08.33-.16.64-.25.92-.08.29-.16.53-.25.74-.25.62-.52.99-.83,1.11s-.75.19-1.32.19h-.68c-.25,0-.53.02-.86.06h-.31c-.08.04-.15.06-.22.06h-.22c-.37,0-.81-.02-1.32-.06-.51-.04-1.04-.12-1.57-.25-1.03-.2-1.96-.53-2.8-.99-.84-.45-1.28-1.09-1.32-1.91,0-.29,0-.56.03-.8s.05-.47.09-.68c0-.16.02-.33.06-.49s.08-.33.12-.49l2.22-7.46,9.12-31.55v-.09s.02-.05.06-.09c.16-.78.48-1.49.95-2.13s1.14-.95,2-.95h.43s.1.01.18.03c.08.02.14.03.19.03.12.04.25.07.37.09s.25.03.37.03c.29.04.56.09.8.15.25.06.51.11.8.15,1.31.25,2.6.61,3.85,1.08s2.29,1.22,3.11,2.25c.57.74,1.06,1.67,1.45,2.8.39,1.13.75,2.37,1.08,3.73.08.45.19.9.31,1.36.12.45.25.9.37,1.36.08.29.15.55.22.8.06.25.13.49.22.74.12.49.25.96.37,1.39s.25.85.37,1.26c0,.04.02.08.06.12.12.41.25.84.37,1.29.12.45.25.95.37,1.48l.92-4.44c.12-.66.34-1.63.65-2.93.31-1.29.63-2.66.96-4.1.04-.16.08-.31.12-.43s.06-.27.06-.43c.29-1.15.57-2.26.86-3.33.29-1.07.51-1.91.68-2.53.04-.08.08-.17.12-.28.04-.1.1-.22.18-.34.16-.33.41-.64.74-.92.33-.29.7-.43,1.11-.43.04-.04.07-.05.09-.03s.05.03.09.03h.12c.16,0,.7.06,1.6.18s1.89.33,2.96.62c1.11.33,2.15.77,3.11,1.33.96.55,1.45,1.26,1.45,2.13,0,.29-.02.58-.06.86-.04.29-.1.55-.19.8-.04.12-.07.24-.09.34s-.05.22-.09.34c-.04.16-.08.33-.12.49s-.08.35-.12.55c-.29,1.36-.68,3.04-1.17,5.05-.49,2.01-1.03,4.09-1.6,6.22-.12.45-.26.91-.4,1.39-.14.47-.28.96-.4,1.45-.16.53-.32,1.07-.46,1.6-.14.53-.3,1.05-.46,1.54-.21.74-.58,1.98-1.14,3.73-.55,1.75-1.14,3.59-1.76,5.52-.74,2.42-1.43,4.64-2.06,6.66-.64,2.01-.96,3.1-.96,3.27v.18c0,.21,0,.4.03.59.02.18.05.34.09.46,0,.08,0,.16.03.25.02.08.03.16.03.25.04.08.06.15.06.22v.59l-.06.06h.03Z"/>
  </g>
  <g class="st25">
    <g>
      <g class="st14">
        <g class="st23">
          <g class="st18">
            <g class="st6">
              <g class="st15">
                <g class="st1">
                  <g class="st2">
                    <path class="st9" d="M9.67,34.27L42.53,1.41l6.34,6.34L16,40.61l-6.34-6.34s.01,0,.01,0Z"/>
                  </g>
                </g>
              </g>
            </g>
          </g>
        </g>
      </g>
      <g class="st17">
        <g class="st7">
          <g class="st8">
            <g class="st12">
              <g class="st19">
                <g class="st24">
                  <g class="st20">
                    <path class="st9" d="M1.07,59.78L51.6,9.25l4.98,4.98L6.05,64.76l-4.98-4.98Z"/>
                  </g>
                </g>
              </g>
            </g>
          </g>
        </g>
      </g>
      <g class="st4">
        <g class="st22">
          <g class="st3">
            <g class="st5">
              <g class="st21">
                <g class="st16">
                  <g class="st0">
                    <path class="st9" d="M15.75,61L48.76,27.99l6.45,6.45-33.01,33.01s-6.45-6.45-6.45-6.45Z"/>
                  </g>
                </g>
              </g>
            </g>
          </g>
        </g>
      </g>
    </g>
  </g>
  <text class="st11" transform="translate(57.41 85.27)"><tspan x="0" y="0">Premium Lifestyle Brand</tspan></text>
  <text class="st10" transform="translate(6.12 106.01)"><tspan x="0" y="0">Design • Quality • Everyday Essentials</tspan></text>
</svg>