<?xml version="1.0" encoding="UTF-8"?>
<svg id="Layer_1" xmlns="http://www.w3.org/2000/svg" version="1.1" viewBox="0 0 375 375">
  <!-- Generator: Adobe Illustrator 29.6.1, SVG Export Plug-In . SVG Version: 2.1.1 Build 9)  -->
  <path d="M257.73,348.6V24.24h64.12c15.38,0,36.96,20.94,36.8,37.12l-.23,255.92c-10.14,46.66-65.92,30.74-100.69,31.32Z"/>
  <path d="M51.8,350.11c-15.63-2.1-38.15-19.87-32.51-37.05,25.4-22.83,49.24-47.32,73.98-70.84,32.11-30.53,65.73-60.01,97.37-91.21,16.21-15.99,30.54-34.11,48.22-48.33l-1.49,247.44H51.8Z"/>
  <path d="M238.12,24.24l1.52,63.37c-40.36,2.89-66.81-4.74-99.6,23.36-24.67,21.14-48.43,47.11-72.37,69.44-16.77,15.64-34.11,30.86-51.32,45.99V58.18c0-14.09,23.12-33.95,36.96-33.95h184.81Z"/>
</svg>