<?xml version="1.0" encoding="UTF-8"?>
<svg id="Layer_1" xmlns="http://www.w3.org/2000/svg" version="1.1" viewBox="0 0 1053.08 319.52">
  <!-- Generator: Adobe Illustrator 29.6.1, SVG Export Plug-In . SVG Version: 2.1.1 Build 9)  -->
  <defs>
    <style>
      .st0 {
        fill: #56aebf;
      }

      .st1 {
        fill: none;
        stroke: #56aebf;
        stroke-miterlimit: 10;
        stroke-width: 8px;
      }
    </style>
  </defs>
  <rect class="st1" x="2" y="2" width="1049.08" height="315.52" rx="62.53" ry="62.53"/>
  <g>
    <g>
      <path class="st0" d="M239.2,127.19l-28.24,28.05-82.9-84.4c4.16-2.51,9.58-2.9,14.37-.11l96.77,56.46h0Z"/>
      <path class="st0" d="M239.89,193.83l-97.46,56.86c-5.83,3.4-12.58,2.08-16.87-2.01l85.39-84.4,28.93,29.55h.01Z"/>
      <path class="st0" d="M272.57,172.88l-27.94,16.3-.22.13-28.93-29.55,28.24-28.05.22.13,28.64,16.71c9.32,5.44,9.32,18.9,0,24.33h-.01Z"/>
      <path class="st0" d="M121.05,244.16c-.06-.05-.12-.11-.18-.17-2.52-2.49-4.14-5.96-4.14-9.99V87.42c0-5.22,2.73-9.51,6.6-11.93.07-.04.14-.09.21-.13l82.9,84.4-85.4,84.4h.01Z"/>
    </g>
    <g>
      <g>
        <path class="st0" d="M434.58,180.67h-40.54v11.23h28.42c-3.4,12.51-14.84,21.71-28.42,21.71-16.27,0-29.46-13.19-29.46-29.46s13.19-29.46,29.46-29.46c7.69,0,14.69,2.95,19.94,7.77l7.95-7.95c-7.28-6.86-17.09-11.06-27.88-11.06-22.47,0-40.69,18.22-40.69,40.69s18.22,40.69,40.69,40.69,40.69-18.22,40.69-40.69c0-1.17-.05-2.33-.15-3.48h-.01Z"/>
        <path class="st0" d="M466.6,172.26c-14.37,0-26.02,11.73-26.02,26.19s11.65,26.19,26.02,26.19,26.02-11.73,26.02-26.19-11.65-26.19-26.02-26.19ZM466.6,214.24c-7.86,0-14.24-6.88-14.24-15.37s6.38-15.37,14.24-15.37,14.24,6.88,14.24,15.37-6.38,15.37-14.24,15.37Z"/>
        <path class="st0" d="M524.49,172.26c-14.37,0-26.02,11.73-26.02,26.19s11.65,26.19,26.02,26.19,26.02-11.73,26.02-26.19-11.65-26.19-26.02-26.19ZM524.49,214.24c-7.86,0-14.24-6.88-14.24-15.37s6.38-15.37,14.24-15.37,14.24,6.88,14.24,15.37-6.38,15.37-14.24,15.37Z"/>
        <rect class="st0" x="610.39" y="143.47" width="11.23" height="82.21"/>
        <path class="st0" d="M667.79,205.17c-1.69,3.46-4.59,6.14-8.18,7.55-3.81,1.49-7.98,1.41-11.73-.23-2.39-1.04-4.43-2.64-5.98-4.65l38.15-14.94-.59-1.99c-.22-.73-.47-1.46-.74-2.15-2.58-6.6-7.58-11.8-14.08-14.64-6.49-2.84-13.71-2.98-20.31-.39-6.6,2.58-11.8,7.58-14.64,14.08-2.84,6.49-2.98,13.71-.39,20.31,2.58,6.6,7.58,11.8,14.08,14.64,3.41,1.49,7.01,2.24,10.62,2.24,3.27,0,6.55-.61,9.68-1.84,6.32-2.47,11.4-7.21,14.3-13.35l.99-2.1-10.25-4.48-.95,1.94h.02ZM664.27,187.05l-25.51,9.99c.15-1.61.56-3.2,1.23-4.73,1.64-3.75,4.64-6.64,8.45-8.13,1.81-.71,3.7-1.05,5.57-1.05,3.76,0,7.43,1.38,10.26,3.92Z"/>
        <path class="st0" d="M593.31,172.26v4.61c-3.8-2.91-8.4-4.61-13.37-4.61-13.02,0-23.58,11.73-23.58,26.19s10.56,26.19,23.58,26.19c4.96,0,9.57-1.71,13.37-4.61v5.65c0,3.23-2.33,12.22-12.93,12.22s-13.58-9.47-13.58-9.47l-10.18,4.74s3.83,14.95,24.77,14.95c11.34,0,17.19-6.58,20.16-12.62,2.02-4.09,2.98-8.62,2.98-13.18v-50.06h-11.23.01ZM579.94,214.24c-7.13,0-12.91-6.88-12.91-15.37s5.78-15.37,12.91-15.37,12.91,6.88,12.91,15.37-5.78,15.37-12.91,15.37Z"/>
      </g>
      <g>
        <rect class="st0" x="718.97" y="143.47" width="11.23" height="82.21"/>
        <path class="st0" d="M745.92,143.47v11.23c7.86,0,14.24,6.88,14.24,15.37s-6.38,15.37-14.24,15.37v10.4c14.37,0,26.02-11.73,26.02-26.19s-11.65-26.19-26.02-26.19h0Z"/>
        <rect class="st0" x="727.06" y="143.47" width="18.86" height="11.23"/>
        <rect class="st0" x="727.06" y="185.44" width="18.86" height="10.4"/>
      </g>
      <rect class="st0" x="777.78" y="143.47" width="11.23" height="82.21"/>
      <path class="st0" d="M825.72,218.5l1.38-1.48v7.86h9.45v-33.93c0-3.16-.38-5.91-1.13-8.19-.73-2.22-1.9-4.06-3.49-5.47-1.6-1.42-3.68-2.48-6.19-3.17-2.56-.7-5.69-1.06-9.32-1.06-2.03,0-4.03.17-5.95.49-1.92.33-3.72.76-5.33,1.27-1.41.45-2.67.94-3.77,1.45l.6,8.89c.69-.35,1.47-.72,2.33-1.1,1.37-.61,2.97-1.18,4.75-1.69,1.82-.51,3.9-.77,6.19-.77,1.77,0,3.29.19,4.51.57,1.28.39,2.33,1.02,3.11,1.87.78.84,1.34,1.89,1.67,3.12.32,1.18.48,2.56.48,4.11v3.66h-5.42c-4.14,0-7.82.32-10.94.94-3.08.62-5.68,1.57-7.73,2.84-2.01,1.25-3.54,2.84-4.55,4.74-1.01,1.91-1.53,4.2-1.53,6.82,0,2.42.41,4.57,1.21,6.37.8,1.79,1.93,3.31,3.37,4.52,1.45,1.22,3.2,2.15,5.19,2.77,2.02.63,4.27.95,6.69.95,2.91,0,5.59-.56,7.97-1.68,2.39-1.12,4.55-2.7,6.42-4.71h.03ZM819.84,215.47c-1.69,1.03-3.58,1.55-5.59,1.55-2.42,0-4.36-.64-5.76-1.9-1.42-1.28-2.15-3.06-2.15-5.26,0-1.29.25-2.45.75-3.46.5-1.03,1.3-1.91,2.37-2.62,1.04-.69,2.38-1.21,4-1.55,1.57-.33,3.48-.5,5.69-.5h5.89v9.17l-.2.23c-1.67,1.89-3.35,3.35-4.99,4.35h0Z"/>
      <polygon class="st0" points="881.14 173.14 872.93 192.12 867.89 203.79 864.47 195.89 854.63 173.14 842.4 173.14 858.35 210.03 861.91 218.26 852.65 240.89 864.89 240.89 872.94 220.42 879.05 206.27 893.38 173.14 881.14 173.14"/>
    </g>
    <g>
      <g>
        <path class="st0" d="M421.51,112.85c0,.27-.02.51-.06.72s-.11.39-.2.53-.2.26-.33.33c-.13.07-.26.11-.41.11h-19.06c-.38,0-.77-.14-1.16-.42-.4-.28-.6-.8-.6-1.56v-36.74c0-.75.2-1.27.6-1.56.4-.28.79-.42,1.16-.42h18.78c.15,0,.28.04.41.11s.23.18.31.33.15.33.19.55.06.48.06.77c0,.27-.02.51-.06.72s-.11.38-.19.52c-.08.14-.19.24-.31.31-.13.07-.26.11-.41.11h-16.7v14.31h14.41c.17,0,.31.04.44.11s.23.18.31.31c.08.14.15.31.19.53s.06.48.06.77c0,.27-.02.51-.06.71s-.11.36-.19.49c-.08.13-.19.22-.31.28-.13.06-.27.09-.44.09h-14.41v16.23h16.99c.15,0,.28.04.41.11s.24.18.33.31c.09.14.16.31.2.53s.06.48.06.77v.04Z"/>
        <path class="st0" d="M455.82,75.61c0,.27-.02.51-.06.72s-.11.38-.19.52c-.08.14-.19.24-.31.31-.13.07-.26.11-.41.11h-12.14v36.65c0,.13-.03.24-.09.35s-.17.19-.31.25c-.15.06-.35.12-.6.16s-.56.06-.91.06-.66-.02-.91-.06-.45-.09-.6-.16c-.15-.06-.25-.15-.31-.25s-.09-.22-.09-.35v-36.65h-12.14c-.17,0-.31-.04-.42-.11-.12-.07-.22-.18-.3-.31-.08-.14-.15-.31-.19-.52s-.06-.45-.06-.72c0-.29.02-.55.06-.77.04-.22.1-.4.19-.55.08-.15.18-.26.3-.33.11-.07.26-.11.42-.11h28.12c.15,0,.28.04.41.11s.23.18.31.33.15.33.19.55.06.48.06.77h-.02Z"/>
        <path class="st0" d="M480.71,113.92c0,.13-.03.24-.09.35s-.17.19-.31.25c-.15.06-.34.12-.58.16s-.55.06-.93.06c-.36,0-.66-.02-.91-.06s-.45-.09-.6-.16c-.15-.06-.25-.15-.31-.25s-.09-.22-.09-.35v-39.45c0-.13.04-.24.11-.35.07-.1.19-.19.35-.25s.36-.12.6-.16c.24-.04.53-.06.87-.06.38,0,.69.02.93.06s.44.09.58.16c.15.06.25.15.31.25s.09.22.09.35v39.45h-.02Z"/>
        <path class="st0" d="M517.26,75.61c0,.27-.02.51-.06.72s-.11.38-.19.52-.19.24-.31.31c-.13.07-.26.11-.41.11h-12.14v36.65c0,.13-.03.24-.09.35s-.17.19-.31.25c-.15.06-.35.12-.6.16s-.56.06-.91.06-.66-.02-.91-.06-.45-.09-.6-.16c-.15-.06-.25-.15-.31-.25s-.09-.22-.09-.35v-36.65h-12.14c-.17,0-.31-.04-.42-.11-.12-.07-.22-.18-.3-.31-.08-.14-.15-.31-.19-.52s-.06-.45-.06-.72c0-.29.02-.55.06-.77.04-.22.1-.4.19-.55.08-.15.18-.26.3-.33.11-.07.26-.11.42-.11h28.12c.15,0,.28.04.41.11.13.07.23.18.31.33s.15.33.19.55.06.48.06.77h-.02Z"/>
        <path class="st0" d="M571.05,93.73c0,3.25-.37,6.19-1.12,8.82-.74,2.63-1.86,4.88-3.35,6.73-1.49,1.86-3.37,3.29-5.63,4.29-2.26,1.01-4.91,1.51-7.93,1.51s-5.61-.48-7.79-1.43c-2.17-.95-3.95-2.32-5.35-4.09-1.4-1.77-2.42-3.94-3.08-6.5-.66-2.56-.99-5.44-.99-8.65s.37-6.08,1.1-8.68,1.85-4.82,3.35-6.65,3.38-3.26,5.63-4.26c2.25-1.01,4.9-1.51,7.94-1.51s5.52.47,7.68,1.42c2.16.94,3.95,2.3,5.36,4.06,1.42,1.76,2.46,3.9,3.15,6.42.68,2.52,1.02,5.36,1.02,8.52h0ZM566.96,94.07c0-2.41-.23-4.67-.68-6.78s-1.2-3.94-2.23-5.5c-1.04-1.56-2.42-2.79-4.14-3.68-1.72-.89-3.85-1.34-6.39-1.34s-4.64.47-6.37,1.4-3.14,2.19-4.22,3.76c-1.08,1.57-1.86,3.41-2.33,5.5-.47,2.1-.71,4.31-.71,6.64,0,2.47.21,4.78.64,6.9.43,2.13,1.16,3.98,2.19,5.55s2.4,2.8,4.12,3.7c1.72.89,3.87,1.34,6.45,1.34s4.71-.48,6.45-1.43,3.15-2.23,4.21-3.84,1.83-3.46,2.3-5.57c.46-2.11.69-4.33.69-6.65h.02Z"/>
        <path class="st0" d="M609.67,112.7c0,.38-.06.69-.17.94-.12.25-.26.46-.44.61-.18.16-.38.27-.6.33s-.42.09-.61.09h-.79c-.42,0-.8-.05-1.15-.16-.35-.1-.68-.29-1.01-.55s-.65-.61-.98-1.05c-.33-.44-.69-1.01-1.09-1.7l-14.34-25.42c-.71-1.24-1.43-2.51-2.15-3.82-.72-1.31-1.41-2.58-2.06-3.82h-.03c.02,1.53.03,3.1.03,4.7v31.06c0,.13-.03.24-.09.35s-.17.19-.31.25c-.15.06-.34.12-.58.16s-.55.06-.93.06c-.36,0-.66-.02-.91-.06s-.45-.09-.6-.16c-.15-.06-.25-.15-.31-.25s-.09-.22-.09-.35v-38.09c0-.75.2-1.27.6-1.56.4-.28.79-.42,1.16-.42h1.57c.5,0,.92.04,1.26.13.34.08.64.23.91.42.27.2.54.48.8.85.26.37.55.83.87,1.4l10.98,19.47c.69,1.22,1.35,2.39,1.97,3.51s1.22,2.22,1.81,3.3,1.17,2.14,1.75,3.19,1.15,2.11,1.71,3.18h.03c-.02-1.76-.03-3.6-.03-5.5v-29.19c0-.13.03-.24.09-.35s.17-.19.31-.27c.15-.07.34-.13.58-.16.24-.03.55-.05.93-.05.34,0,.63.02.88.05.25.03.45.08.6.16.15.07.26.16.33.27.07.1.11.22.11.35v38.09h0Z"/>
      </g>
      <path class="st0" d="M353.36,94.17c0,10.98,8.93,19.91,19.91,19.91s19.91-8.93,19.91-19.91c0-.28,0-.56-.02-.84h-18.96v3.87h14.86l-.32,1.19c-1.89,6.96-8.26,11.82-15.48,11.82-8.84,0-16.04-7.2-16.04-16.04s7.2-16.04,16.04-16.04c3.73,0,7.31,1.29,10.17,3.64l2.75-2.75c-3.6-3.08-8.16-4.76-12.92-4.76-10.98,0-19.91,8.93-19.91,19.91h.01Z"/>
    </g>
  </g>
</svg>