<?xml version="1.0" encoding="utf-8"?>
<!-- Generator: Adobe Illustrator 27.0.0, SVG Export Plug-In . SVG Version: 6.00 Build 0)  -->
<svg version="1.1" xmlns="http://www.w3.org/2000/svg" xmlns:xlink="http://www.w3.org/1999/xlink" x="0px" y="0px"
	 viewBox="0 0 1053.1 319.5" style="enable-background:new 0 0 1053.1 319.5;" xml:space="preserve">
<style type="text/css">
	.st0{display:none;}
	.st1{display:inline;fill:none;stroke:#56AEBF;stroke-width:8;stroke-miterlimit:10;}
	.st2{display:inline;}
	.st3{fill:#56AEBF;}
	.st4{opacity:0.1;fill:#C6C6C6;}
	.st5{fill:#00EF6D;}
	.st6{fill:#FF3147;}
	.st7{fill:#FFCA00;}
	.st8{fill:#00D2FF;}
	.st9{fill:#FFFFFF;}
</style>
<g id="Layer_1" class="st0">
	<path class="st1" d="M64.5,2h924c34.5,0,62.5,28,62.5,62.5V255c0,34.5-28,62.5-62.5,62.5h-924C30,317.5,2,289.5,2,255V64.5
		C2,30,30,2,64.5,2z"/>
	<g class="st2">
		<g>
			<path class="st3" d="M239.2,127.2l-28.2,28l-82.9-84.4c4.2-2.5,9.6-2.9,14.4-0.1L239.2,127.2L239.2,127.2L239.2,127.2z"/>
			<path class="st3" d="M239.9,193.8l-97.5,56.9c-5.8,3.4-12.6,2.1-16.9-2l85.4-84.4L239.9,193.8L239.9,193.8L239.9,193.8z"/>
			<path class="st3" d="M272.6,172.9l-27.9,16.3l-0.2,0.1l-28.9-29.6l28.2-28.1l0.2,0.1l28.6,16.7
				C281.9,154,281.9,167.5,272.6,172.9L272.6,172.9L272.6,172.9z"/>
			<path class="st3" d="M121.1,244.2c-0.1-0.1-0.1-0.1-0.2-0.2c-2.5-2.5-4.1-6-4.1-10V87.4c0-5.2,2.7-9.5,6.6-11.9
				c0.1,0,0.1-0.1,0.2-0.1l82.9,84.4L121.1,244.2L121.1,244.2z"/>
		</g>
		<g>
			<g>
				<path class="st3" d="M434.6,180.7H394v11.2h28.4c-3.4,12.5-14.8,21.7-28.4,21.7c-16.3,0-29.5-13.2-29.5-29.5
					s13.2-29.5,29.5-29.5c7.7,0,14.7,2.9,19.9,7.8l8-7.9c-7.3-6.9-17.1-11.1-27.9-11.1c-22.5,0-40.7,18.2-40.7,40.7
					s18.2,40.7,40.7,40.7s40.7-18.2,40.7-40.7C434.7,183,434.7,181.8,434.6,180.7L434.6,180.7L434.6,180.7z"/>
				<path class="st3" d="M466.6,172.3c-14.4,0-26,11.7-26,26.2s11.6,26.2,26,26.2s26-11.7,26-26.2S481,172.3,466.6,172.3z
					 M466.6,214.2c-7.9,0-14.2-6.9-14.2-15.4s6.4-15.4,14.2-15.4s14.2,6.9,14.2,15.4S474.5,214.2,466.6,214.2z"/>
				<path class="st3" d="M524.5,172.3c-14.4,0-26,11.7-26,26.2s11.6,26.2,26,26.2c14.4,0,26-11.7,26-26.2S538.9,172.3,524.5,172.3z
					 M524.5,214.2c-7.9,0-14.2-6.9-14.2-15.4s6.4-15.4,14.2-15.4s14.2,6.9,14.2,15.4S532.3,214.2,524.5,214.2z"/>
				<rect x="610.4" y="143.5" class="st3" width="11.2" height="82.2"/>
				<path class="st3" d="M667.8,205.2c-1.7,3.5-4.6,6.1-8.2,7.6c-3.8,1.5-8,1.4-11.7-0.2c-2.4-1-4.4-2.6-6-4.6l38.2-14.9l-0.6-2
					c-0.2-0.7-0.5-1.5-0.7-2.1c-2.6-6.6-7.6-11.8-14.1-14.6s-13.7-3-20.3-0.4s-11.8,7.6-14.6,14.1s-3,13.7-0.4,20.3
					s7.6,11.8,14.1,14.6c3.4,1.5,7,2.2,10.6,2.2c3.3,0,6.5-0.6,9.7-1.8c6.3-2.5,11.4-7.2,14.3-13.4l1-2.1l-10.2-4.5L667.8,205.2
					L667.8,205.2L667.8,205.2z M664.3,187.1l-25.5,10c0.2-1.6,0.6-3.2,1.2-4.7c1.6-3.8,4.6-6.6,8.5-8.1c1.8-0.7,3.7-1.1,5.6-1.1
					C657.8,183.1,661.4,184.5,664.3,187.1z"/>
				<path class="st3" d="M593.3,172.3v4.6c-3.8-2.9-8.4-4.6-13.4-4.6c-13,0-23.6,11.7-23.6,26.2s10.6,26.2,23.6,26.2
					c5,0,9.6-1.7,13.4-4.6v5.6c0,3.2-2.3,12.2-12.9,12.2s-13.6-9.5-13.6-9.5l-10.2,4.7c0,0,3.8,14.9,24.8,14.9
					c11.3,0,17.2-6.6,20.2-12.6c2-4.1,3-8.6,3-13.2v-50.1L593.3,172.3L593.3,172.3L593.3,172.3z M579.9,214.2
					c-7.1,0-12.9-6.9-12.9-15.4s5.8-15.4,12.9-15.4s12.9,6.9,12.9,15.4S587.1,214.2,579.9,214.2z"/>
			</g>
			<g>
				<rect x="719" y="143.5" class="st3" width="11.2" height="82.2"/>
				<path class="st3" d="M745.9,143.5v11.2c7.9,0,14.2,6.9,14.2,15.4s-6.4,15.4-14.2,15.4v10.4c14.4,0,26-11.7,26-26.2
					S760.3,143.5,745.9,143.5L745.9,143.5L745.9,143.5z"/>
				<rect x="727.1" y="143.5" class="st3" width="18.9" height="11.2"/>
				<rect x="727.1" y="185.4" class="st3" width="18.9" height="10.4"/>
			</g>
			<rect x="777.8" y="143.5" class="st3" width="11.2" height="82.2"/>
			<path class="st3" d="M825.7,218.5l1.4-1.5v7.9h9.5V191c0-3.2-0.4-5.9-1.1-8.2c-0.7-2.2-1.9-4.1-3.5-5.5s-3.7-2.5-6.2-3.2
				c-2.6-0.7-5.7-1.1-9.3-1.1c-2,0-4,0.2-6,0.5c-1.9,0.3-3.7,0.8-5.3,1.3c-1.4,0.4-2.7,0.9-3.8,1.4l0.6,8.9c0.7-0.4,1.5-0.7,2.3-1.1
				c1.4-0.6,3-1.2,4.8-1.7s3.9-0.8,6.2-0.8c1.8,0,3.3,0.2,4.5,0.6c1.3,0.4,2.3,1,3.1,1.9c0.8,0.8,1.3,1.9,1.7,3.1
				c0.3,1.2,0.5,2.6,0.5,4.1v3.7h-5.4c-4.1,0-7.8,0.3-10.9,0.9c-3.1,0.6-5.7,1.6-7.7,2.8s-3.5,2.8-4.5,4.7s-1.5,4.2-1.5,6.8
				c0,2.4,0.4,4.6,1.2,6.4c0.8,1.8,1.9,3.3,3.4,4.5s3.2,2.1,5.2,2.8c2,0.6,4.3,0.9,6.7,0.9c2.9,0,5.6-0.6,8-1.7
				C821.7,222.1,823.8,220.5,825.7,218.5L825.7,218.5L825.7,218.5z M819.8,215.5c-1.7,1-3.6,1.6-5.6,1.6c-2.4,0-4.4-0.6-5.8-1.9
				c-1.4-1.3-2.2-3.1-2.2-5.3c0-1.3,0.2-2.4,0.8-3.5c0.5-1,1.3-1.9,2.4-2.6c1-0.7,2.4-1.2,4-1.6c1.6-0.3,3.5-0.5,5.7-0.5h5.9v9.2
				l-0.2,0.2C823.2,213,821.5,214.5,819.8,215.5L819.8,215.5L819.8,215.5z"/>
			<polygon class="st3" points="881.1,173.1 872.9,192.1 867.9,203.8 864.5,195.9 854.6,173.1 842.4,173.1 858.3,210 861.9,218.3 
				852.7,240.9 864.9,240.9 872.9,220.4 879,206.3 893.4,173.1 			"/>
		</g>
		<g>
			<g>
				<path class="st3" d="M421.5,112.8c0,0.3,0,0.5-0.1,0.7s-0.1,0.4-0.2,0.5s-0.2,0.3-0.3,0.3c-0.1,0.1-0.3,0.1-0.4,0.1h-19.1
					c-0.4,0-0.8-0.1-1.2-0.4c-0.4-0.3-0.6-0.8-0.6-1.6V75.8c0-0.8,0.2-1.3,0.6-1.6c0.4-0.3,0.8-0.4,1.2-0.4h18.8
					c0.1,0,0.3,0,0.4,0.1s0.2,0.2,0.3,0.3s0.1,0.3,0.2,0.6s0.1,0.5,0.1,0.8s0,0.5-0.1,0.7s-0.1,0.4-0.2,0.5s-0.2,0.2-0.3,0.3
					c-0.1,0.1-0.3,0.1-0.4,0.1h-16.7v14.3h14.4c0.2,0,0.3,0,0.4,0.1s0.2,0.2,0.3,0.3c0.1,0.1,0.1,0.3,0.2,0.5s0.1,0.5,0.1,0.8
					s0,0.5-0.1,0.7s-0.1,0.4-0.2,0.5s-0.2,0.2-0.3,0.3c-0.1,0.1-0.3,0.1-0.4,0.1h-14.4V111h17c0.1,0,0.3,0,0.4,0.1s0.2,0.2,0.3,0.3
					c0.1,0.1,0.2,0.3,0.2,0.5S421.5,112.5,421.5,112.8L421.5,112.8L421.5,112.8z"/>
				<path class="st3" d="M455.8,75.6c0,0.3,0,0.5-0.1,0.7s-0.1,0.4-0.2,0.5s-0.2,0.2-0.3,0.3c-0.1,0.1-0.3,0.1-0.4,0.1h-12.1v36.7
					c0,0.1,0,0.2-0.1,0.3s-0.2,0.2-0.3,0.2c-0.1,0.1-0.4,0.1-0.6,0.2s-0.6,0.1-0.9,0.1s-0.7,0-0.9-0.1s-0.5-0.1-0.6-0.2
					s-0.2-0.2-0.3-0.2s-0.1-0.2-0.1-0.3V77.3h-12.1c-0.2,0-0.3,0-0.4-0.1s-0.2-0.2-0.3-0.3c-0.1-0.1-0.1-0.3-0.2-0.5
					s-0.1-0.4-0.1-0.7c0-0.3,0-0.6,0.1-0.8c0-0.2,0.1-0.4,0.2-0.6s0.2-0.3,0.3-0.3c0.1-0.1,0.3-0.1,0.4-0.1h28.1
					c0.1,0,0.3,0,0.4,0.1s0.2,0.2,0.3,0.3s0.1,0.3,0.2,0.6S455.8,75.3,455.8,75.6L455.8,75.6L455.8,75.6z"/>
				<path class="st3" d="M480.7,113.9c0,0.1,0,0.2-0.1,0.3s-0.2,0.2-0.3,0.2c-0.1,0.1-0.3,0.1-0.6,0.2s-0.5,0.1-0.9,0.1
					s-0.7,0-0.9-0.1s-0.5-0.1-0.6-0.2s-0.2-0.2-0.3-0.2s-0.1-0.2-0.1-0.3V74.5c0-0.1,0-0.2,0.1-0.3c0.1-0.1,0.2-0.2,0.4-0.2
					s0.4-0.1,0.6-0.2c0.2,0,0.5-0.1,0.9-0.1s0.7,0,0.9,0.1s0.4,0.1,0.6,0.2c0.1,0.1,0.2,0.2,0.3,0.2s0.1,0.2,0.1,0.3L480.7,113.9
					L480.7,113.9z"/>
				<path class="st3" d="M517.3,75.6c0,0.3,0,0.5-0.1,0.7s-0.1,0.4-0.2,0.5s-0.2,0.2-0.3,0.3c-0.1,0.1-0.3,0.1-0.4,0.1h-12.1v36.7
					c0,0.1,0,0.2-0.1,0.3s-0.2,0.2-0.3,0.2c-0.1,0.1-0.4,0.1-0.6,0.2s-0.6,0.1-0.9,0.1s-0.7,0-0.9-0.1s-0.5-0.1-0.6-0.2
					s-0.2-0.2-0.3-0.2s-0.1-0.2-0.1-0.3V77.3h-12.1c-0.2,0-0.3,0-0.4-0.1s-0.2-0.2-0.3-0.3c-0.1-0.1-0.1-0.3-0.2-0.5
					s-0.1-0.4-0.1-0.7c0-0.3,0-0.6,0.1-0.8c0-0.2,0.1-0.4,0.2-0.6s0.2-0.3,0.3-0.3c0.1-0.1,0.3-0.1,0.4-0.1h28.1
					c0.2,0,0.3,0,0.4,0.1c0.1,0.1,0.2,0.2,0.3,0.3s0.2,0.3,0.2,0.6S517.3,75.3,517.3,75.6L517.3,75.6L517.3,75.6z"/>
				<path class="st3" d="M571,93.7c0,3.2-0.4,6.2-1.1,8.8c-0.7,2.6-1.9,4.9-3.3,6.7c-1.5,1.9-3.4,3.3-5.6,4.3
					c-2.3,1-4.9,1.5-7.9,1.5s-5.6-0.5-7.8-1.4s-4-2.3-5.3-4.1c-1.4-1.8-2.4-3.9-3.1-6.5c-0.7-2.6-1-5.4-1-8.7s0.4-6.1,1.1-8.7
					s1.8-4.8,3.3-6.7s3.4-3.3,5.6-4.3c2.2-1,4.9-1.5,7.9-1.5s5.5,0.5,7.7,1.4s4,2.3,5.4,4.1c1.4,1.8,2.5,3.9,3.2,6.4
					C570.7,87.7,571,90.6,571,93.7L571,93.7L571,93.7z M567,94.1c0-2.4-0.2-4.7-0.7-6.8s-1.2-3.9-2.2-5.5s-2.4-2.8-4.1-3.7
					c-1.7-0.9-3.8-1.3-6.4-1.3s-4.6,0.5-6.4,1.4s-3.1,2.2-4.2,3.8c-1.1,1.6-1.9,3.4-2.3,5.5c-0.5,2.1-0.7,4.3-0.7,6.6
					c0,2.5,0.2,4.8,0.6,6.9c0.4,2.1,1.2,4,2.2,5.6s2.4,2.8,4.1,3.7c1.7,0.9,3.9,1.3,6.5,1.3s4.7-0.5,6.5-1.4s3.2-2.2,4.2-3.8
					s1.8-3.5,2.3-5.6C566.7,98.6,566.9,96.4,567,94.1L567,94.1L567,94.1z"/>
				<path class="st3" d="M609.7,112.7c0,0.4-0.1,0.7-0.2,0.9c-0.1,0.2-0.3,0.5-0.4,0.6c-0.2,0.2-0.4,0.3-0.6,0.3s-0.4,0.1-0.6,0.1
					h-0.8c-0.4,0-0.8-0.1-1.2-0.2c-0.3-0.1-0.7-0.3-1-0.6s-0.7-0.6-1-1.1c-0.3-0.4-0.7-1-1.1-1.7l-14.3-25.4
					c-0.7-1.2-1.4-2.5-2.2-3.8c-0.7-1.3-1.4-2.6-2.1-3.8l0,0c0,1.5,0,3.1,0,4.7v31.1c0,0.1,0,0.2-0.1,0.3s-0.2,0.2-0.3,0.2
					c-0.2,0.1-0.3,0.1-0.6,0.2s-0.5,0.1-0.9,0.1s-0.7,0-0.9-0.1s-0.5-0.1-0.6-0.2c-0.2-0.1-0.2-0.2-0.3-0.2s-0.1-0.2-0.1-0.3v-38
					c0-0.8,0.2-1.3,0.6-1.6c0.4-0.3,0.8-0.4,1.2-0.4h1.6c0.5,0,0.9,0,1.3,0.1c0.3,0.1,0.6,0.2,0.9,0.4c0.3,0.2,0.5,0.5,0.8,0.8
					c0.3,0.4,0.5,0.8,0.9,1.4l11,19.5c0.7,1.2,1.3,2.4,2,3.5s1.2,2.2,1.8,3.3s1.2,2.1,1.8,3.2s1.2,2.1,1.7,3.2l0,0
					c0-1.8,0-3.6,0-5.5V74.6c0-0.1,0-0.2,0.1-0.3s0.2-0.2,0.3-0.3c0.2-0.1,0.3-0.1,0.6-0.2c0.2,0,0.5-0.1,0.9-0.1
					c0.3,0,0.6,0,0.9,0.1c0.2,0,0.5,0.1,0.6,0.2c0.2,0.1,0.3,0.2,0.3,0.3c0.1,0.1,0.1,0.2,0.1,0.3L609.7,112.7L609.7,112.7
					L609.7,112.7z"/>
			</g>
			<path class="st3" d="M353.4,94.2c0,11,8.9,19.9,19.9,19.9s19.9-8.9,19.9-19.9c0-0.3,0-0.6,0-0.8h-19v3.9h14.9l-0.3,1.2
				c-1.9,7-8.3,11.8-15.5,11.8c-8.8,0-16-7.2-16-16s7.2-16,16-16c3.7,0,7.3,1.3,10.2,3.6l2.8-2.8c-3.6-3.1-8.2-4.8-12.9-4.8
				C362.3,74.3,353.3,83.2,353.4,94.2L353.4,94.2z"/>
		</g>
	</g>
</g>
<g id="Layer_2">
	<g>
		<path class="st4" d="M990.6,1H61.4C26.9,1-1.1,29-1.1,63.5v192c0,34.5,28,62.5,62.5,62.5h929.1c34.5,0,62.5-28,62.5-62.5v-192
			C1053.1,29,1025.1,1,990.6,1z"/>
		<g>
			<g>
				<path class="st5" d="M237.3,125.8L208.9,154l-83.3-84.8c4.2-2.5,9.6-2.9,14.4-0.1L237.3,125.8z"/>
				<path class="st6" d="M238,192.8L140,249.9c-5.9,3.4-12.6,2.1-16.9-2l85.8-84.8L238,192.8z"/>
				<path class="st7" d="M270.8,171.7l-28.1,16.4l-0.2,0.1l-29.1-29.7l28.4-28.2l0.2,0.1l28.8,16.8
					C280.2,152.7,280.2,166.3,270.8,171.7z"/>
				<path class="st8" d="M118.5,243.4c-0.1-0.1-0.1-0.1-0.2-0.2c-2.5-2.5-4.2-6-4.2-10V85.8c0-5.2,2.7-9.6,6.6-12
					c0.1,0,0.1-0.1,0.2-0.1l83.3,84.8L118.5,243.4z"/>
			</g>
			<g>
				<g>
					<g>
						<path class="st9" d="M433.6,179.6h-11.3l0,0h-29.4v11.3h28.6c-3.4,12.6-14.9,21.8-28.6,21.8c-16.3,0-29.6-13.3-29.6-29.6
							s13.3-29.6,29.6-29.6c7.7,0,14.8,3,20,7.8l8-8c-7.3-6.9-17.2-11.1-28-11.1c-22.6,0-40.9,18.3-40.9,40.9
							c0,22.6,18.3,40.9,40.9,40.9c22.6,0,40.9-18.3,40.9-40.9C433.7,181.9,433.7,180.7,433.6,179.6z"/>
					</g>
					<g>
						<g>
							<path class="st9" d="M465.8,171.1c-14.4,0-26.1,11.8-26.1,26.3c0,14.5,11.7,26.3,26.1,26.3c14.4,0,26.1-11.8,26.1-26.3
								C491.9,182.9,480.2,171.1,465.8,171.1z M465.8,213.3c-7.9,0-14.3-6.9-14.3-15.4c0-8.5,6.4-15.4,14.3-15.4
								c7.9,0,14.3,6.9,14.3,15.4C480.1,206.4,473.7,213.3,465.8,213.3z"/>
						</g>
					</g>
					<g>
						<g>
							<path class="st9" d="M523.9,171.1c-14.4,0-26.1,11.8-26.1,26.3c0,14.5,11.7,26.3,26.1,26.3c14.4,0,26.1-11.8,26.1-26.3
								C550.1,182.9,538.4,171.1,523.9,171.1z M523.9,213.3c-7.9,0-14.3-6.9-14.3-15.4c0-8.5,6.4-15.4,14.3-15.4
								c7.9,0,14.3,6.9,14.3,15.4C538.3,206.4,531.8,213.3,523.9,213.3z"/>
						</g>
					</g>
					<g>
						<rect x="610.3" y="142.2" class="st9" width="11.3" height="82.6"/>
					</g>
					<path class="st9" d="M667.9,204.2c-1.7,3.5-4.6,6.2-8.2,7.6c-3.8,1.5-8,1.4-11.8-0.2c-2.4-1-4.4-2.7-6-4.7l38.3-15l-0.6-2
						c-0.2-0.7-0.5-1.5-0.7-2.2c-2.6-6.6-7.6-11.9-14.1-14.7c-6.5-2.9-13.8-3-20.4-0.4c-6.6,2.6-11.9,7.6-14.7,14.1
						c-2.9,6.5-3,13.8-0.4,20.4c2.6,6.6,7.6,11.9,14.1,14.7c3.4,1.5,7,2.2,10.7,2.2c3.3,0,6.6-0.6,9.7-1.9
						c6.4-2.5,11.5-7.3,14.4-13.4l1-2.1l-10.3-4.5L667.9,204.2z M664.4,186l-25.6,10c0.2-1.6,0.6-3.2,1.2-4.8
						c1.6-3.8,4.7-6.7,8.5-8.2c1.8-0.7,3.7-1.1,5.6-1.1C657.9,182,661.6,183.4,664.4,186z"/>
					<path class="st9" d="M593.1,171.1v4.6c-3.8-2.9-8.4-4.6-13.4-4.6c-13.1,0-23.7,11.8-23.7,26.3c0,14.5,10.6,26.3,23.7,26.3
						c5,0,9.6-1.7,13.4-4.6v5.7c0,3.2-2.3,12.3-13,12.3c-10.6,0-13.6-9.5-13.6-9.5l-10.2,4.8c0,0,3.8,15,24.9,15
						c11.4,0,17.3-6.6,20.3-12.7c2-4.1,3-8.7,3-13.2v-50.3H593.1z M579.7,213.3c-7.2,0-13-6.9-13-15.4c0-8.5,5.8-15.4,13-15.4
						c7.2,0,13,6.9,13,15.4C592.6,206.4,586.8,213.3,579.7,213.3z"/>
				</g>
				<g>
					<g>
						<rect x="719.4" y="142.2" class="st9" width="11.3" height="82.6"/>
					</g>
					<g>
						<path class="st9" d="M746.4,142.2v11.3c7.9,0,14.3,6.9,14.3,15.4c0,8.5-6.4,15.4-14.3,15.4v10.5c14.4,0,26.1-11.8,26.1-26.3
							C772.6,154,760.9,142.2,746.4,142.2z"/>
					</g>
					<rect x="727.5" y="142.2" class="st9" width="19" height="11.3"/>
					<rect x="727.5" y="184.4" class="st9" width="19" height="10.5"/>
				</g>
				<g>
					<rect x="778.5" y="142.2" class="st9" width="11.3" height="82.6"/>
				</g>
				<path class="st9" d="M826.6,217.6l1.4-1.5v7.9h9.5v-34.1c0-3.2-0.4-5.9-1.1-8.2c-0.7-2.2-1.9-4.1-3.5-5.5
					c-1.6-1.4-3.7-2.5-6.2-3.2c-2.6-0.7-5.7-1.1-9.4-1.1c-2,0-4.1,0.2-6,0.5c-1.9,0.3-3.7,0.8-5.4,1.3c-1.4,0.5-2.7,0.9-3.8,1.5
					l0.6,8.9c0.7-0.3,1.5-0.7,2.3-1.1c1.4-0.6,3-1.2,4.8-1.7c1.8-0.5,3.9-0.8,6.2-0.8c1.8,0,3.3,0.2,4.5,0.6c1.3,0.4,2.3,1,3.1,1.9
					c0.8,0.8,1.3,1.9,1.7,3.1c0.3,1.2,0.5,2.6,0.5,4.1v3.7h-5.4c-4.2,0-7.9,0.3-11,0.9c-3.1,0.6-5.7,1.6-7.8,2.9
					c-2,1.3-3.6,2.9-4.6,4.8c-1,1.9-1.5,4.2-1.5,6.9c0,2.4,0.4,4.6,1.2,6.4c0.8,1.8,1.9,3.3,3.4,4.5c1.5,1.2,3.2,2.2,5.2,2.8
					c2,0.6,4.3,1,6.7,1c2.9,0,5.6-0.6,8-1.7C822.6,221.2,824.8,219.6,826.6,217.6z M820.7,214.5c-1.7,1-3.6,1.6-5.6,1.6
					c-2.4,0-4.4-0.6-5.8-1.9c-1.4-1.3-2.2-3.1-2.2-5.3c0-1.3,0.3-2.5,0.7-3.5c0.5-1,1.3-1.9,2.4-2.6c1-0.7,2.4-1.2,4-1.6
					c1.6-0.3,3.5-0.5,5.7-0.5h5.9v9.2l-0.2,0.2C824.1,212.1,822.4,213.5,820.7,214.5z"/>
				<polygon class="st9" points="882.3,172 874.1,191.1 869,202.8 865.6,194.8 855.7,172 843.4,172 859.4,209.1 863,217.3 
					853.7,240.1 866,240.1 874.1,219.5 880.2,205.3 894.6,172 				"/>
			</g>
			<g>
				<g>
					<path class="st9" d="M420.5,111.4c0,0.3,0,0.5-0.1,0.7c0,0.2-0.1,0.4-0.2,0.5c-0.1,0.1-0.2,0.3-0.3,0.3
						c-0.1,0.1-0.3,0.1-0.4,0.1h-19.2c-0.4,0-0.8-0.1-1.2-0.4c-0.4-0.3-0.6-0.8-0.6-1.6V74.2c0-0.8,0.2-1.3,0.6-1.6
						c0.4-0.3,0.8-0.4,1.2-0.4h18.9c0.1,0,0.3,0,0.4,0.1c0.1,0.1,0.2,0.2,0.3,0.3c0.1,0.1,0.1,0.3,0.2,0.6c0,0.2,0.1,0.5,0.1,0.8
						c0,0.3,0,0.5-0.1,0.7c0,0.2-0.1,0.4-0.2,0.5c-0.1,0.1-0.2,0.2-0.3,0.3c-0.1,0.1-0.3,0.1-0.4,0.1h-16.8V90h14.5
						c0.2,0,0.3,0,0.4,0.1c0.1,0.1,0.2,0.2,0.3,0.3c0.1,0.1,0.1,0.3,0.2,0.5c0,0.2,0.1,0.5,0.1,0.8c0,0.3,0,0.5-0.1,0.7
						c0,0.2-0.1,0.4-0.2,0.5c-0.1,0.1-0.2,0.2-0.3,0.3c-0.1,0.1-0.3,0.1-0.4,0.1h-14.5v16.3h17.1c0.1,0,0.3,0,0.4,0.1
						c0.1,0.1,0.2,0.2,0.3,0.3c0.1,0.1,0.2,0.3,0.2,0.5C420.4,110.9,420.5,111.1,420.5,111.4z"/>
					<path class="st9" d="M454.9,74c0,0.3,0,0.5-0.1,0.7c0,0.2-0.1,0.4-0.2,0.5c-0.1,0.1-0.2,0.2-0.3,0.3c-0.1,0.1-0.3,0.1-0.4,0.1
						h-12.2v36.8c0,0.1,0,0.2-0.1,0.3s-0.2,0.2-0.3,0.3c-0.1,0.1-0.3,0.1-0.6,0.2c-0.3,0-0.6,0.1-0.9,0.1c-0.4,0-0.7,0-0.9-0.1
						c-0.3,0-0.5-0.1-0.6-0.2c-0.1-0.1-0.3-0.1-0.3-0.3s-0.1-0.2-0.1-0.3V75.7h-12.2c-0.2,0-0.3,0-0.4-0.1c-0.1-0.1-0.2-0.2-0.3-0.3
						c-0.1-0.1-0.1-0.3-0.2-0.5c0-0.2-0.1-0.5-0.1-0.7c0-0.3,0-0.6,0.1-0.8c0-0.2,0.1-0.4,0.2-0.6c0.1-0.1,0.2-0.3,0.3-0.3
						c0.1-0.1,0.3-0.1,0.4-0.1H454c0.1,0,0.3,0,0.4,0.1c0.1,0.1,0.2,0.2,0.3,0.3c0.1,0.1,0.1,0.3,0.2,0.6
						C454.9,73.4,454.9,73.7,454.9,74z"/>
					<path class="st9" d="M479.9,112.5c0,0.1,0,0.2-0.1,0.3s-0.2,0.2-0.3,0.3c-0.1,0.1-0.3,0.1-0.6,0.2c-0.2,0-0.6,0.1-0.9,0.1
						c-0.4,0-0.7,0-0.9-0.1c-0.3,0-0.5-0.1-0.6-0.2c-0.1-0.1-0.3-0.1-0.3-0.3s-0.1-0.2-0.1-0.3V72.8c0-0.1,0-0.2,0.1-0.3
						c0.1-0.1,0.2-0.2,0.3-0.3s0.4-0.1,0.6-0.2c0.2,0,0.5-0.1,0.9-0.1c0.4,0,0.7,0,0.9,0.1c0.2,0,0.4,0.1,0.6,0.2
						c0.1,0.1,0.3,0.1,0.3,0.3c0.1,0.1,0.1,0.2,0.1,0.3V112.5z"/>
					<path class="st9" d="M516.7,74c0,0.3,0,0.5-0.1,0.7c0,0.2-0.1,0.4-0.2,0.5c-0.1,0.1-0.2,0.2-0.3,0.3c-0.1,0.1-0.3,0.1-0.4,0.1
						h-12.2v36.8c0,0.1,0,0.2-0.1,0.3s-0.2,0.2-0.3,0.3c-0.1,0.1-0.3,0.1-0.6,0.2c-0.3,0-0.6,0.1-0.9,0.1c-0.4,0-0.7,0-0.9-0.1
						c-0.3,0-0.5-0.1-0.6-0.2c-0.1-0.1-0.3-0.1-0.3-0.3c-0.1-0.1-0.1-0.2-0.1-0.3V75.7h-12.2c-0.2,0-0.3,0-0.4-0.1
						c-0.1-0.1-0.2-0.2-0.3-0.3c-0.1-0.1-0.1-0.3-0.2-0.5c0-0.2-0.1-0.5-0.1-0.7c0-0.3,0-0.6,0.1-0.8c0-0.2,0.1-0.4,0.2-0.6
						c0.1-0.1,0.2-0.3,0.3-0.3c0.1-0.1,0.3-0.1,0.4-0.1h28.3c0.1,0,0.3,0,0.4,0.1c0.1,0.1,0.2,0.2,0.3,0.3c0.1,0.1,0.1,0.3,0.2,0.6
						C516.7,73.4,516.7,73.7,516.7,74z"/>
					<path class="st9" d="M570.7,92.2c0,3.3-0.4,6.2-1.1,8.9c-0.7,2.6-1.9,4.9-3.4,6.8c-1.5,1.9-3.4,3.3-5.7,4.3s-4.9,1.5-8,1.5
						c-3,0-5.6-0.5-7.8-1.4c-2.2-1-4-2.3-5.4-4.1c-1.4-1.8-2.4-4-3.1-6.5c-0.7-2.6-1-5.5-1-8.7c0-3.2,0.4-6.1,1.1-8.7
						c0.7-2.6,1.9-4.8,3.4-6.7c1.5-1.8,3.4-3.3,5.7-4.3c2.3-1,4.9-1.5,8-1.5c3,0,5.5,0.5,7.7,1.4c2.2,0.9,4,2.3,5.4,4.1
						c1.4,1.8,2.5,3.9,3.2,6.4C570.4,86.2,570.7,89,570.7,92.2z M566.6,92.5c0-2.4-0.2-4.7-0.7-6.8c-0.5-2.1-1.2-4-2.2-5.5
						c-1-1.6-2.4-2.8-4.2-3.7c-1.7-0.9-3.9-1.3-6.4-1.3c-2.5,0-4.7,0.5-6.4,1.4c-1.7,0.9-3.2,2.2-4.2,3.8c-1.1,1.6-1.9,3.4-2.3,5.5
						c-0.5,2.1-0.7,4.3-0.7,6.7c0,2.5,0.2,4.8,0.6,6.9c0.4,2.1,1.2,4,2.2,5.6c1,1.6,2.4,2.8,4.1,3.7c1.7,0.9,3.9,1.3,6.5,1.3
						c2.6,0,4.7-0.5,6.5-1.4c1.7-1,3.2-2.2,4.2-3.9s1.8-3.5,2.3-5.6C566.4,97.1,566.6,94.9,566.6,92.5z"/>
					<path class="st9" d="M609.5,111.2c0,0.4-0.1,0.7-0.2,0.9c-0.1,0.3-0.3,0.5-0.4,0.6c-0.2,0.2-0.4,0.3-0.6,0.3s-0.4,0.1-0.6,0.1
						h-0.8c-0.4,0-0.8-0.1-1.2-0.2c-0.3-0.1-0.7-0.3-1-0.6c-0.3-0.3-0.7-0.6-1-1.1c-0.3-0.4-0.7-1-1.1-1.7l-14.4-25.5
						c-0.7-1.2-1.4-2.5-2.2-3.8c-0.7-1.3-1.4-2.6-2.1-3.8h0c0,1.5,0,3.1,0,4.7c0,1.6,0,3.2,0,4.7v26.5c0,0.1,0,0.2-0.1,0.3
						c-0.1,0.1-0.2,0.2-0.3,0.3c-0.1,0.1-0.3,0.1-0.6,0.2c-0.2,0-0.6,0.1-0.9,0.1c-0.4,0-0.7,0-0.9-0.1c-0.3,0-0.5-0.1-0.6-0.2
						c-0.1-0.1-0.3-0.1-0.3-0.3c-0.1-0.1-0.1-0.2-0.1-0.3V74.2c0-0.8,0.2-1.3,0.6-1.6c0.4-0.3,0.8-0.4,1.2-0.4h1.6
						c0.5,0,0.9,0,1.3,0.1c0.3,0.1,0.6,0.2,0.9,0.4c0.3,0.2,0.5,0.5,0.8,0.9c0.3,0.4,0.6,0.8,0.9,1.4l11,19.6c0.7,1.2,1.4,2.4,2,3.5
						c0.6,1.1,1.2,2.2,1.8,3.3c0.6,1.1,1.2,2.2,1.8,3.2c0.6,1.1,1.2,2.1,1.7,3.2h0c0-1.8,0-3.6,0-5.5c0-1.9,0-3.8,0-5.5V73
						c0-0.1,0-0.2,0.1-0.3c0.1-0.1,0.2-0.2,0.3-0.3c0.1-0.1,0.3-0.1,0.6-0.2c0.2,0,0.6,0,0.9,0c0.3,0,0.6,0,0.9,0
						c0.3,0,0.5,0.1,0.6,0.2c0.1,0.1,0.3,0.2,0.3,0.3c0.1,0.1,0.1,0.2,0.1,0.3V111.2z"/>
				</g>
				<path class="st9" d="M352,92.6c0,11,9,20,20,20c11,0,20-9,20-20c0-0.3,0-0.6,0-0.8h-19v3.9h14.9l-0.3,1.2
					c-1.9,7-8.3,11.9-15.6,11.9c-8.9,0-16.1-7.2-16.1-16.1s7.2-16.1,16.1-16.1c3.7,0,7.3,1.3,10.2,3.7l2.8-2.8
					c-3.6-3.1-8.2-4.8-13-4.8C360.9,72.6,352,81.6,352,92.6z"/>
			</g>
		</g>
	</g>
</g>
</svg>
