<svg xmlns="http://www.w3.org/2000/svg" xmlns:xlink="http://www.w3.org/1999/xlink" width="524" zoomAndPan="magnify" viewBox="0 0 392.88 103.5" height="138" preserveAspectRatio="xMidYMid meet" version="1.0"><defs><g/><clipPath id="ca350f63a7"><path d="M 0.882812 10 L 387 10 L 387 100 L 0.882812 100 Z M 0.882812 10 " clip-rule="nonzero"/></clipPath><clipPath id="7916aaa701"><path d="M 84 0.988281 L 386.859375 0.988281 L 386.859375 75 L 84 75 Z M 84 0.988281 " clip-rule="nonzero"/></clipPath><clipPath id="a282ba94ab"><rect x="0" width="303" y="0" height="75"/></clipPath><clipPath id="215e161b22"><rect x="0" width="283" y="0" height="33"/></clipPath><clipPath id="b9113ea2e8"><path d="M 20 8 L 62 8 L 62 50 L 20 50 Z M 20 8 " clip-rule="nonzero"/></clipPath><clipPath id="9e4d797773"><path d="M 16.667969 45.601562 L 57.648438 4.621094 L 65.550781 12.519531 L 24.566406 53.5 Z M 16.667969 45.601562 " clip-rule="nonzero"/></clipPath><clipPath id="ccfe53944f"><path d="M 37.144531 25.125 L 61.570312 8.597656 L 45.042969 33.023438 L 20.617188 49.550781 Z M 37.144531 25.125 " clip-rule="nonzero"/></clipPath><clipPath id="9442b08bc1"><path d="M 0.46875 0.390625 L 41.789062 0.390625 L 41.789062 41.710938 L 0.46875 41.710938 Z M 0.46875 0.390625 " clip-rule="nonzero"/></clipPath><clipPath id="72589a4632"><path d="M -3.332031 37.601562 L 37.648438 -3.378906 L 45.550781 4.519531 L 4.566406 45.5 Z M -3.332031 37.601562 " clip-rule="nonzero"/></clipPath><clipPath id="73276ea548"><path d="M 17.144531 17.125 L 41.570312 0.597656 L 25.042969 25.023438 L 0.617188 41.550781 Z M 17.144531 17.125 " clip-rule="nonzero"/></clipPath><clipPath id="5c305551ef"><rect x="0" width="42" y="0" height="42"/></clipPath><clipPath id="3eb825108a"><path d="M 4 5 L 85 5 L 85 86 L 4 86 Z M 4 5 " clip-rule="nonzero"/></clipPath><clipPath id="a80693ef7b"><path d="M 0.882812 81.914062 L 80.996094 1.800781 L 88.894531 9.703125 L 8.785156 89.8125 Z M 0.882812 81.914062 " clip-rule="nonzero"/></clipPath><clipPath id="2745a292e9"><path d="M 40.933594 41.863281 L 84.929688 5.765625 L 48.832031 49.765625 L 4.832031 85.863281 Z M 40.933594 41.863281 " clip-rule="nonzero"/></clipPath><clipPath id="5e5cda21cd"><path d="M 0.707031 0.765625 L 80.957031 0.765625 L 80.957031 81 L 0.707031 81 Z M 0.707031 0.765625 " clip-rule="nonzero"/></clipPath><clipPath id="6568290ff7"><path d="M -3.117188 76.914062 L 76.996094 -3.199219 L 84.894531 4.703125 L 4.785156 84.8125 Z M -3.117188 76.914062 " clip-rule="nonzero"/></clipPath><clipPath id="17f265cfae"><path d="M 36.933594 36.863281 L 80.929688 0.765625 L 44.832031 44.765625 L 0.832031 80.863281 Z M 36.933594 36.863281 " clip-rule="nonzero"/></clipPath><clipPath id="b2122b99ef"><rect x="0" width="81" y="0" height="81"/></clipPath><clipPath id="1814c50fe5"><path d="M 28 41 L 70 41 L 70 83 L 28 83 Z M 28 41 " clip-rule="nonzero"/></clipPath><clipPath id="dea393c7b7"><path d="M 24.242188 78.894531 L 65.398438 37.734375 L 73.4375 45.773438 L 32.277344 86.933594 Z M 24.242188 78.894531 " clip-rule="nonzero"/></clipPath><clipPath id="398fe09e72"><path d="M 44.808594 58.328125 L 69.394531 41.777344 L 52.84375 66.363281 L 28.257812 82.914062 Z M 44.808594 58.328125 " clip-rule="nonzero"/></clipPath><clipPath id="b6682d35b6"><path d="M 0.113281 0.589844 L 41.433594 0.589844 L 41.433594 42 L 0.113281 42 Z M 0.113281 0.589844 " clip-rule="nonzero"/></clipPath><clipPath id="d6b127e9f4"><path d="M -3.757812 37.894531 L 37.398438 -3.265625 L 45.4375 4.773438 L 4.277344 45.933594 Z M -3.757812 37.894531 " clip-rule="nonzero"/></clipPath><clipPath id="e0e1d21823"><path d="M 16.808594 17.328125 L 41.394531 0.777344 L 24.84375 25.363281 L 0.257812 41.914062 Z M 16.808594 17.328125 " clip-rule="nonzero"/></clipPath><clipPath id="3bef97e2a7"><rect x="0" width="42" y="0" height="42"/></clipPath><clipPath id="3c57078b6c"><rect x="0" width="387" y="0" height="90"/></clipPath></defs><g clip-path="url(#ca350f63a7)"><g transform="matrix(1, 0, 0, 1, 0.000000000000000111, 10)"><g clip-path="url(#3c57078b6c)"><g clip-path="url(#7916aaa701)"><g transform="matrix(1, 0, 0, 1, 84, 0)"><g clip-path="url(#a282ba94ab)"><g fill="#000000" fill-opacity="1"><g transform="translate(0.891976, 57.875739)"><g><path d="M 14.203125 -29.828125 L 2.25 -29.828125 L 2.25 -36.671875 L 24.421875 -36.671875 L 11.34375 -6.640625 L 23.59375 -6.640625 L 23.59375 0 L 1.171875 0 Z M 14.203125 -29.828125 "/></g></g></g><g fill="#000000" fill-opacity="1"><g transform="translate(52.937873, 57.875739)"><g><path d="M 28.09375 0 L 25.28125 -7.5625 L 10.0625 -7.5625 L 7.25 0 L 0 0 L 14.15625 -36.671875 L 21.203125 -36.671875 L 35.34375 0 Z M 12.671875 -14.40625 L 22.734375 -14.40625 L 17.671875 -27.890625 Z M 12.671875 -14.40625 "/></g></g></g><g fill="#000000" fill-opacity="1"><g transform="translate(114.789146, 57.875739)"><g><path d="M 4.1875 -36.671875 L 11.1875 -36.671875 L 11.1875 -22.890625 L 23.546875 -22.890625 L 23.546875 -36.671875 L 30.546875 -36.671875 L 30.546875 0 L 23.546875 0 L 23.546875 -16.03125 L 11.1875 -16.03125 L 11.1875 0 L 4.1875 0 Z M 4.1875 -36.671875 "/></g></g></g><g fill="#000000" fill-opacity="1"><g transform="translate(176.027585, 57.875739)"><g><path d="M 28.09375 0 L 25.28125 -7.5625 L 10.0625 -7.5625 L 7.25 0 L 0 0 L 14.15625 -36.671875 L 21.203125 -36.671875 L 35.34375 0 Z M 12.671875 -14.40625 L 22.734375 -14.40625 L 17.671875 -27.890625 Z M 12.671875 -14.40625 "/></g></g></g><g fill="#000000" fill-opacity="1"><g transform="translate(237.878847, 57.875739)"><g><path d="M 26.609375 -36.671875 L 33.609375 -36.671875 L 33.609375 0 L 26.859375 0 L 11.1875 -24 L 11.1875 0 L 4.1875 0 L 4.1875 -36.671875 L 10.875 -36.671875 L 26.609375 -12.609375 Z M 26.609375 -36.671875 "/></g></g></g></g></g></g><g transform="matrix(1, 0, 0, 1, 83, 55)"><g clip-path="url(#215e161b22)"><g fill="#000000" fill-opacity="1"><g transform="translate(0.84806, 25.106855)"><g><path d="M 1.84375 -16.125 L 9.84375 -16.125 L 9.84375 -13.125 L 4.828125 -13.125 L 4.828125 -10.25 L 9.84375 -10.25 L 9.84375 -7.234375 L 4.828125 -7.234375 L 4.828125 0 L 1.84375 0 Z M 1.84375 -16.125 "/></g></g></g><g fill="#000000" fill-opacity="1"><g transform="translate(12.685634, 25.106855)"><g><path d="M 12.359375 0 L 11.125 -3.328125 L 4.421875 -3.328125 L 3.1875 0 L 0 0 L 6.21875 -16.125 L 9.328125 -16.125 L 15.546875 0 Z M 5.578125 -6.34375 L 10 -6.34375 L 7.78125 -12.265625 Z M 5.578125 -6.34375 "/></g></g></g><g fill="#000000" fill-opacity="1"><g transform="translate(29.352482, 25.106855)"><g><path d="M 5.859375 0.40625 C 4.691406 0.40625 3.6875 0.117188 2.84375 -0.453125 C 2 -1.035156 1.273438 -1.914062 0.671875 -3.09375 L 3.265625 -4.65625 C 3.628906 -3.945312 4.03125 -3.414062 4.46875 -3.0625 C 4.90625 -2.707031 5.394531 -2.53125 5.9375 -2.53125 C 6.28125 -2.53125 6.59375 -2.597656 6.875 -2.734375 C 7.15625 -2.867188 7.378906 -3.050781 7.546875 -3.28125 C 7.710938 -3.519531 7.796875 -3.773438 7.796875 -4.046875 C 7.796875 -4.328125 7.738281 -4.578125 7.625 -4.796875 C 7.507812 -5.023438 7.347656 -5.25 7.140625 -5.46875 C 6.929688 -5.6875 6.617188 -5.96875 6.203125 -6.3125 C 4.972656 -7.34375 4.050781 -8.148438 3.4375 -8.734375 C 2.820312 -9.316406 2.332031 -9.910156 1.96875 -10.515625 C 1.613281 -11.128906 1.4375 -11.78125 1.4375 -12.46875 C 1.4375 -13.21875 1.632812 -13.898438 2.03125 -14.515625 C 2.425781 -15.140625 2.960938 -15.628906 3.640625 -15.984375 C 4.328125 -16.347656 5.066406 -16.53125 5.859375 -16.53125 C 6.804688 -16.53125 7.640625 -16.3125 8.359375 -15.875 C 9.085938 -15.4375 9.8125 -14.796875 10.53125 -13.953125 L 8.3125 -12.0625 C 7.863281 -12.570312 7.441406 -12.953125 7.046875 -13.203125 C 6.648438 -13.460938 6.238281 -13.59375 5.8125 -13.59375 C 5.414062 -13.59375 5.085938 -13.488281 4.828125 -13.28125 C 4.578125 -13.070312 4.453125 -12.800781 4.453125 -12.46875 C 4.453125 -12.226562 4.53125 -11.992188 4.6875 -11.765625 C 4.84375 -11.546875 5.085938 -11.285156 5.421875 -10.984375 C 5.765625 -10.679688 6.316406 -10.222656 7.078125 -9.609375 C 7.992188 -8.878906 8.691406 -8.273438 9.171875 -7.796875 C 9.660156 -7.316406 10.054688 -6.78125 10.359375 -6.1875 C 10.660156 -5.59375 10.8125 -4.921875 10.8125 -4.171875 C 10.8125 -3.296875 10.597656 -2.507812 10.171875 -1.8125 C 9.753906 -1.113281 9.171875 -0.566406 8.421875 -0.171875 C 7.671875 0.210938 6.816406 0.40625 5.859375 0.40625 Z M 5.859375 0.40625 "/></g></g></g><g fill="#000000" fill-opacity="1"><g transform="translate(42.155918, 25.106855)"><g><path d="M 1.84375 -16.125 L 4.921875 -16.125 L 4.921875 -10.0625 L 10.359375 -10.0625 L 10.359375 -16.125 L 13.4375 -16.125 L 13.4375 0 L 10.359375 0 L 10.359375 -7.0625 L 4.921875 -7.0625 L 4.921875 0 L 1.84375 0 Z M 1.84375 -16.125 "/></g></g></g><g fill="#000000" fill-opacity="1"><g transform="translate(58.553232, 25.106855)"><g><path d="M 1.84375 -16.125 L 4.921875 -16.125 L 4.921875 0 L 1.84375 0 Z M 1.84375 -16.125 "/></g></g></g><g fill="#000000" fill-opacity="1"><g transform="translate(66.437545, 25.106855)"><g><path d="M 9.5 0.375 C 7.925781 0.375 6.492188 0 5.203125 -0.75 C 3.921875 -1.507812 2.910156 -2.535156 2.171875 -3.828125 C 1.429688 -5.128906 1.0625 -6.550781 1.0625 -8.09375 C 1.0625 -9.644531 1.4375 -11.066406 2.1875 -12.359375 C 2.945312 -13.660156 3.96875 -14.679688 5.25 -15.421875 C 6.539062 -16.160156 7.941406 -16.53125 9.453125 -16.53125 C 10.941406 -16.53125 12.328125 -16.160156 13.609375 -15.421875 C 14.890625 -14.679688 15.914062 -13.660156 16.6875 -12.359375 C 17.457031 -11.066406 17.84375 -9.617188 17.84375 -8.015625 C 17.84375 -6.460938 17.46875 -5.046875 16.71875 -3.765625 C 15.976562 -2.484375 14.972656 -1.472656 13.703125 -0.734375 C 12.429688 0.00390625 11.03125 0.375 9.5 0.375 Z M 9.484375 -2.5625 C 10.441406 -2.5625 11.320312 -2.800781 12.125 -3.28125 C 12.925781 -3.769531 13.5625 -4.429688 14.03125 -5.265625 C 14.5 -6.109375 14.734375 -7.035156 14.734375 -8.046875 C 14.734375 -9.035156 14.503906 -9.953125 14.046875 -10.796875 C 13.597656 -11.640625 12.96875 -12.316406 12.15625 -12.828125 C 11.34375 -13.335938 10.4375 -13.59375 9.4375 -13.59375 C 8.476562 -13.59375 7.59375 -13.351562 6.78125 -12.875 C 5.976562 -12.40625 5.335938 -11.75 4.859375 -10.90625 C 4.390625 -10.0625 4.15625 -9.097656 4.15625 -8.015625 C 4.15625 -6.953125 4.398438 -6.003906 4.890625 -5.171875 C 5.378906 -4.347656 6.023438 -3.707031 6.828125 -3.25 C 7.640625 -2.789062 8.523438 -2.5625 9.484375 -2.5625 Z M 9.484375 -2.5625 "/></g></g></g><g fill="#000000" fill-opacity="1"><g transform="translate(86.428738, 25.106855)"><g><path d="M 11.703125 -16.125 L 14.78125 -16.125 L 14.78125 0 L 11.8125 0 L 4.921875 -10.5625 L 4.921875 0 L 1.84375 0 L 1.84375 -16.125 L 4.78125 -16.125 L 11.703125 -5.546875 Z M 11.703125 -16.125 "/></g></g></g><g fill="#000000" fill-opacity="1"><g transform="translate(104.173756, 25.106855)"><g/></g></g><g fill="#000000" fill-opacity="1"><g transform="translate(111.586368, 25.106855)"><g><path d="M 12.359375 0 L 11.125 -3.328125 L 4.421875 -3.328125 L 3.1875 0 L 0 0 L 6.21875 -16.125 L 9.328125 -16.125 L 15.546875 0 Z M 5.578125 -6.34375 L 10 -6.34375 L 7.78125 -12.265625 Z M 5.578125 -6.34375 "/></g></g></g><g fill="#000000" fill-opacity="1"><g transform="translate(128.253216, 25.106855)"><g><path d="M 11.703125 -16.125 L 14.78125 -16.125 L 14.78125 0 L 11.8125 0 L 4.921875 -10.5625 L 4.921875 0 L 1.84375 0 L 1.84375 -16.125 L 4.78125 -16.125 L 11.703125 -5.546875 Z M 11.703125 -16.125 "/></g></g></g><g fill="#000000" fill-opacity="1"><g transform="translate(145.998234, 25.106855)"><g><path d="M 5.734375 -16.125 C 8.671875 -16.125 10.890625 -15.453125 12.390625 -14.109375 C 13.898438 -12.765625 14.65625 -10.757812 14.65625 -8.09375 C 14.65625 -5.257812 13.898438 -3.203125 12.390625 -1.921875 C 10.890625 -0.640625 8.6875 0 5.78125 0 L 1.84375 0 L 1.84375 -16.125 Z M 6.3125 -3.015625 C 8.007812 -3.015625 9.304688 -3.429688 10.203125 -4.265625 C 11.097656 -5.109375 11.546875 -6.40625 11.546875 -8.15625 C 11.546875 -9.21875 11.320312 -10.117188 10.875 -10.859375 C 10.425781 -11.597656 9.78125 -12.160156 8.9375 -12.546875 C 8.101562 -12.929688 7.109375 -13.125 5.953125 -13.125 L 4.921875 -13.125 L 4.921875 -3.015625 Z M 6.3125 -3.015625 "/></g></g></g><g fill="#000000" fill-opacity="1"><g transform="translate(162.799861, 25.106855)"><g/></g></g><g fill="#000000" fill-opacity="1"><g transform="translate(170.212473, 25.106855)"><g><path d="M 4.921875 -16.125 L 4.921875 -2.921875 L 9.390625 -2.921875 L 9.390625 0 L 1.84375 0 L 1.84375 -16.125 Z M 4.921875 -16.125 "/></g></g></g><g fill="#000000" fill-opacity="1"><g transform="translate(181.218963, 25.106855)"><g><path d="M 1.84375 -16.125 L 4.921875 -16.125 L 4.921875 0 L 1.84375 0 Z M 1.84375 -16.125 "/></g></g></g><g fill="#000000" fill-opacity="1"><g transform="translate(189.103276, 25.106855)"><g><path d="M 1.84375 -16.125 L 9.84375 -16.125 L 9.84375 -13.125 L 4.828125 -13.125 L 4.828125 -10.25 L 9.84375 -10.25 L 9.84375 -7.234375 L 4.828125 -7.234375 L 4.828125 0 L 1.84375 0 Z M 1.84375 -16.125 "/></g></g></g><g fill="#000000" fill-opacity="1"><g transform="translate(200.94085, 25.106855)"><g><path d="M 1.84375 -16.125 L 10.65625 -16.125 L 10.65625 -13.140625 L 4.921875 -13.140625 L 4.921875 -10.203125 L 10.65625 -10.203125 L 10.65625 -7.28125 L 4.921875 -7.28125 L 4.921875 -3.015625 L 10.65625 -3.015625 L 10.65625 0 L 1.84375 0 Z M 1.84375 -16.125 "/></g></g></g><g fill="#000000" fill-opacity="1"><g transform="translate(213.721827, 25.106855)"><g><path d="M 5.859375 0.40625 C 4.691406 0.40625 3.6875 0.117188 2.84375 -0.453125 C 2 -1.035156 1.273438 -1.914062 0.671875 -3.09375 L 3.265625 -4.65625 C 3.628906 -3.945312 4.03125 -3.414062 4.46875 -3.0625 C 4.90625 -2.707031 5.394531 -2.53125 5.9375 -2.53125 C 6.28125 -2.53125 6.59375 -2.597656 6.875 -2.734375 C 7.15625 -2.867188 7.378906 -3.050781 7.546875 -3.28125 C 7.710938 -3.519531 7.796875 -3.773438 7.796875 -4.046875 C 7.796875 -4.328125 7.738281 -4.578125 7.625 -4.796875 C 7.507812 -5.023438 7.347656 -5.25 7.140625 -5.46875 C 6.929688 -5.6875 6.617188 -5.96875 6.203125 -6.3125 C 4.972656 -7.34375 4.050781 -8.148438 3.4375 -8.734375 C 2.820312 -9.316406 2.332031 -9.910156 1.96875 -10.515625 C 1.613281 -11.128906 1.4375 -11.78125 1.4375 -12.46875 C 1.4375 -13.21875 1.632812 -13.898438 2.03125 -14.515625 C 2.425781 -15.140625 2.960938 -15.628906 3.640625 -15.984375 C 4.328125 -16.347656 5.066406 -16.53125 5.859375 -16.53125 C 6.804688 -16.53125 7.640625 -16.3125 8.359375 -15.875 C 9.085938 -15.4375 9.8125 -14.796875 10.53125 -13.953125 L 8.3125 -12.0625 C 7.863281 -12.570312 7.441406 -12.953125 7.046875 -13.203125 C 6.648438 -13.460938 6.238281 -13.59375 5.8125 -13.59375 C 5.414062 -13.59375 5.085938 -13.488281 4.828125 -13.28125 C 4.578125 -13.070312 4.453125 -12.800781 4.453125 -12.46875 C 4.453125 -12.226562 4.53125 -11.992188 4.6875 -11.765625 C 4.84375 -11.546875 5.085938 -11.285156 5.421875 -10.984375 C 5.765625 -10.679688 6.316406 -10.222656 7.078125 -9.609375 C 7.992188 -8.878906 8.691406 -8.273438 9.171875 -7.796875 C 9.660156 -7.316406 10.054688 -6.78125 10.359375 -6.1875 C 10.660156 -5.59375 10.8125 -4.921875 10.8125 -4.171875 C 10.8125 -3.296875 10.597656 -2.507812 10.171875 -1.8125 C 9.753906 -1.113281 9.171875 -0.566406 8.421875 -0.171875 C 7.671875 0.210938 6.816406 0.40625 5.859375 0.40625 Z M 5.859375 0.40625 "/></g></g></g><g fill="#000000" fill-opacity="1"><g transform="translate(226.525263, 25.106855)"><g><path d="M 3.125 -13.125 L 0.25 -13.125 L 0.25 -16.125 L 9.171875 -16.125 L 9.171875 -13.125 L 6.203125 -13.125 L 6.203125 0 L 3.125 0 Z M 3.125 -13.125 "/></g></g></g><g fill="#000000" fill-opacity="1"><g transform="translate(237.082523, 25.106855)"><g><path d="M 4.984375 -6.984375 L 0.21875 -16.125 L 3.53125 -16.125 L 6.53125 -10.046875 L 9.5 -16.125 L 12.78125 -16.125 L 8.0625 -6.984375 L 8.0625 0 L 4.984375 0 Z M 4.984375 -6.984375 "/></g></g></g><g fill="#000000" fill-opacity="1"><g transform="translate(251.211214, 25.106855)"><g><path d="M 4.921875 -16.125 L 4.921875 -2.921875 L 9.390625 -2.921875 L 9.390625 0 L 1.84375 0 L 1.84375 -16.125 Z M 4.921875 -16.125 "/></g></g></g><g fill="#000000" fill-opacity="1"><g transform="translate(262.217704, 25.106855)"><g><path d="M 1.84375 -16.125 L 10.65625 -16.125 L 10.65625 -13.140625 L 4.921875 -13.140625 L 4.921875 -10.203125 L 10.65625 -10.203125 L 10.65625 -7.28125 L 4.921875 -7.28125 L 4.921875 -3.015625 L 10.65625 -3.015625 L 10.65625 0 L 1.84375 0 Z M 1.84375 -16.125 "/></g></g></g><g fill="#000000" fill-opacity="1"><g transform="translate(275.007997, 25.106855)"><g/></g></g></g></g><g clip-path="url(#b9113ea2e8)"><g clip-path="url(#9e4d797773)"><g clip-path="url(#ccfe53944f)"><g transform="matrix(1, 0, 0, 1, 20, 8)"><g clip-path="url(#5c305551ef)"><g clip-path="url(#9442b08bc1)"><g clip-path="url(#72589a4632)"><g clip-path="url(#73276ea548)"><path fill="#000000" d="M -3.332031 37.601562 L 37.617188 -3.351562 L 45.519531 4.550781 L 4.566406 45.5 Z M -3.332031 37.601562 " fill-opacity="1" fill-rule="nonzero"/></g></g></g></g></g></g></g></g><g clip-path="url(#3eb825108a)"><g clip-path="url(#a80693ef7b)"><g clip-path="url(#2745a292e9)"><g transform="matrix(1, 0, 0, 1, 4, 5)"><g clip-path="url(#b2122b99ef)"><g clip-path="url(#5e5cda21cd)"><g clip-path="url(#6568290ff7)"><g clip-path="url(#17f265cfae)"><path fill="#000000" d="M -3.117188 76.914062 L 76.996094 -3.199219 L 84.894531 4.703125 L 4.785156 84.8125 Z M -3.117188 76.914062 " fill-opacity="1" fill-rule="nonzero"/></g></g></g></g></g></g></g></g><g clip-path="url(#1814c50fe5)"><g clip-path="url(#dea393c7b7)"><g clip-path="url(#398fe09e72)"><g transform="matrix(1, 0, 0, 1, 28, 41)"><g clip-path="url(#3bef97e2a7)"><g clip-path="url(#b6682d35b6)"><g clip-path="url(#d6b127e9f4)"><g clip-path="url(#e0e1d21823)"><path fill="#000000" d="M -3.757812 37.894531 L 37.367188 -3.230469 L 45.40625 4.804688 L 4.277344 45.933594 Z M -3.757812 37.894531 " fill-opacity="1" fill-rule="nonzero"/></g></g></g></g></g></g></g></g></g></g></g></svg>